<svg id="Layer_1" data-name="Layer 1" xmlns="http://www.w3.org/2000/svg" width="64" height="64" viewBox="0 0 64 64">
	<defs>
		<style>
			.cls-1{opacity:0.7;}
			.cls-2{opacity:0.2;}
			.cls-3{opacity:0.5;}
			.cls-4{opacity:0.8;}
			.cls-5{opacity:0.9;}
			.cls-6{opacity:0.1;}
			.cls-7{opacity:0.3;}
			.cls-8{opacity:0.4;}
			.cls-9{opacity:0.6;}

			svg {
				fill: white;
				animation: spinner 1s steps(12, end) infinite;
			}

			@keyframes spinner {
				to { transform: rotate(360deg); }
			}
		</style>
	</defs>
	<title>Spinner</title>
	<path class="cls-1" d="M19,37.19,5,45.27a2,2,0,1,0,2,3.46l14-8.08A13.82,13.82,0,0,1,19,37.19Z" />
	<path d="M32,18a14.58,14.58,0,0,1,2,.16V2a2,2,0,0,0-4,0V18.16A14.58,14.58,0,0,1,32,18Z"/>
	<path class="cls-2" d="M62,30H45.84A14.58,14.58,0,0,1,46,32a14.58,14.58,0,0,1-.16,2H62a2,2,0,0,0,0-4Z"/>
	<path class="cls-3" d="M32,46a14.58,14.58,0,0,1-2-.16V62a2,2,0,0,0,4,0V45.84A14.58,14.58,0,0,1,32,46Z"/>
	<path class="cls-4" d="M18,32a14.58,14.58,0,0,1,.16-2H2a2,2,0,0,0,0,4H18.16A14.58,14.58,0,0,1,18,32Z"/>
	<path class="cls-4" d="M5,18.73l14,8.08a13.82,13.82,0,0,1,2-3.46L7,15.27a2,2,0,0,0-2,3.46Z"/>
	<path class="cls-5" d="M23.35,21a13.82,13.82,0,0,1,3.46-2L18.73,5a2,2,0,1,0-3.46,2Z"/>
	<path class="cls-6" d="M40.65,21,48.73,7a2,2,0,0,0-3.46-2L37.19,19A13.82,13.82,0,0,1,40.65,21Z"/>
	<path class="cls-6" d="M45,26.81l14-8.08a2,2,0,0,0-2-3.46L43,23.35A13.82,13.82,0,0,1,45,26.81Z"/>
	<path class="cls-7" d="M59,45.27,45,37.19a13.82,13.82,0,0,1-2,3.46l14,8.08a2,2,0,0,0,2-3.46Z"/>
	<path class="cls-8" d="M40.65,43a13.82,13.82,0,0,1-3.46,2l8.08,14a2,2,0,0,0,3.46-2Z"/>
	<path class="cls-9" d="M23.35,43,15.27,57a2,2,0,0,0,3.46,2l8.08-14A13.82,13.82,0,0,1,23.35,43Z"/>
</svg>