<?xml version="1.0" encoding="utf-8"?>
<!-- Generator: Adobe Illustrator 19.1.1, SVG Export Plug-In . SVG Version: 6.00 Build 0)  -->
<svg version="1.1" xmlns="http://www.w3.org/2000/svg" xmlns:xlink="http://www.w3.org/1999/xlink" x="0px" y="0px" width="114px"
	 height="12px" viewBox="0 0 114 12" enable-background="new 0 0 114 12" xml:space="preserve">
<g id="Small">
</g>
<g id="Medium">
</g>
<g id="Large">
	<g>
		<g opacity="0.15">
			<polygon fill-rule="evenodd" clip-rule="evenodd" points="60.2,6.5 59.5,5.8 59.5,5.8 54.7,1 54,1.7 58.8,6.5 54,11.3 54.7,12 
				59.5,7.2 59.5,7.2 60.2,6.5 60.2,6.5 			"/>
		</g>
		<g>
			<g>
				<polygon fill-rule="evenodd" clip-rule="evenodd" fill="#282828" points="60.2,5.5 59.5,4.8 59.5,4.8 54.7,0 54,0.7 58.8,5.5 
					54,10.3 54.7,11 59.5,6.2 59.5,6.2 60.2,5.5 60.2,5.5 				"/>
			</g>
		</g>
	</g>
	<g>
		<g opacity="0.15">
			<polygon fill-rule="evenodd" clip-rule="evenodd" points="77.2,6.5 76.5,5.8 76.5,5.8 71.7,1 71,1.7 75.8,6.5 71,11.3 71.7,12 
				76.5,7.2 76.5,7.2 77.2,6.5 77.2,6.5 			"/>
		</g>
		<g>
			<g>
				<polygon fill-rule="evenodd" clip-rule="evenodd" fill="#FFFFFF" points="77.2,5.5 76.5,4.8 76.5,4.8 71.7,0 71,0.7 75.8,5.5 
					71,10.3 71.7,11 76.5,6.2 76.5,6.2 77.2,5.5 77.2,5.5 				"/>
			</g>
		</g>
	</g>
	<g>
		<g opacity="0.15">
			<polygon fill-rule="evenodd" clip-rule="evenodd" points="94.2,6.5 93.5,5.8 93.5,5.8 88.7,1 88,1.7 92.8,6.5 88,11.3 88.7,12 
				93.5,7.2 93.5,7.2 94.2,6.5 94.2,6.5 			"/>
		</g>
		<g>
			<g>
				<polygon fill-rule="evenodd" clip-rule="evenodd" fill="#68A611" points="94.2,5.5 93.5,4.8 93.5,4.8 88.7,0 88,0.7 92.8,5.5 
					88,10.3 88.7,11 93.5,6.2 93.5,6.2 94.2,5.5 94.2,5.5 				"/>
			</g>
		</g>
	</g>
	<g>
		<g opacity="0.15">
			<polygon fill-rule="evenodd" clip-rule="evenodd" points="111.2,6.5 110.5,5.8 110.5,5.8 105.7,1 105,1.7 109.8,6.5 105,11.3 
				105.7,12 110.5,7.2 110.5,7.2 111.2,6.5 111.2,6.5 			"/>
		</g>
		<g>
			<g>
				<polygon fill-rule="evenodd" clip-rule="evenodd" fill="#737373" points="111.2,5.5 110.5,4.8 110.5,4.8 105.7,0 105,0.7 
					109.8,5.5 105,10.3 105.7,11 110.5,6.2 110.5,6.2 111.2,5.5 111.2,5.5 				"/>
			</g>
		</g>
	</g>
	<g>
		<g opacity="0.15">
			<polygon fill-rule="evenodd" clip-rule="evenodd" points="43.2,6.5 42.5,5.8 42.5,5.8 37.7,1 37,1.7 41.8,6.5 37,11.3 37.7,12 
				42.5,7.2 42.5,7.2 43.2,6.5 43.2,6.5 			"/>
		</g>
		<g>
			<g>
				<polygon fill-rule="evenodd" clip-rule="evenodd" fill="#39A6E6" points="43.2,5.5 42.5,4.8 42.5,4.8 37.7,0 37,0.7 41.8,5.5 
					37,10.3 37.7,11 42.5,6.2 42.5,6.2 43.2,5.5 43.2,5.5 				"/>
			</g>
		</g>
	</g>
	<g>
		<g opacity="0.15">
			<polygon fill-rule="evenodd" clip-rule="evenodd" points="9.2,6.5 8.5,5.8 8.5,5.8 3.7,1 3,1.7 7.8,6.5 3,11.3 3.7,12 8.5,7.2 
				8.5,7.2 9.2,6.5 9.2,6.5 			"/>
		</g>
		<g>
			<g>
				<polygon fill-rule="evenodd" clip-rule="evenodd" fill="#0089D9" points="9.2,5.5 8.5,4.8 8.5,4.8 3.7,0 3,0.7 7.8,5.5 3,10.3 
					3.7,11 8.5,6.2 8.5,6.2 9.2,5.5 9.2,5.5 				"/>
			</g>
		</g>
	</g>
	<g>
		<g>
			<polygon fill-rule="evenodd" clip-rule="evenodd" fill="#D7D7D7" points="26.2,5.5 25.5,4.8 25.5,4.8 20.7,0 20,0.7 24.8,5.5 
				20,10.3 20.7,11 25.5,6.2 25.5,6.2 26.2,5.5 26.2,5.5 			"/>
		</g>
	</g>
</g>
<g id="Guides" display="none">
	<rect display="inline" fill-rule="evenodd" clip-rule="evenodd" fill="#0089D9" fill-opacity="0.25" width="12" height="12"/>
	
		<rect x="17" display="inline" fill-rule="evenodd" clip-rule="evenodd" fill="#0089D9" fill-opacity="0.25" width="12" height="12"/>
	
		<rect x="34" display="inline" fill-rule="evenodd" clip-rule="evenodd" fill="#0089D9" fill-opacity="0.25" width="12" height="12"/>
	
		<rect x="51" display="inline" fill-rule="evenodd" clip-rule="evenodd" fill="#0089D9" fill-opacity="0.25" width="12" height="12"/>
	
		<rect x="68" display="inline" fill-rule="evenodd" clip-rule="evenodd" fill="#0089D9" fill-opacity="0.25" width="12" height="12"/>
	
		<rect x="85" display="inline" fill-rule="evenodd" clip-rule="evenodd" fill="#0089D9" fill-opacity="0.25" width="12" height="12"/>
	
		<rect x="102" display="inline" fill-rule="evenodd" clip-rule="evenodd" fill="#0089D9" fill-opacity="0.25" width="12" height="12"/>
</g>
</svg>
