<?xml version="1.0" encoding="utf-8"?>
<!-- Generator: Adobe Illustrator 19.1.1, SVG Export Plug-In . SVG Version: 6.00 Build 0)  -->
<svg version="1.1" xmlns="http://www.w3.org/2000/svg" xmlns:xlink="http://www.w3.org/1999/xlink" x="0px" y="0px" width="100px"
	 height="10px" viewBox="0 0 100 10" enable-background="new 0 0 100 10" xml:space="preserve">
<g id="Small">
</g>
<g id="Medium">
	<g>
		<g opacity="0.15">
			<polygon fill-rule="evenodd" clip-rule="evenodd" points="9,3.7 8.3,3 4.5,6.8 0.7,3 0,3.7 3.8,7.5 3.8,7.5 4.5,8.2 4.5,8.2 
				4.5,8.2 5.2,7.5 5.2,7.5 			"/>
		</g>
		<g>
			<g>
				<polygon fill-rule="evenodd" clip-rule="evenodd" fill="#0089D9" points="9,2.7 8.3,2 4.5,5.8 0.7,2 0,2.7 3.8,6.5 3.8,6.5 
					4.5,7.2 4.5,7.2 4.5,7.2 5.2,6.5 5.2,6.5 				"/>
			</g>
		</g>
	</g>
	<g>
		<g>
			<polygon fill-rule="evenodd" clip-rule="evenodd" fill="#D7D7D7" points="24,2.7 23.3,2 19.5,5.8 15.7,2 15,2.7 18.8,6.5 
				18.8,6.5 19.5,7.2 19.5,7.2 19.5,7.2 20.2,6.5 20.2,6.5 			"/>
		</g>
	</g>
	<g>
		<g opacity="0.15">
			<polygon fill-rule="evenodd" clip-rule="evenodd" points="39,3.7 38.3,3 34.5,6.8 30.7,3 30,3.7 33.8,7.5 33.8,7.5 34.5,8.2 
				34.5,8.2 34.5,8.2 35.2,7.5 35.2,7.5 			"/>
		</g>
		<g>
			<g>
				<polygon fill-rule="evenodd" clip-rule="evenodd" fill="#39A6E6" points="39,2.7 38.3,2 34.5,5.8 30.7,2 30,2.7 33.8,6.5 
					33.8,6.5 34.5,7.2 34.5,7.2 34.5,7.2 35.2,6.5 35.2,6.5 				"/>
			</g>
		</g>
	</g>
	<g>
		<g opacity="0.15">
			<polygon fill-rule="evenodd" clip-rule="evenodd" points="54,3.7 53.3,3 49.5,6.8 45.7,3 45,3.7 48.8,7.5 48.8,7.5 49.5,8.2 
				49.5,8.2 49.5,8.2 50.2,7.5 50.2,7.5 			"/>
		</g>
		<g>
			<g>
				<polygon fill-rule="evenodd" clip-rule="evenodd" fill="#282828" points="54,2.7 53.3,2 49.5,5.8 45.7,2 45,2.7 48.8,6.5 
					48.8,6.5 49.5,7.2 49.5,7.2 49.5,7.2 50.2,6.5 50.2,6.5 				"/>
			</g>
		</g>
	</g>
	<g>
		<g opacity="0.15">
			<polygon fill-rule="evenodd" clip-rule="evenodd" points="69,3.7 68.3,3 64.5,6.8 60.7,3 60,3.7 63.8,7.5 63.8,7.5 64.5,8.2 
				64.5,8.2 64.5,8.2 65.2,7.5 65.2,7.5 			"/>
		</g>
		<g>
			<g>
				<polygon fill-rule="evenodd" clip-rule="evenodd" fill="#FFFFFF" points="69,2.7 68.3,2 64.5,5.8 60.7,2 60,2.7 63.8,6.5 
					63.8,6.5 64.5,7.2 64.5,7.2 64.5,7.2 65.2,6.5 65.2,6.5 				"/>
			</g>
		</g>
	</g>
	<g>
		<g opacity="0.15">
			<polygon fill-rule="evenodd" clip-rule="evenodd" points="84,3.7 83.3,3 79.5,6.8 75.7,3 75,3.7 78.8,7.5 78.8,7.5 79.5,8.2 
				79.5,8.2 79.5,8.2 80.2,7.5 80.2,7.5 			"/>
		</g>
		<g>
			<g>
				<polygon fill-rule="evenodd" clip-rule="evenodd" fill="#68A611" points="84,2.7 83.3,2 79.5,5.8 75.7,2 75,2.7 78.8,6.5 
					78.8,6.5 79.5,7.2 79.5,7.2 79.5,7.2 80.2,6.5 80.2,6.5 				"/>
			</g>
		</g>
	</g>
	<g>
		<g opacity="0.15">
			<polygon fill-rule="evenodd" clip-rule="evenodd" points="99,3.7 98.3,3 94.5,6.8 90.7,3 90,3.7 93.8,7.5 93.8,7.5 94.5,8.2 
				94.5,8.2 94.5,8.2 95.2,7.5 95.2,7.5 			"/>
		</g>
		<g>
			<g>
				<polygon fill-rule="evenodd" clip-rule="evenodd" fill="#737373" points="99,2.7 98.3,2 94.5,5.8 90.7,2 90,2.7 93.8,6.5 
					93.8,6.5 94.5,7.2 94.5,7.2 94.5,7.2 95.2,6.5 95.2,6.5 				"/>
			</g>
		</g>
	</g>
</g>
<g id="Large">
</g>
<g id="Guides" display="none">
	
		<rect x="0" display="inline" fill-rule="evenodd" clip-rule="evenodd" fill="#0089D9" fill-opacity="0.25" width="10" height="10"/>
	
		<rect x="15" display="inline" fill-rule="evenodd" clip-rule="evenodd" fill="#0089D9" fill-opacity="0.25" width="10" height="10"/>
	
		<rect x="30" display="inline" fill-rule="evenodd" clip-rule="evenodd" fill="#0089D9" fill-opacity="0.25" width="10" height="10"/>
	
		<rect x="45" display="inline" fill-rule="evenodd" clip-rule="evenodd" fill="#0089D9" fill-opacity="0.25" width="10" height="10"/>
	
		<rect x="60" display="inline" fill-rule="evenodd" clip-rule="evenodd" fill="#0089D9" fill-opacity="0.25" width="10" height="10"/>
	
		<rect x="75" display="inline" fill-rule="evenodd" clip-rule="evenodd" fill="#0089D9" fill-opacity="0.25" width="10" height="10"/>
	
		<rect x="90" display="inline" fill-rule="evenodd" clip-rule="evenodd" fill="#0089D9" fill-opacity="0.25" width="10" height="10"/>
</g>
</svg>
