<?xml version="1.0" encoding="utf-8"?>
<!-- Generator: Adobe Illustrator 19.1.1, SVG Export Plug-In . SVG Version: 6.00 Build 0)  -->
<svg version="1.1" xmlns="http://www.w3.org/2000/svg" xmlns:xlink="http://www.w3.org/1999/xlink" x="0px" y="0px" width="100px"
	 height="10px" viewBox="0 0 100 10" enable-background="new 0 0 100 10" xml:space="preserve">
<g id="Small">
</g>
<g id="Medium">
	<g>
		<g opacity="0.15">
			<polygon fill-rule="evenodd" clip-rule="evenodd" points="7.2,5.5 6.5,4.8 6.5,4.8 2.7,1 2,1.7 5.8,5.5 2,9.3 2.7,10 6.5,6.2 
				6.5,6.2 7.2,5.5 7.2,5.5 			"/>
		</g>
		<g>
			<g>
				<polygon fill-rule="evenodd" clip-rule="evenodd" fill="#0089D9" points="7.2,4.5 6.5,3.8 6.5,3.8 2.7,0 2,0.7 5.8,4.5 2,8.3 
					2.7,9 6.5,5.2 6.5,5.2 7.2,4.5 7.2,4.5 				"/>
			</g>
		</g>
	</g>
	<g>
		<g>
			<polygon fill-rule="evenodd" clip-rule="evenodd" fill="#D7D7D7" points="22.2,4.5 21.5,3.8 21.5,3.8 17.7,0 17,0.7 20.8,4.5 
				17,8.3 17.7,9 21.5,5.2 21.5,5.2 22.2,4.5 22.2,4.5 			"/>
		</g>
	</g>
	<g>
		<g opacity="0.15">
			<polygon fill-rule="evenodd" clip-rule="evenodd" points="37.2,5.5 36.5,4.8 36.5,4.8 32.7,1 32,1.7 35.8,5.5 32,9.3 32.7,10 
				36.5,6.2 36.5,6.2 37.2,5.5 37.2,5.5 			"/>
		</g>
		<g>
			<g>
				<polygon fill-rule="evenodd" clip-rule="evenodd" fill="#39A6E6" points="37.2,4.5 36.5,3.8 36.5,3.8 32.7,0 32,0.7 35.8,4.5 
					32,8.3 32.7,9 36.5,5.2 36.5,5.2 37.2,4.5 37.2,4.5 				"/>
			</g>
		</g>
	</g>
	<g>
		<g opacity="0.15">
			<polygon fill-rule="evenodd" clip-rule="evenodd" points="52.2,5.5 51.5,4.8 51.5,4.8 47.7,1 47,1.7 50.8,5.5 47,9.3 47.7,10 
				51.5,6.2 51.5,6.2 52.2,5.5 52.2,5.5 			"/>
		</g>
		<g>
			<g>
				<polygon fill-rule="evenodd" clip-rule="evenodd" fill="#282828" points="52.2,4.5 51.5,3.8 51.5,3.8 47.7,0 47,0.7 50.8,4.5 
					47,8.3 47.7,9 51.5,5.2 51.5,5.2 52.2,4.5 52.2,4.5 				"/>
			</g>
		</g>
	</g>
	<g>
		<g opacity="0.15">
			<polygon fill-rule="evenodd" clip-rule="evenodd" points="67.2,5.5 66.5,4.8 66.5,4.8 62.7,1 62,1.7 65.8,5.5 62,9.3 62.7,10 
				66.5,6.2 66.5,6.2 67.2,5.5 67.2,5.5 			"/>
		</g>
		<g>
			<g>
				<polygon fill-rule="evenodd" clip-rule="evenodd" fill="#FFFFFF" points="67.2,4.5 66.5,3.8 66.5,3.8 62.7,0 62,0.7 65.8,4.5 
					62,8.3 62.7,9 66.5,5.2 66.5,5.2 67.2,4.5 67.2,4.5 				"/>
			</g>
		</g>
	</g>
	<g>
		<g opacity="0.15">
			<polygon fill-rule="evenodd" clip-rule="evenodd" points="82.2,5.5 81.5,4.8 81.5,4.8 77.7,1 77,1.7 80.8,5.5 77,9.3 77.7,10 
				81.5,6.2 81.5,6.2 82.2,5.5 82.2,5.5 			"/>
		</g>
		<g>
			<g>
				<polygon fill-rule="evenodd" clip-rule="evenodd" fill="#68A611" points="82.2,4.5 81.5,3.8 81.5,3.8 77.7,0 77,0.7 80.8,4.5 
					77,8.3 77.7,9 81.5,5.2 81.5,5.2 82.2,4.5 82.2,4.5 				"/>
			</g>
		</g>
	</g>
	<g>
		<g opacity="0.15">
			<polygon fill-rule="evenodd" clip-rule="evenodd" points="97.2,5.5 96.5,4.8 96.5,4.8 92.7,1 92,1.7 95.8,5.5 92,9.3 92.7,10 
				96.5,6.2 96.5,6.2 97.2,5.5 97.2,5.5 			"/>
		</g>
		<g>
			<g>
				<polygon fill-rule="evenodd" clip-rule="evenodd" fill="#737373" points="97.2,4.5 96.5,3.8 96.5,3.8 92.7,0 92,0.7 95.8,4.5 
					92,8.3 92.7,9 96.5,5.2 96.5,5.2 97.2,4.5 97.2,4.5 				"/>
			</g>
		</g>
	</g>
</g>
<g id="Large">
</g>
<g id="Guides" display="none">
	
		<rect x="0" display="inline" fill-rule="evenodd" clip-rule="evenodd" fill="#0089D9" fill-opacity="0.25" width="10" height="10"/>
	
		<rect x="15" display="inline" fill-rule="evenodd" clip-rule="evenodd" fill="#0089D9" fill-opacity="0.25" width="10" height="10"/>
	
		<rect x="30" display="inline" fill-rule="evenodd" clip-rule="evenodd" fill="#0089D9" fill-opacity="0.25" width="10" height="10"/>
	
		<rect x="45" display="inline" fill-rule="evenodd" clip-rule="evenodd" fill="#0089D9" fill-opacity="0.25" width="10" height="10"/>
	
		<rect x="60" display="inline" fill-rule="evenodd" clip-rule="evenodd" fill="#0089D9" fill-opacity="0.25" width="10" height="10"/>
	
		<rect x="75" display="inline" fill-rule="evenodd" clip-rule="evenodd" fill="#0089D9" fill-opacity="0.25" width="10" height="10"/>
	
		<rect x="90" display="inline" fill-rule="evenodd" clip-rule="evenodd" fill="#0089D9" fill-opacity="0.25" width="10" height="10"/>
</g>
</svg>
