<?xml version="1.0" encoding="utf-8"?>
<!-- Generator: Adobe Illustrator 19.1.1, SVG Export Plug-In . SVG Version: 6.00 Build 0)  -->
<svg version="1.1" xmlns="http://www.w3.org/2000/svg" xmlns:xlink="http://www.w3.org/1999/xlink" x="0px" y="0px" width="86px"
	 height="8px" viewBox="0 0 86 8" enable-background="new 0 0 86 8" xml:space="preserve">
<g id="Small">
	<g>
		<g opacity="0.15">
			<polygon fill-rule="evenodd" clip-rule="evenodd" points="6.2,4.5 5.5,3.8 5.5,3.8 2.7,1 2,1.7 4.8,4.5 2,7.3 2.7,8 5.5,5.2 
				5.5,5.2 6.2,4.5 6.2,4.5 			"/>
		</g>
		<g>
			<g>
				<polygon fill-rule="evenodd" clip-rule="evenodd" fill="#0089D9" points="6.2,3.5 5.5,2.8 5.5,2.8 2.7,0 2,0.7 4.8,3.5 2,6.3 
					2.7,7 5.5,4.2 5.5,4.2 6.2,3.5 6.2,3.5 				"/>
			</g>
		</g>
	</g>
	<g>
		<g>
			<polygon fill-rule="evenodd" clip-rule="evenodd" fill="#D7D7D7" points="19.2,3.5 18.5,2.8 18.5,2.8 15.7,0 15,0.7 17.8,3.5 
				15,6.3 15.7,7 18.5,4.2 18.5,4.2 19.2,3.5 19.2,3.5 			"/>
		</g>
	</g>
	<g>
		<g opacity="0.15">
			<polygon fill-rule="evenodd" clip-rule="evenodd" points="32.2,4.5 31.5,3.8 31.5,3.8 28.7,1 28,1.7 30.8,4.5 28,7.3 28.7,8 
				31.5,5.2 31.5,5.2 32.2,4.5 32.2,4.5 			"/>
		</g>
		<g>
			<g>
				<polygon fill-rule="evenodd" clip-rule="evenodd" fill="#39A6E6" points="32.2,3.5 31.5,2.8 31.5,2.8 28.7,0 28,0.7 30.8,3.5 
					28,6.3 28.7,7 31.5,4.2 31.5,4.2 32.2,3.5 32.2,3.5 				"/>
			</g>
		</g>
	</g>
	<g>
		<g opacity="0.15">
			<polygon fill-rule="evenodd" clip-rule="evenodd" points="45.2,4.5 44.5,3.8 44.5,3.8 41.7,1 41,1.7 43.8,4.5 41,7.3 41.7,8 
				44.5,5.2 44.5,5.2 45.2,4.5 45.2,4.5 			"/>
		</g>
		<g>
			<g>
				<polygon fill-rule="evenodd" clip-rule="evenodd" fill="#282828" points="45.2,3.5 44.5,2.8 44.5,2.8 41.7,0 41,0.7 43.8,3.5 
					41,6.3 41.7,7 44.5,4.2 44.5,4.2 45.2,3.5 45.2,3.5 				"/>
			</g>
		</g>
	</g>
	<g>
		<g opacity="0.15">
			<polygon fill-rule="evenodd" clip-rule="evenodd" points="58.2,4.5 57.5,3.8 57.5,3.8 54.7,1 54,1.7 56.8,4.5 54,7.3 54.7,8 
				57.5,5.2 57.5,5.2 58.2,4.5 58.2,4.5 			"/>
		</g>
		<g>
			<g>
				<polygon fill-rule="evenodd" clip-rule="evenodd" fill="#FFFFFF" points="58.2,3.5 57.5,2.8 57.5,2.8 54.7,0 54,0.7 56.8,3.5 
					54,6.3 54.7,7 57.5,4.2 57.5,4.2 58.2,3.5 58.2,3.5 				"/>
			</g>
		</g>
	</g>
	<g>
		<g opacity="0.15">
			<polygon fill-rule="evenodd" clip-rule="evenodd" points="71.2,4.5 70.5,3.8 70.5,3.8 67.7,1 67,1.7 69.8,4.5 67,7.3 67.7,8 
				70.5,5.2 70.5,5.2 71.2,4.5 71.2,4.5 			"/>
		</g>
		<g>
			<g>
				<polygon fill-rule="evenodd" clip-rule="evenodd" fill="#68A611" points="71.2,3.5 70.5,2.8 70.5,2.8 67.7,0 67,0.7 69.8,3.5 
					67,6.3 67.7,7 70.5,4.2 70.5,4.2 71.2,3.5 71.2,3.5 				"/>
			</g>
		</g>
	</g>
	<g>
		<g opacity="0.15">
			<polygon fill-rule="evenodd" clip-rule="evenodd" points="84.2,4.5 83.5,3.8 83.5,3.8 80.7,1 80,1.7 82.8,4.5 80,7.3 80.7,8 
				83.5,5.2 83.5,5.2 84.2,4.5 84.2,4.5 			"/>
		</g>
		<g>
			<g>
				<polygon fill-rule="evenodd" clip-rule="evenodd" fill="#737373" points="84.2,3.5 83.5,2.8 83.5,2.8 80.7,0 80,0.7 82.8,3.5 
					80,6.3 80.7,7 83.5,4.2 83.5,4.2 84.2,3.5 84.2,3.5 				"/>
			</g>
		</g>
	</g>
</g>
<g id="Medium">
</g>
<g id="Large">
</g>
<g id="Guides" display="none">
	<rect x="0" display="inline" fill-rule="evenodd" clip-rule="evenodd" fill="#0089D9" fill-opacity="0.25" width="8" height="8"/>
	<rect x="13" display="inline" fill-rule="evenodd" clip-rule="evenodd" fill="#0089D9" fill-opacity="0.25" width="8" height="8"/>
	<rect x="26" display="inline" fill-rule="evenodd" clip-rule="evenodd" fill="#0089D9" fill-opacity="0.25" width="8" height="8"/>
	<rect x="39" display="inline" fill-rule="evenodd" clip-rule="evenodd" fill="#0089D9" fill-opacity="0.25" width="8" height="8"/>
	<rect x="52" display="inline" fill-rule="evenodd" clip-rule="evenodd" fill="#0089D9" fill-opacity="0.25" width="8" height="8"/>
	<rect x="65" display="inline" fill-rule="evenodd" clip-rule="evenodd" fill="#0089D9" fill-opacity="0.25" width="8" height="8"/>
	<rect x="78" display="inline" fill-rule="evenodd" clip-rule="evenodd" fill="#0089D9" fill-opacity="0.25" width="8" height="8"/>
</g>
</svg>
