<svg id="Page_Not_Found" data-name="Page Not Found" xmlns="http://www.w3.org/2000/svg" width="218" height="218" viewBox="0 0 218 218"><defs><style>.cls-1{fill:#e7f3fb;}.cls-1,.cls-2,.cls-4,.cls-5{fill-rule:evenodd;}.cls-2{fill:#7d9ab3;}.cls-3,.cls-4{fill:#d7565a;}.cls-5{fill:#7db342;}</style></defs><title>Error-Illustrations</title><path id="Body" class="cls-1" d="M39,37H179v74h4v20h-4v50H39V119H35V99h4V37Z"/><path class="cls-2" d="M179,176a3.24,3.24,0,0,1-3,3H110V134h46v22H133v2h25V132s3-5.48,3-11-3-11-3-11c-0.48-1-1-2-2-2H86V62h48V60H60v2H84v94h2V110h70s3,5.52,3,11-3,11-3,11H108v47H62V156H60v23H42a3.17,3.17,0,0,1-3-3V134H62V84H60v48H39V119H35v58a6.45,6.45,0,0,0,6,6H177c3,0,6-4,6-6V131h-4v45ZM177,35H41a6.45,6.45,0,0,0-6,6V99h4V42a3.23,3.23,0,0,1,3-3H156V84H108v2h50V39h18a3.27,3.27,0,0,1,3,3v69h4V41A6.45,6.45,0,0,0,177,35Z"/><g id="Dotted_Line" data-name="Dotted Line"><rect class="cls-3" x="10" y="108" width="1" height="2"/><path class="cls-3" d="M85.87,168l-0.11-2a12.48,12.48,0,0,0,1.82-.24l0.41,2A14.24,14.24,0,0,1,85.87,168Zm-2.12,0a14.25,14.25,0,0,1-2.11-.33l0.46-1.95a12.2,12.2,0,0,0,1.81.28ZM90,167.1l-0.71-1.87a10.64,10.64,0,0,0,1.63-.79l1,1.72A12.48,12.48,0,0,1,90,167.1ZM79.6,167a12.45,12.45,0,0,1-1.91-1l1.08-1.68a10.52,10.52,0,0,0,1.6.84Zm14.14-2.06-1.31-1.51a9.93,9.93,0,0,0,1.25-1.3l1.56,1.25A11.89,11.89,0,0,1,93.73,164.89ZM76,164.63A12,12,0,0,1,74.53,163l1.6-1.2a10.1,10.1,0,0,0,1.2,1.34Zm20.44-3.1-1.76-1a10.73,10.73,0,0,0,.72-1.66l1.89,0.64A12.8,12.8,0,0,1,96.42,161.53Zm-23-.35a12.83,12.83,0,0,1-.8-2l1.91-.58a10.81,10.81,0,0,0,.67,1.69Zm24.39-3.71-2-.33a13,13,0,0,0,.17-1.83l2,0A14.74,14.74,0,0,1,97.8,157.47Zm-25.65-.38A15.08,15.08,0,0,1,72,155l2,0v0a13,13,0,0,0,.13,1.81ZM98,153.34H96v-2h2v2ZM74,153H72v-2h2v2Zm24-3.6H96v-2h2v2ZM74,149H72v-2h2v2Zm24-3.59H96v-2h2v2ZM74,145H72v-2h2v2Zm24-3.58H96v-2h2v2ZM74,141H72v-2h2v2Zm24-3.57H96v-2h2v2ZM74,137H72v-2h2v2Zm24-3.56H96V133a15.17,15.17,0,0,1,.09-1.61l2,0.21A13.25,13.25,0,0,0,98,133v0.47Zm-24-.42H72v-2h2v2Zm24.41-3.26-1.93-.51a13.05,13.05,0,0,1,.72-2L99,128.08A11.09,11.09,0,0,0,98.41,129.8ZM74,129.07H72v-2h2v2Zm25.9-2.57-1.65-1.13a12.14,12.14,0,0,1,1.38-1.67l1.42,1.41A10.1,10.1,0,0,0,99.9,126.51ZM74,125.1H72v-2h2v2ZM102.42,124l-1.14-1.64a12.44,12.44,0,0,1,1.87-1.08l0.84,1.81A10.38,10.38,0,0,0,102.42,124Zm3.27-1.53-0.53-1.93a14,14,0,0,1,2.1-.41l0.23,2A12.14,12.14,0,0,0,105.7,122.43Zm45.47-.43h-2v-2h2v2Zm-4,0h-2v-2h2v2Zm-4,0h-2v-2h2v2Zm-4,0h-2v-2h2v2Zm-4,0h-2v-2h2v2Zm-4,0h-2v-2h2v2Zm-4,0h-2v-2h2v2Zm-4,0h-2v-2h2v2Zm-4,0h-2v-2h2v2Zm-4,0h-2v-2h2v2Zm-4,0h-2v-2h2v2ZM74,121.12H72v-2h2v2Zm0-4H72v-2h2v2Zm0-4H72v-2h2v2ZM37,110H36.85v-2H37a13.06,13.06,0,0,0,1.7-.11l0.26,2A15.15,15.15,0,0,1,37,110Zm-2.14,0h-2v-2h2v2Zm-4,0h-2v-2h2v2Zm-4,0h-2v-2h2v2Zm-4,0h-2v-2h2v2Zm-4,0H17v-2h2v2Zm-4,0H13v-2h2v2ZM41,109.43l-0.56-1.92a11,11,0,0,0,1.7-.65l0.87,1.8A12.93,12.93,0,0,1,41,109.43Zm33-.26H72v-2h2v2Zm-29.09-1.63-1.18-1.62a10,10,0,0,0,1.36-1.19l1.45,1.38A12,12,0,0,1,44.91,107.55ZM74,105.2H72v-2h2v2Zm-26.12-.77-1.67-1.1a10.37,10.37,0,0,0,.86-1.59l1.84,0.79A12.42,12.42,0,0,1,47.88,104.43ZM74,101.22H72v-2h2v2Zm-24.42-.72L47.64,100a12.19,12.19,0,0,0,.3-1.81l2,0.18A14.19,14.19,0,0,1,49.58,100.49ZM74,97.23H72v-2h2v2Zm-24-.92H48v-2h2v2Zm24-3.06H72v-2h2v2Zm-24-.9H48v-2h2v2Zm24-3.09H72v-2h2v2Zm-24-.87H48v-2h2v2Zm24-3.13H72V85a13.05,13.05,0,0,0-.1-1.59l2-.24A15.09,15.09,0,0,1,74,85v0.27Zm-24-.8-2-.08a14.66,14.66,0,0,1,.24-2.12l2,0.37A12.66,12.66,0,0,0,50,84.47Zm21.53-2.85a10.94,10.94,0,0,0-.64-1.7l1.81-.86a12.9,12.9,0,0,1,.76,2Zm-20.85-.73-1.88-.68a12.6,12.6,0,0,1,.9-2l1.74,1A10.61,10.61,0,0,0,50.69,80.88ZM70,78.35A10,10,0,0,0,68.82,77l1.39-1.43a12,12,0,0,1,1.41,1.64Zm-17.52-.6-1.54-1.28a11.92,11.92,0,0,1,1.53-1.53l1.28,1.54A9.94,9.94,0,0,0,52.47,77.75Zm14.95-1.9A10.5,10.5,0,0,0,65.83,75l0.81-1.83a12.48,12.48,0,0,1,1.89,1Zm-12.19-.4-1-1.74a12.69,12.69,0,0,1,2-.9l0.68,1.88A10.65,10.65,0,0,0,55.23,75.45Zm8.88-1.06a12,12,0,0,0-1.8-.32l0.2-2a14,14,0,0,1,2.1.37Zm-5.47-.17-0.37-2A14.64,14.64,0,0,1,60.39,72l0.08,2A12.63,12.63,0,0,0,58.64,74.21Z"/><rect class="cls-3" x="153" y="120" width="1" height="2"/></g><path id="Dot" class="cls-4" d="M153,117a4,4,0,1,1-4,4A4,4,0,0,1,153,117Z"/><polygon id="X" class="cls-5" points="207.43 126.3 202.12 121 207.43 115.7 205.3 113.58 200 118.88 194.7 113.58 192.57 115.7 197.88 121 192.57 126.3 194.7 128.43 200 123.12 205.3 128.43 207.43 126.3"/></svg>