<?xml version="1.0" encoding="utf-8"?>
<!-- Generator: Adobe Illustrator 19.1.1, SVG Export Plug-In . SVG Version: 6.00 Build 0)  -->
<svg version="1.1" xmlns="http://www.w3.org/2000/svg" xmlns:xlink="http://www.w3.org/1999/xlink" x="0px" y="0px" width="114px"
	 height="12px" viewBox="0 0 114 12" enable-background="new 0 0 114 12" xml:space="preserve">
<g id="Small">
</g>
<g id="Medium">
</g>
<g id="Large">
	<g>
		<g opacity="0.15">
			<polygon fill-rule="evenodd" clip-rule="evenodd" points="62,4.7 61.3,4 56.5,8.8 51.7,4 51,4.7 55.8,9.5 55.8,9.5 56.5,10.2 
				56.5,10.2 56.5,10.2 57.2,9.5 57.2,9.5 			"/>
		</g>
		<g>
			<g>
				<polygon fill-rule="evenodd" clip-rule="evenodd" fill="#282828" points="62,3.7 61.3,3 56.5,7.8 51.7,3 51,3.7 55.8,8.5 
					55.8,8.5 56.5,9.2 56.5,9.2 56.5,9.2 57.2,8.5 57.2,8.5 				"/>
			</g>
		</g>
	</g>
	<g>
		<g opacity="0.15">
			<polygon fill-rule="evenodd" clip-rule="evenodd" points="79,4.7 78.3,4 73.5,8.8 68.7,4 68,4.7 72.8,9.5 72.8,9.5 73.5,10.2 
				73.5,10.2 73.5,10.2 74.2,9.5 74.2,9.5 			"/>
		</g>
		<g>
			<g>
				<polygon fill-rule="evenodd" clip-rule="evenodd" fill="#FFFFFF" points="79,3.7 78.3,3 73.5,7.8 68.7,3 68,3.7 72.8,8.5 
					72.8,8.5 73.5,9.2 73.5,9.2 73.5,9.2 74.2,8.5 74.2,8.5 				"/>
			</g>
		</g>
	</g>
	<g>
		<g opacity="0.15">
			<polygon fill-rule="evenodd" clip-rule="evenodd" points="96,4.7 95.3,4 90.5,8.8 85.7,4 85,4.7 89.8,9.5 89.8,9.5 90.5,10.2 
				90.5,10.2 90.5,10.2 91.2,9.5 91.2,9.5 			"/>
		</g>
		<g>
			<g>
				<polygon fill-rule="evenodd" clip-rule="evenodd" fill="#68A611" points="96,3.7 95.3,3 90.5,7.8 85.7,3 85,3.7 89.8,8.5 
					89.8,8.5 90.5,9.2 90.5,9.2 90.5,9.2 91.2,8.5 91.2,8.5 				"/>
			</g>
		</g>
	</g>
	<g>
		<g opacity="0.15">
			<polygon fill-rule="evenodd" clip-rule="evenodd" points="113,4.7 112.3,4 107.5,8.8 102.7,4 102,4.7 106.8,9.5 106.8,9.5 
				107.5,10.2 107.5,10.2 107.5,10.2 108.2,9.5 108.2,9.5 			"/>
		</g>
		<g>
			<g>
				<polygon fill-rule="evenodd" clip-rule="evenodd" fill="#737373" points="113,3.7 112.3,3 107.5,7.8 102.7,3 102,3.7 106.8,8.5 
					106.8,8.5 107.5,9.2 107.5,9.2 107.5,9.2 108.2,8.5 108.2,8.5 				"/>
			</g>
		</g>
	</g>
	<g>
		<g opacity="0.15">
			<polygon fill-rule="evenodd" clip-rule="evenodd" points="45,4.7 44.3,4 39.5,8.8 34.7,4 34,4.7 38.8,9.5 38.8,9.5 39.5,10.2 
				39.5,10.2 39.5,10.2 40.2,9.5 40.2,9.5 			"/>
		</g>
		<g>
			<g>
				<polygon fill-rule="evenodd" clip-rule="evenodd" fill="#39A6E6" points="45,3.7 44.3,3 39.5,7.8 34.7,3 34,3.7 38.8,8.5 
					38.8,8.5 39.5,9.2 39.5,9.2 39.5,9.2 40.2,8.5 40.2,8.5 				"/>
			</g>
		</g>
	</g>
	<g>
		<g>
			<polygon fill-rule="evenodd" clip-rule="evenodd" fill="#D7D7D7" points="28,3.7 27.3,3 22.5,7.8 17.7,3 17,3.7 21.8,8.5 
				21.8,8.5 22.5,9.2 22.5,9.2 22.5,9.2 23.2,8.5 23.2,8.5 			"/>
		</g>
	</g>
	<g>
		<g opacity="0.15">
			<polygon fill-rule="evenodd" clip-rule="evenodd" points="11,4.7 10.3,4 5.5,8.8 0.7,4 0,4.7 4.8,9.5 4.8,9.5 5.5,10.2 5.5,10.2 
				5.5,10.2 6.2,9.5 6.2,9.5 			"/>
		</g>
		<g>
			<g>
				<polygon fill-rule="evenodd" clip-rule="evenodd" fill="#0089D9" points="11,3.7 10.3,3 5.5,7.8 0.7,3 0,3.7 4.8,8.5 4.8,8.5 
					5.5,9.2 5.5,9.2 5.5,9.2 6.2,8.5 6.2,8.5 				"/>
			</g>
		</g>
	</g>
</g>
<g id="Guides" display="none">
	<rect display="inline" fill-rule="evenodd" clip-rule="evenodd" fill="#0089D9" fill-opacity="0.25" width="12" height="12"/>
	
		<rect x="17" display="inline" fill-rule="evenodd" clip-rule="evenodd" fill="#0089D9" fill-opacity="0.25" width="12" height="12"/>
	
		<rect x="34" display="inline" fill-rule="evenodd" clip-rule="evenodd" fill="#0089D9" fill-opacity="0.25" width="12" height="12"/>
	
		<rect x="51" display="inline" fill-rule="evenodd" clip-rule="evenodd" fill="#0089D9" fill-opacity="0.25" width="12" height="12"/>
	
		<rect x="68" display="inline" fill-rule="evenodd" clip-rule="evenodd" fill="#0089D9" fill-opacity="0.25" width="12" height="12"/>
	
		<rect x="85" display="inline" fill-rule="evenodd" clip-rule="evenodd" fill="#0089D9" fill-opacity="0.25" width="12" height="12"/>
	
		<rect x="102" display="inline" fill-rule="evenodd" clip-rule="evenodd" fill="#0089D9" fill-opacity="0.25" width="12" height="12"/>
</g>
</svg>
