<?xml version="1.0" encoding="utf-8"?>
<!-- Generator: Adobe Illustrator 19.1.1, SVG Export Plug-In . SVG Version: 6.00 Build 0)  -->
<svg version="1.1" xmlns="http://www.w3.org/2000/svg" xmlns:xlink="http://www.w3.org/1999/xlink" x="0px" y="0px" width="86px"
	 height="8px" viewBox="0 0 86 8" enable-background="new 0 0 86 8" xml:space="preserve">
<g id="Small">
	<g>
		<g opacity="0.15">
			<polygon fill-rule="evenodd" clip-rule="evenodd" points="7,3.7 6.3,3 3.5,5.8 0.7,3 0,3.7 2.8,6.5 2.8,6.5 3.5,7.2 3.5,7.2 
				3.5,7.2 4.2,6.5 4.2,6.5 			"/>
		</g>
		<g>
			<g>
				<polygon fill-rule="evenodd" clip-rule="evenodd" fill="#0089D9" points="7,2.7 6.3,2 3.5,4.8 0.7,2 0,2.7 2.8,5.5 2.8,5.5 
					3.5,6.2 3.5,6.2 3.5,6.2 4.2,5.5 4.2,5.5 				"/>
			</g>
		</g>
	</g>
	<g>
		<g>
			<polygon fill-rule="evenodd" clip-rule="evenodd" fill="#D7D7D7" points="20,2.7 19.3,2 16.5,4.8 13.7,2 13,2.7 15.8,5.5 
				15.8,5.5 16.5,6.2 16.5,6.2 16.5,6.2 17.2,5.5 17.2,5.5 			"/>
		</g>
	</g>
	<g>
		<g opacity="0.15">
			<polygon fill-rule="evenodd" clip-rule="evenodd" points="33,3.7 32.3,3 29.5,5.8 26.7,3 26,3.7 28.8,6.5 28.8,6.5 29.5,7.2 
				29.5,7.2 29.5,7.2 30.2,6.5 30.2,6.5 			"/>
		</g>
		<g>
			<g>
				<polygon fill-rule="evenodd" clip-rule="evenodd" fill="#39A6E6" points="33,2.7 32.3,2 29.5,4.8 26.7,2 26,2.7 28.8,5.5 
					28.8,5.5 29.5,6.2 29.5,6.2 29.5,6.2 30.2,5.5 30.2,5.5 				"/>
			</g>
		</g>
	</g>
	<g>
		<g opacity="0.15">
			<polygon fill-rule="evenodd" clip-rule="evenodd" points="46,3.7 45.3,3 42.5,5.8 39.7,3 39,3.7 41.8,6.5 41.8,6.5 42.5,7.2 
				42.5,7.2 42.5,7.2 43.2,6.5 43.2,6.5 			"/>
		</g>
		<g>
			<g>
				<polygon fill-rule="evenodd" clip-rule="evenodd" fill="#282828" points="46,2.7 45.3,2 42.5,4.8 39.7,2 39,2.7 41.8,5.5 
					41.8,5.5 42.5,6.2 42.5,6.2 42.5,6.2 43.2,5.5 43.2,5.5 				"/>
			</g>
		</g>
	</g>
	<g>
		<g opacity="0.15">
			<polygon fill-rule="evenodd" clip-rule="evenodd" points="59,3.7 58.3,3 55.5,5.8 52.7,3 52,3.7 54.8,6.5 54.8,6.5 55.5,7.2 
				55.5,7.2 55.5,7.2 56.2,6.5 56.2,6.5 			"/>
		</g>
		<g>
			<g>
				<polygon fill-rule="evenodd" clip-rule="evenodd" fill="#FFFFFF" points="59,2.7 58.3,2 55.5,4.8 52.7,2 52,2.7 54.8,5.5 
					54.8,5.5 55.5,6.2 55.5,6.2 55.5,6.2 56.2,5.5 56.2,5.5 				"/>
			</g>
		</g>
	</g>
	<g>
		<g opacity="0.15">
			<polygon fill-rule="evenodd" clip-rule="evenodd" points="72,3.7 71.3,3 68.5,5.8 65.7,3 65,3.7 67.8,6.5 67.8,6.5 68.5,7.2 
				68.5,7.2 68.5,7.2 69.2,6.5 69.2,6.5 			"/>
		</g>
		<g>
			<g>
				<polygon fill-rule="evenodd" clip-rule="evenodd" fill="#68A611" points="72,2.7 71.3,2 68.5,4.8 65.7,2 65,2.7 67.8,5.5 
					67.8,5.5 68.5,6.2 68.5,6.2 68.5,6.2 69.2,5.5 69.2,5.5 				"/>
			</g>
		</g>
	</g>
	<g>
		<g opacity="0.15">
			<polygon fill-rule="evenodd" clip-rule="evenodd" points="85,3.7 84.3,3 81.5,5.8 78.7,3 78,3.7 80.8,6.5 80.8,6.5 81.5,7.2 
				81.5,7.2 81.5,7.2 82.2,6.5 82.2,6.5 			"/>
		</g>
		<g>
			<g>
				<polygon fill-rule="evenodd" clip-rule="evenodd" fill="#737373" points="85,2.7 84.3,2 81.5,4.8 78.7,2 78,2.7 80.8,5.5 
					80.8,5.5 81.5,6.2 81.5,6.2 81.5,6.2 82.2,5.5 82.2,5.5 				"/>
			</g>
		</g>
	</g>
</g>
<g id="Medium">
</g>
<g id="Large">
</g>
<g id="Guides" display="none">
	<rect x="0" display="inline" fill-rule="evenodd" clip-rule="evenodd" fill="#0089D9" fill-opacity="0.25" width="8" height="8"/>
	<rect x="13" display="inline" fill-rule="evenodd" clip-rule="evenodd" fill="#0089D9" fill-opacity="0.25" width="8" height="8"/>
	<rect x="26" display="inline" fill-rule="evenodd" clip-rule="evenodd" fill="#0089D9" fill-opacity="0.25" width="8" height="8"/>
	<rect x="39" display="inline" fill-rule="evenodd" clip-rule="evenodd" fill="#0089D9" fill-opacity="0.25" width="8" height="8"/>
	<rect x="52" display="inline" fill-rule="evenodd" clip-rule="evenodd" fill="#0089D9" fill-opacity="0.25" width="8" height="8"/>
	<rect x="65" display="inline" fill-rule="evenodd" clip-rule="evenodd" fill="#0089D9" fill-opacity="0.25" width="8" height="8"/>
	<rect x="78" display="inline" fill-rule="evenodd" clip-rule="evenodd" fill="#0089D9" fill-opacity="0.25" width="8" height="8"/>
</g>
</svg>
