<?xml version="1.0" encoding="UTF-8"?>
<svg width="22px" height="33px" viewBox="0 0 22 33" version="1.1" xmlns="http://www.w3.org/2000/svg" xmlns:xlink="http://www.w3.org/1999/xlink">
    <!-- Generator: Sketch 52.2 (67145) - http://www.bohemiancoding.com/sketch -->
    <title>tab-focus-side-bk</title>
    <desc>Created with Sketch.</desc>
    <g id="tab-focus-side-bk" stroke="none" stroke-width="1" fill="none" fill-rule="evenodd">
        <path d="M19.8000031,2 C20.0250578,2 21.4250567,2 24,2 L24,33 C10.323651,33 3.32365098,33 3,33 C6.1000061,33 7.69999695,31.6999969 8.3500061,29 C9.00001526,26.3000031 14.007748,7.845938 14.5,6 C15.3000031,3 17.1499939,2 19.8000031,2 Z" id="Tab" fill="#FFFFFF"></path>
        <path d="M22,31 L22,4 L19.8000031,4 C17.8116714,4 16.9408305,4.60898019 16.4324694,6.51532714 C16.3481424,6.83155201 14.1925328,14.8116762 13.3410563,17.9758904 L13.3050311,18.1097735 C11.6386185,24.3031352 10.5662764,28.339014 10.2944518,29.4681144 C10.1617286,30.0194175 9.99332671,30.53014 9.7894777,31 L22,31 Z M19.8000031,2 L24,2 L24,33 L3,33 C6.1000061,33 7.69999695,31.6999969 8.3500061,29 C9.00001526,26.3000031 14.007748,7.845938 14.5,6 C15.3000031,3 17.1499939,2 19.8000031,2 Z" id="Tab" fill="#0089D9" fill-rule="nonzero"></path>
        <rect id="Green" fill="#599900" x="0" y="31" width="22" height="2"></rect>
    </g>
</svg>