<?xml version="1.0" encoding="UTF-8"?>
<svg width="22px" height="33px" viewBox="0 0 22 33" version="1.1" xmlns="http://www.w3.org/2000/svg" xmlns:xlink="http://www.w3.org/1999/xlink">
    <!-- Generator: Sketch 52.2 (67145) - http://www.bohemiancoding.com/sketch -->
    <title>tab-pressed-side-bk</title>
    <desc>Created with Sketch.</desc>
    <g id="tab-pressed-side-bk" stroke="none" stroke-width="1" fill="none" fill-rule="evenodd">
        <path d="M19.8000031,2 C17.1499939,2 15.3000031,3 14.5,6 C14.007748,7.845938 9.00001526,26.3000031 8.3500061,29 C7.69999695,31.6999969 6.1000061,33 3,33 L22,33 L22,2 L19.8000031,2 Z M19.8000031,1 L23,1 L23,34 L3,34 L3,32 C5.59189441,32 6.82571934,31.0590966 7.37778328,28.7659428 C7.65923928,27.5968357 8.7288371,23.5712855 10.4080627,17.3303027 L10.4441109,17.1963347 C11.2967275,14.0278838 13.4509097,6.05304371 13.5337653,5.74233643 C14.407384,2.46627895 16.5041611,1 19.8000031,1 Z" id="Tab" fill-opacity="0.08" fill="#005180" fill-rule="nonzero"></path>
        <path d="M19.8000031,1.5 C20.3917239,1.5 20.3917239,1.5 22,1.5 L22.5,1.5 L22.5,33.5 L22,33.5 C13.4939485,33.5 13.4939485,33.5 7.99273823,33.5 C3.99394853,33.5 3.99394853,33.5 3,33.5 L3,32.5 C5.81976816,32.5 7.25697047,31.4040029 7.86389469,28.8829714 C8.14374546,27.720532 9.21380067,23.6932604 10.8908908,17.4602145 C10.9089126,17.3932362 10.9089126,17.3932362 10.9269351,17.3262607 C11.7793617,14.1585159 13.9337818,6.18279509 14.0168827,5.87116822 C14.8296251,2.82339582 16.7220795,1.5 19.8000031,1.5 Z" id="Tab" stroke-opacity="0.08" stroke="#005180" fill="#F2F2F2"></path>
        <rect id="Green" fill="#599900" x="0" y="31" width="22" height="2"></rect>
    </g>
</svg>