<?xml version="1.0" encoding="UTF-8"?>
<svg width="22px" height="33px" viewBox="0 0 22 33" version="1.1" xmlns="http://www.w3.org/2000/svg" xmlns:xlink="http://www.w3.org/1999/xlink">
    <!-- Generator: Sketch 52.2 (67145) - http://www.bohemiancoding.com/sketch -->
    <title>tab-active-side-bk</title>
    <desc>Created with Sketch.</desc>
    <g id="tab-active-side-bk" stroke="none" stroke-width="1" fill="none" fill-rule="evenodd">
        <path d="M19.8000031,1 C19.9825354,1 20.7158677,1 22,1 L22,33 L1,33 C2.40933292,32.3333333 3.07599958,32 3,32 C6.1000061,32 7.69999695,30.6999969 8.3500061,28 C9.00001526,25.3000031 14.007748,6.845938 14.5,5 C15.3000031,2 17.1499939,1 19.8000031,1 Z" id="White" fill="#FFFFFF"></path>
        <path d="M20,3.94996535e-15 C16.6500015,3.94996535e-15 14.3500004,0.799999237 13.5499992,4 C12.7499981,7.20000076 8.15071146,24.2308053 7.39999962,26.9000015 C6.5,30.0999985 5.39999962,31 2,31 C1.66666667,31 1,31 0,31 L0,33 C1,33 1.66666667,33 2,33 C8,33 8.25,31.8000031 9.75,27.0999985 C10.6395963,24.0268524 15.2999992,6.45000458 15.8500004,4.65000153 C16.4000015,2.84999847 17.6500015,2 20,2 C20.6666667,2 21.3333333,2 22,2 L22,0 C21.3333333,0 20.6666667,1.31665512e-15 20,3.94996535e-15 Z" id="Green-Line" fill="#599900"></path>
    </g>
</svg>