<svg id="Access_Denied" data-name="Access Denied" xmlns="http://www.w3.org/2000/svg" width="218" height="218" viewBox="0 0 218 218"><defs><style>.cls-1,.cls-2{fill:#b6c7d6;}.cls-1,.cls-3,.cls-4,.cls-7{fill-rule:evenodd;}.cls-3{fill:#7d9ab3;}.cls-4{fill:#9bb6cf;}.cls-5,.cls-7{fill:#da676b;}.cls-6{fill:#fff;}.cls-8{fill:#4c6573;}</style></defs><title>Error-Illustrations</title><g id="Fence"><polygon id="Fence-2" data-name="Fence" class="cls-1" points="11 181.21 11.79 182 13.21 182 11 179.79 11 181.21"/><polygon id="Fence-3" data-name="Fence" class="cls-1" points="206.21 182 207 181.21 207 179.79 204.79 182 206.21 182"/><path id="Fence-4" data-name="Fence" class="cls-1" d="M11,64h1.79L11,65.79v1.41l3-3,4.29,4.29L14,72.79l-3-3v1.41l2.29,2.29L11,75.79v1.41l3-3,4.29,4.29L14,82.79l-3-3v1.41l2.29,2.29L11,85.79v1.41l3-3,4.29,4.29L14,92.79l-3-3v1.41l2.29,2.29L11,95.79v1.41l3-3,4.29,4.29L14,102.79l-3-3v1.41l2.29,2.29L11,105.79v1.41l3-3,4.29,4.29L14,112.79l-3-3v1.41l2.29,2.29L11,115.79v1.41l3-3,4.29,4.29L14,122.79l-3-3v1.41l2.29,2.29L11,125.79v1.41l3-3,4.29,4.29L14,132.79l-3-3v1.41l2.29,2.29L11,135.79v1.41l3-3,4.29,4.29L14,142.79l-3-3v1.41l2.29,2.29L11,145.79v1.41l3-3,4.29,4.29L14,152.79l-3-3v1.41l2.29,2.29L11,155.79v1.41l3-3,4.29,4.29L14,162.79l-3-3v1.41l2.29,2.29L11,165.79v1.41l3-3,4.29,4.29L14,172.79l-3-3v1.41l2.29,2.29L11,175.79v1.41l3-3L17.79,178H11v1h6.79l-3,3h1.41L19,179.21,21.79,182h1.41l-3-3h7.59l-3,3h1.41L29,179.21,31.79,182h1.41l-3-3h7.59l-3,3h1.41L39,179.21,41.79,182h1.41l-3-3h7.59l-3,3h1.41L49,179.21,51.79,182h1.41l-3-3h7.59l-3,3h1.41L59,179.21,61.79,182h1.41l-3-3h7.59l-3,3h1.41L69,179.21,71.79,182h1.41l-3-3h7.59l-3,3h1.41L79,179.21,81.79,182h1.41l-3-3h7.59l-3,3h1.41L89,179.21,91.79,182h1.41l-3-3h7.59l-3,3h1.41L99,179.21l2.79,2.79h1.41l-3-3h7.59l-3,3h1.41l2.79-2.79,2.79,2.79h1.41l-3-3h7.59l-3,3h1.41l2.79-2.79,2.79,2.79h1.41l-3-3h7.59l-3,3h1.41l2.79-2.79,2.79,2.79h1.41l-3-3h7.59l-3,3h1.41l2.79-2.79,2.79,2.79h1.41l-3-3h7.59l-3,3h1.41l2.79-2.79,2.79,2.79h1.41l-3-3h7.59l-3,3h1.41l2.79-2.79,2.79,2.79h1.41l-3-3h7.59l-3,3h1.41l2.79-2.79,2.79,2.79h1.41l-3-3h7.59l-3,3h1.41l2.79-2.79,2.79,2.79h1.41l-3-3h7.59l-3,3h1.41l2.79-2.79,2.79,2.79h1.41l-3-3h7.59l-3,3h1.41l2.79-2.79,2.79,2.79h1.41l-3-3H207v-1h-6.79l3.79-3.79,3,3v-1.41l-2.29-2.29,2.29-2.29v-1.41l-3,3-4.29-4.29,4.29-4.29,3,3v-1.41l-2.29-2.29,2.29-2.29v-1.41l-3,3-4.29-4.29,4.29-4.29,3,3v-1.41l-2.29-2.29,2.29-2.29v-1.41l-3,3-4.29-4.29,4.29-4.29,3,3v-1.41l-2.29-2.29,2.29-2.29v-1.41l-3,3-4.29-4.29,4.29-4.29,3,3v-1.41l-2.29-2.29,2.29-2.29v-1.41l-3,3-4.29-4.29,4.29-4.29,3,3v-1.41l-2.29-2.29,2.29-2.29v-1.41l-3,3-4.29-4.29,4.29-4.29,3,3v-1.41l-2.29-2.29,2.29-2.29v-1.41l-3,3-4.29-4.29,4.29-4.29,3,3v-1.41l-2.29-2.29,2.29-2.29V99.79l-3,3-4.29-4.29L204,94.21l3,3V95.79l-2.29-2.29L207,91.21V89.79l-3,3-4.29-4.29L204,84.21l3,3V85.79l-2.29-2.29L207,81.21V79.79l-3,3-4.29-4.29L204,74.21l3,3V75.79l-2.29-2.29L207,71.21V69.79l-3,3-4.29-4.29L204,64.21l3,3V65.79L205.21,64H207V63h-1.79L207,61.21V59.79l-3,3-3-3-0.71.71L202.79,63h-7.59l2.53-2.53L197,59.76l-3,3-3-3-0.71.71L192.79,63h-7.59l2.53-2.53L187,59.76l-3,3-3-3-0.71.71L182.79,63h-7.59l2.53-2.53L177,59.76l-3,3-3-3-0.71.71L172.79,63h-7.59l2.53-2.53L167,59.76l-3,3-3-3-0.71.71L162.79,63h-7.59l2.53-2.53L157,59.76l-3,3-3-3-0.71.71L152.79,63h-7.59l2.53-2.53L147,59.76l-3,3-3-3-0.71.71L142.79,63h-7.59l2.53-2.53L137,59.76l-3,3-3-3-0.71.71L132.79,63h-7.59l2.53-2.53L127,59.76l-3,3-3-3-0.71.71L122.79,63h-7.59l2.53-2.53L117,59.76l-3,3-3-3-0.71.71L112.79,63h-7.59l2.53-2.53L107,59.76l-3,3-3-3-0.71.71L102.79,63H95.21l2.53-2.53L97,59.76l-3,3-3-3-0.71.71L92.79,63H85.21l2.53-2.53L87,59.76l-3,3-3-3-0.71.71L82.79,63H75.21l2.53-2.53L77,59.76l-3,3-3-3-0.71.71L72.79,63H65.21l2.53-2.53L67,59.76l-3,3-3-3-0.71.71L62.79,63H55.21l2.53-2.53L57,59.76l-3,3-3-3-0.71.71L52.79,63H45.21l2.53-2.53L47,59.76l-3,3-3-3-0.71.71L42.79,63H35.21l2.53-2.53L37,59.76l-3,3-3-3-0.71.71L32.79,63H25.21l2.53-2.53L27,59.76l-3,3-3-3-0.71.71L22.79,63H15.21l2.53-2.53L17,59.76l-3,3-3-3v1.41L12.79,63H11v1Zm3.71,9.5L19,69.21l4.29,4.29L19,77.79Zm30,50L49,119.21l4.29,4.29L49,127.79Zm3.59,5L44,132.79l-4.29-4.29L44,124.21ZM54,124.21l4.29,4.29L54,132.79l-4.29-4.29Zm0.71-.71L59,119.21l4.29,4.29L59,127.79ZM64,124.21l4.29,4.29L64,132.79l-4.29-4.29Zm0.71-.71L69,119.21l4.29,4.29L69,127.79ZM74,124.21l4.29,4.29L74,132.79l-4.29-4.29Zm0.71-.71L79,119.21l4.29,4.29L79,127.79ZM84,124.21l4.29,4.29L84,132.79l-4.29-4.29Zm0.71-.71L89,119.21l4.29,4.29L89,127.79ZM94,124.21l4.29,4.29L94,132.79l-4.29-4.29Zm0.71-.71L99,119.21l4.29,4.29L99,127.79Zm9.29,0.71,4.29,4.29L104,132.79l-4.29-4.29Zm0.71-.71,4.29-4.29,4.29,4.29L109,127.79Zm9.29,0.71,4.29,4.29L114,132.79l-4.29-4.29Zm0.71-.71,4.29-4.29,4.29,4.29L119,127.79Zm9.29,0.71,4.29,4.29L124,132.79l-4.29-4.29Zm0.71-.71,4.29-4.29,4.29,4.29L129,127.79Zm9.29,0.71,4.29,4.29L134,132.79l-4.29-4.29Zm0.71-.71,4.29-4.29,4.29,4.29L139,127.79Zm9.29,0.71,4.29,4.29L144,132.79l-4.29-4.29Zm0.71-.71,4.29-4.29,4.29,4.29L149,127.79Zm9.29,0.71,4.29,4.29L154,132.79l-4.29-4.29Zm0.71-.71,4.29-4.29,4.29,4.29L159,127.79Zm9.29,0.71,4.29,4.29L164,132.79l-4.29-4.29Zm0.71-.71,4.29-4.29,4.29,4.29L169,127.79Zm9.29,0.71,4.29,4.29L174,132.79l-4.29-4.29Zm-4.29-5.71,4.29-4.29,4.29,4.29L174,122.79Zm-0.71-.71-4.29-4.29,4.29-4.29,4.29,4.29Zm-0.71.71L164,122.79l-4.29-4.29,4.29-4.29Zm-9.29-.71-4.29-4.29,4.29-4.29,4.29,4.29Zm-0.71.71L154,122.79l-4.29-4.29,4.29-4.29Zm-9.29-.71-4.29-4.29,4.29-4.29,4.29,4.29Zm-0.71.71L144,122.79l-4.29-4.29,4.29-4.29Zm-9.29-.71-4.29-4.29,4.29-4.29,4.29,4.29Zm-0.71.71L134,122.79l-4.29-4.29,4.29-4.29Zm-9.29-.71-4.29-4.29,4.29-4.29,4.29,4.29Zm-0.71.71L124,122.79l-4.29-4.29,4.29-4.29Zm-9.29-.71-4.29-4.29,4.29-4.29,4.29,4.29Zm-0.71.71L114,122.79l-4.29-4.29,4.29-4.29Zm-9.29-.71-4.29-4.29,4.29-4.29,4.29,4.29Zm-0.71.71L104,122.79l-4.29-4.29,4.29-4.29ZM99,117.79l-4.29-4.29L99,109.21l4.29,4.29Zm-0.71.71L94,122.79l-4.29-4.29L94,114.21ZM89,117.79l-4.29-4.29L89,109.21l4.29,4.29Zm-0.71.71L84,122.79l-4.29-4.29L84,114.21ZM79,117.79l-4.29-4.29L79,109.21l4.29,4.29Zm-0.71.71L74,122.79l-4.29-4.29L74,114.21ZM69,117.79l-4.29-4.29L69,109.21l4.29,4.29Zm-0.71.71L64,122.79l-4.29-4.29L64,114.21ZM59,117.79l-4.29-4.29L59,109.21l4.29,4.29Zm-0.71.71L54,122.79l-4.29-4.29L54,114.21ZM49,117.79l-4.29-4.29L49,109.21l4.29,4.29Zm-0.71.71L44,122.79l-4.29-4.29L44,114.21ZM39,117.79l-4.29-4.29L39,109.21l4.29,4.29Zm4.29,5.71L39,127.79l-4.29-4.29L39,119.21Zm0,10L39,137.79l-4.29-4.29L39,129.21ZM44,134.21l4.29,4.29L44,142.79l-4.29-4.29Zm0.71-.71L49,129.21l4.29,4.29L49,137.79ZM54,134.21l4.29,4.29L54,142.79l-4.29-4.29Zm0.71-.71L59,129.21l4.29,4.29L59,137.79ZM64,134.21l4.29,4.29L64,142.79l-4.29-4.29Zm0.71-.71L69,129.21l4.29,4.29L69,137.79ZM74,134.21l4.29,4.29L74,142.79l-4.29-4.29Zm0.71-.71L79,129.21l4.29,4.29L79,137.79ZM84,134.21l4.29,4.29L84,142.79l-4.29-4.29Zm0.71-.71L89,129.21l4.29,4.29L89,137.79ZM94,134.21l4.29,4.29L94,142.79l-4.29-4.29Zm0.71-.71L99,129.21l4.29,4.29L99,137.79Zm9.29,0.71,4.29,4.29L104,142.79l-4.29-4.29Zm0.71-.71,4.29-4.29,4.29,4.29L109,137.79Zm9.29,0.71,4.29,4.29L114,142.79l-4.29-4.29Zm0.71-.71,4.29-4.29,4.29,4.29L119,137.79Zm9.29,0.71,4.29,4.29L124,142.79l-4.29-4.29Zm0.71-.71,4.29-4.29,4.29,4.29L129,137.79Zm9.29,0.71,4.29,4.29L134,142.79l-4.29-4.29Zm0.71-.71,4.29-4.29,4.29,4.29L139,137.79Zm9.29,0.71,4.29,4.29L144,142.79l-4.29-4.29Zm0.71-.71,4.29-4.29,4.29,4.29L149,137.79Zm9.29,0.71,4.29,4.29L154,142.79l-4.29-4.29Zm0.71-.71,4.29-4.29,4.29,4.29L159,137.79Zm9.29,0.71,4.29,4.29L164,142.79l-4.29-4.29Zm0.71-.71,4.29-4.29,4.29,4.29L169,137.79Zm9.29,0.71,4.29,4.29L174,142.79l-4.29-4.29Zm0.71-.71,4.29-4.29,4.29,4.29L179,137.79Zm0-10,4.29-4.29,4.29,4.29L179,127.79Zm0-10,4.29-4.29,4.29,4.29L179,117.79Zm0-10L179,99.21l4.29,4.29L179,107.79Zm3.59,5L174,112.79l-4.29-4.29,4.29-4.29Zm-9.29-.71-4.29-4.29L169,99.21l4.29,4.29Zm-0.71.71L164,112.79l-4.29-4.29,4.29-4.29Zm-9.29-.71-4.29-4.29L159,99.21l4.29,4.29Zm-0.71.71L154,112.79l-4.29-4.29,4.29-4.29Zm-9.29-.71-4.29-4.29L149,99.21l4.29,4.29Zm-0.71.71L144,112.79l-4.29-4.29,4.29-4.29Zm-9.29-.71-4.29-4.29L139,99.21l4.29,4.29Zm-0.71.71L134,112.79l-4.29-4.29,4.29-4.29Zm-9.29-.71-4.29-4.29L129,99.21l4.29,4.29Zm-0.71.71L124,112.79l-4.29-4.29,4.29-4.29Zm-9.29-.71-4.29-4.29L119,99.21l4.29,4.29Zm-0.71.71L114,112.79l-4.29-4.29,4.29-4.29Zm-9.29-.71-4.29-4.29L109,99.21l4.29,4.29Zm-0.71.71L104,112.79l-4.29-4.29,4.29-4.29ZM99,107.79l-4.29-4.29L99,99.21l4.29,4.29Zm-0.71.71L94,112.79l-4.29-4.29L94,104.21ZM89,107.79l-4.29-4.29L89,99.21l4.29,4.29Zm-0.71.71L84,112.79l-4.29-4.29L84,104.21ZM79,107.79l-4.29-4.29L79,99.21l4.29,4.29Zm-0.71.71L74,112.79l-4.29-4.29L74,104.21ZM69,107.79l-4.29-4.29L69,99.21l4.29,4.29Zm-0.71.71L64,112.79l-4.29-4.29L64,104.21ZM59,107.79l-4.29-4.29L59,99.21l4.29,4.29Zm-0.71.71L54,112.79l-4.29-4.29L54,104.21ZM49,107.79l-4.29-4.29L49,99.21l4.29,4.29Zm-0.71.71L44,112.79l-4.29-4.29L44,104.21ZM39,107.79l-4.29-4.29L39,99.21l4.29,4.29Zm-0.71.71L34,112.79l-4.29-4.29L34,104.21Zm0,10L34,122.79l-4.29-4.29L34,114.21Zm0,10L34,132.79l-4.29-4.29L34,124.21Zm0,10L34,142.79l-4.29-4.29L34,134.21Zm0,10L34,152.79l-4.29-4.29L34,144.21Zm-3.59-5L39,139.21l4.29,4.29L39,147.79ZM44,144.21l4.29,4.29L44,152.79l-4.29-4.29Zm0.71-.71L49,139.21l4.29,4.29L49,147.79ZM54,144.21l4.29,4.29L54,152.79l-4.29-4.29Zm0.71-.71L59,139.21l4.29,4.29L59,147.79ZM64,144.21l4.29,4.29L64,152.79l-4.29-4.29Zm0.71-.71L69,139.21l4.29,4.29L69,147.79ZM74,144.21l4.29,4.29L74,152.79l-4.29-4.29Zm0.71-.71L79,139.21l4.29,4.29L79,147.79ZM84,144.21l4.29,4.29L84,152.79l-4.29-4.29Zm0.71-.71L89,139.21l4.29,4.29L89,147.79ZM94,144.21l4.29,4.29L94,152.79l-4.29-4.29Zm0.71-.71L99,139.21l4.29,4.29L99,147.79Zm9.29,0.71,4.29,4.29L104,152.79l-4.29-4.29Zm0.71-.71,4.29-4.29,4.29,4.29L109,147.79Zm9.29,0.71,4.29,4.29L114,152.79l-4.29-4.29Zm0.71-.71,4.29-4.29,4.29,4.29L119,147.79Zm9.29,0.71,4.29,4.29L124,152.79l-4.29-4.29Zm0.71-.71,4.29-4.29,4.29,4.29L129,147.79Zm9.29,0.71,4.29,4.29L134,152.79l-4.29-4.29Zm0.71-.71,4.29-4.29,4.29,4.29L139,147.79Zm9.29,0.71,4.29,4.29L144,152.79l-4.29-4.29Zm0.71-.71,4.29-4.29,4.29,4.29L149,147.79Zm9.29,0.71,4.29,4.29L154,152.79l-4.29-4.29Zm0.71-.71,4.29-4.29,4.29,4.29L159,147.79Zm9.29,0.71,4.29,4.29L164,152.79l-4.29-4.29Zm0.71-.71,4.29-4.29,4.29,4.29L169,147.79Zm9.29,0.71,4.29,4.29L174,152.79l-4.29-4.29Zm0.71-.71,4.29-4.29,4.29,4.29L179,147.79Zm9.29,0.71,4.29,4.29L184,152.79l-4.29-4.29Zm-4.29-5.71,4.29-4.29,4.29,4.29L184,142.79Zm0-10,4.29-4.29,4.29,4.29L184,132.79Zm0-10,4.29-4.29,4.29,4.29L184,122.79Zm0-10,4.29-4.29,4.29,4.29L184,112.79Zm0-10L184,94.21l4.29,4.29L184,102.79ZM179,97.79l-4.29-4.29L179,89.21l4.29,4.29Zm-0.71.71L174,102.79l-4.29-4.29L174,94.21ZM169,97.79l-4.29-4.29L169,89.21l4.29,4.29Zm-0.71.71L164,102.79l-4.29-4.29L164,94.21ZM159,97.79l-4.29-4.29L159,89.21l4.29,4.29Zm-0.71.71L154,102.79l-4.29-4.29L154,94.21ZM149,97.79l-4.29-4.29L149,89.21l4.29,4.29Zm-0.71.71L144,102.79l-4.29-4.29L144,94.21ZM139,97.79l-4.29-4.29L139,89.21l4.29,4.29Zm-0.71.71L134,102.79l-4.29-4.29L134,94.21ZM129,97.79l-4.29-4.29L129,89.21l4.29,4.29Zm-0.71.71L124,102.79l-4.29-4.29L124,94.21ZM119,97.79l-4.29-4.29L119,89.21l4.29,4.29Zm-0.71.71L114,102.79l-4.29-4.29L114,94.21ZM109,97.79l-4.29-4.29L109,89.21l4.29,4.29Zm-0.71.71L104,102.79,99.71,98.5,104,94.21ZM99,97.79L94.71,93.5,99,89.21l4.29,4.29Zm-0.71.71L94,102.79,89.71,98.5,94,94.21ZM89,97.79L84.71,93.5,89,89.21l4.29,4.29Zm-0.71.71L84,102.79,79.71,98.5,84,94.21ZM79,97.79L74.71,93.5,79,89.21l4.29,4.29Zm-0.71.71L74,102.79,69.71,98.5,74,94.21ZM69,97.79L64.71,93.5,69,89.21l4.29,4.29Zm-0.71.71L64,102.79,59.71,98.5,64,94.21ZM59,97.79L54.71,93.5,59,89.21l4.29,4.29Zm-0.71.71L54,102.79,49.71,98.5,54,94.21ZM49,97.79L44.71,93.5,49,89.21l4.29,4.29Zm-0.71.71L44,102.79,39.71,98.5,44,94.21ZM39,97.79L34.71,93.5,39,89.21l4.29,4.29Zm-0.71.71L34,102.79,29.71,98.5,34,94.21ZM29,97.79L24.71,93.5,29,89.21l4.29,4.29Zm4.29,5.71L29,107.79l-4.29-4.29L29,99.21Zm0,10L29,117.79l-4.29-4.29L29,109.21Zm0,10L29,127.79l-4.29-4.29L29,119.21Zm0,10L29,137.79l-4.29-4.29L29,129.21Zm0,10L29,147.79l-4.29-4.29L29,139.21Zm0,10L29,157.79l-4.29-4.29L29,149.21ZM34,154.21l4.29,4.29L34,162.79l-4.29-4.29Zm0.71-.71L39,149.21l4.29,4.29L39,157.79ZM44,154.21l4.29,4.29L44,162.79l-4.29-4.29Zm0.71-.71L49,149.21l4.29,4.29L49,157.79ZM54,154.21l4.29,4.29L54,162.79l-4.29-4.29Zm0.71-.71L59,149.21l4.29,4.29L59,157.79ZM64,154.21l4.29,4.29L64,162.79l-4.29-4.29Zm0.71-.71L69,149.21l4.29,4.29L69,157.79ZM74,154.21l4.29,4.29L74,162.79l-4.29-4.29Zm0.71-.71L79,149.21l4.29,4.29L79,157.79ZM84,154.21l4.29,4.29L84,162.79l-4.29-4.29Zm0.71-.71L89,149.21l4.29,4.29L89,157.79ZM94,154.21l4.29,4.29L94,162.79l-4.29-4.29Zm0.71-.71L99,149.21l4.29,4.29L99,157.79Zm9.29,0.71,4.29,4.29L104,162.79l-4.29-4.29Zm0.71-.71,4.29-4.29,4.29,4.29L109,157.79Zm9.29,0.71,4.29,4.29L114,162.79l-4.29-4.29Zm0.71-.71,4.29-4.29,4.29,4.29L119,157.79Zm9.29,0.71,4.29,4.29L124,162.79l-4.29-4.29Zm0.71-.71,4.29-4.29,4.29,4.29L129,157.79Zm9.29,0.71,4.29,4.29L134,162.79l-4.29-4.29Zm0.71-.71,4.29-4.29,4.29,4.29L139,157.79Zm9.29,0.71,4.29,4.29L144,162.79l-4.29-4.29Zm0.71-.71,4.29-4.29,4.29,4.29L149,157.79Zm9.29,0.71,4.29,4.29L154,162.79l-4.29-4.29Zm0.71-.71,4.29-4.29,4.29,4.29L159,157.79Zm9.29,0.71,4.29,4.29L164,162.79l-4.29-4.29Zm0.71-.71,4.29-4.29,4.29,4.29L169,157.79Zm9.29,0.71,4.29,4.29L174,162.79l-4.29-4.29Zm0.71-.71,4.29-4.29,4.29,4.29L179,157.79Zm9.29,0.71,4.29,4.29L184,162.79l-4.29-4.29Zm0.71-.71,4.29-4.29,4.29,4.29L189,157.79Zm0-10,4.29-4.29,4.29,4.29L189,147.79Zm0-10,4.29-4.29,4.29,4.29L189,137.79Zm0-10,4.29-4.29,4.29,4.29L189,127.79Zm0-10,4.29-4.29,4.29,4.29L189,117.79Zm0-10L189,99.21l4.29,4.29L189,107.79Zm0-10L189,89.21l4.29,4.29L189,97.79Zm0-10L189,79.21l4.29,4.29L189,87.79Zm3.59,5L184,92.79l-4.29-4.29L184,84.21ZM179,87.79l-4.29-4.29L179,79.21l4.29,4.29Zm-0.71.71L174,92.79l-4.29-4.29L174,84.21ZM169,87.79l-4.29-4.29L169,79.21l4.29,4.29Zm-0.71.71L164,92.79l-4.29-4.29L164,84.21ZM159,87.79l-4.29-4.29L159,79.21l4.29,4.29Zm-0.71.71L154,92.79l-4.29-4.29L154,84.21ZM149,87.79l-4.29-4.29L149,79.21l4.29,4.29Zm-0.71.71L144,92.79l-4.29-4.29L144,84.21ZM139,87.79l-4.29-4.29L139,79.21l4.29,4.29Zm-0.71.71L134,92.79l-4.29-4.29L134,84.21ZM129,87.79l-4.29-4.29L129,79.21l4.29,4.29Zm-0.71.71L124,92.79l-4.29-4.29L124,84.21ZM119,87.79l-4.29-4.29L119,79.21l4.29,4.29Zm-0.71.71L114,92.79l-4.29-4.29L114,84.21ZM109,87.79l-4.29-4.29L109,79.21l4.29,4.29Zm-0.71.71L104,92.79,99.71,88.5,104,84.21ZM99,87.79L94.71,83.5,99,79.21l4.29,4.29Zm-0.71.71L94,92.79,89.71,88.5,94,84.21ZM89,87.79L84.71,83.5,89,79.21l4.29,4.29Zm-0.71.71L84,92.79,79.71,88.5,84,84.21ZM79,87.79L74.71,83.5,79,79.21l4.29,4.29Zm-0.71.71L74,92.79,69.71,88.5,74,84.21ZM69,87.79L64.71,83.5,69,79.21l4.29,4.29Zm-0.71.71L64,92.79,59.71,88.5,64,84.21ZM59,87.79L54.71,83.5,59,79.21l4.29,4.29Zm-0.71.71L54,92.79,49.71,88.5,54,84.21ZM49,87.79L44.71,83.5,49,79.21l4.29,4.29Zm-0.71.71L44,92.79,39.71,88.5,44,84.21ZM39,87.79L34.71,83.5,39,79.21l4.29,4.29Zm-0.71.71L34,92.79,29.71,88.5,34,84.21ZM29,87.79L24.71,83.5,29,79.21l4.29,4.29Zm-0.71.71L24,92.79,19.71,88.5,24,84.21Zm0,10L24,102.79,19.71,98.5,24,94.21Zm0,10L24,112.79l-4.29-4.29L24,104.21Zm0,10L24,122.79l-4.29-4.29L24,114.21Zm0,10L24,132.79l-4.29-4.29L24,124.21Zm0,10L24,142.79l-4.29-4.29L24,134.21Zm0,10L24,152.79l-4.29-4.29L24,144.21Zm0,10L24,162.79l-4.29-4.29L24,154.21Zm0,10L24,172.79l-4.29-4.29L24,164.21Zm-3.59-5L29,159.21l4.29,4.29L29,167.79ZM34,164.21l4.29,4.29L34,172.79l-4.29-4.29Zm0.71-.71L39,159.21l4.29,4.29L39,167.79ZM44,164.21l4.29,4.29L44,172.79l-4.29-4.29Zm0.71-.71L49,159.21l4.29,4.29L49,167.79ZM54,164.21l4.29,4.29L54,172.79l-4.29-4.29Zm0.71-.71L59,159.21l4.29,4.29L59,167.79ZM64,164.21l4.29,4.29L64,172.79l-4.29-4.29Zm0.71-.71L69,159.21l4.29,4.29L69,167.79ZM74,164.21l4.29,4.29L74,172.79l-4.29-4.29Zm0.71-.71L79,159.21l4.29,4.29L79,167.79ZM84,164.21l4.29,4.29L84,172.79l-4.29-4.29Zm0.71-.71L89,159.21l4.29,4.29L89,167.79ZM94,164.21l4.29,4.29L94,172.79l-4.29-4.29Zm0.71-.71L99,159.21l4.29,4.29L99,167.79Zm9.29,0.71,4.29,4.29L104,172.79l-4.29-4.29Zm0.71-.71,4.29-4.29,4.29,4.29L109,167.79Zm9.29,0.71,4.29,4.29L114,172.79l-4.29-4.29Zm0.71-.71,4.29-4.29,4.29,4.29L119,167.79Zm9.29,0.71,4.29,4.29L124,172.79l-4.29-4.29Zm0.71-.71,4.29-4.29,4.29,4.29L129,167.79Zm9.29,0.71,4.29,4.29L134,172.79l-4.29-4.29Zm0.71-.71,4.29-4.29,4.29,4.29L139,167.79Zm9.29,0.71,4.29,4.29L144,172.79l-4.29-4.29Zm0.71-.71,4.29-4.29,4.29,4.29L149,167.79Zm9.29,0.71,4.29,4.29L154,172.79l-4.29-4.29Zm0.71-.71,4.29-4.29,4.29,4.29L159,167.79Zm9.29,0.71,4.29,4.29L164,172.79l-4.29-4.29Zm0.71-.71,4.29-4.29,4.29,4.29L169,167.79Zm9.29,0.71,4.29,4.29L174,172.79l-4.29-4.29Zm0.71-.71,4.29-4.29,4.29,4.29L179,167.79Zm9.29,0.71,4.29,4.29L184,172.79l-4.29-4.29Zm0.71-.71,4.29-4.29,4.29,4.29L189,167.79Zm9.29,0.71,4.29,4.29L194,172.79l-4.29-4.29Zm-4.29-5.71,4.29-4.29,4.29,4.29L194,162.79Zm0-10,4.29-4.29,4.29,4.29L194,152.79Zm0-10,4.29-4.29,4.29,4.29L194,142.79Zm0-10,4.29-4.29,4.29,4.29L194,132.79Zm0-10,4.29-4.29,4.29,4.29L194,122.79Zm0-10,4.29-4.29,4.29,4.29L194,112.79Zm0-10L194,94.21l4.29,4.29L194,102.79Zm0-10L194,84.21l4.29,4.29L194,92.79Zm0-10L194,74.21l4.29,4.29L194,82.79ZM189,77.79l-4.29-4.29L189,69.21l4.29,4.29Zm-0.71.71L184,82.79l-4.29-4.29L184,74.21ZM179,77.79l-4.29-4.29L179,69.21l4.29,4.29Zm-0.71.71L174,82.79l-4.29-4.29L174,74.21ZM169,77.79l-4.29-4.29L169,69.21l4.29,4.29Zm-0.71.71L164,82.79l-4.29-4.29L164,74.21ZM159,77.79l-4.29-4.29L159,69.21l4.29,4.29Zm-0.71.71L154,82.79l-4.29-4.29L154,74.21ZM149,77.79l-4.29-4.29L149,69.21l4.29,4.29Zm-0.71.71L144,82.79l-4.29-4.29L144,74.21ZM139,77.79l-4.29-4.29L139,69.21l4.29,4.29Zm-0.71.71L134,82.79l-4.29-4.29L134,74.21ZM129,77.79l-4.29-4.29L129,69.21l4.29,4.29Zm-0.71.71L124,82.79l-4.29-4.29L124,74.21ZM119,77.79l-4.29-4.29L119,69.21l4.29,4.29Zm-0.71.71L114,82.79l-4.29-4.29L114,74.21ZM109,77.79l-4.29-4.29L109,69.21l4.29,4.29Zm-0.71.71L104,82.79,99.71,78.5,104,74.21ZM99,77.79L94.71,73.5,99,69.21l4.29,4.29Zm-0.71.71L94,82.79,89.71,78.5,94,74.21ZM89,77.79L84.71,73.5,89,69.21l4.29,4.29Zm-0.71.71L84,82.79,79.71,78.5,84,74.21ZM79,77.79L74.71,73.5,79,69.21l4.29,4.29Zm-0.71.71L74,82.79,69.71,78.5,74,74.21ZM69,77.79L64.71,73.5,69,69.21l4.29,4.29Zm-0.71.71L64,82.79,59.71,78.5,64,74.21ZM59,77.79L54.71,73.5,59,69.21l4.29,4.29Zm-0.71.71L54,82.79,49.71,78.5,54,74.21ZM49,77.79L44.71,73.5,49,69.21l4.29,4.29Zm-0.71.71L44,82.79,39.71,78.5,44,74.21ZM39,77.79L34.71,73.5,39,69.21l4.29,4.29Zm-0.71.71L34,82.79,29.71,78.5,34,74.21ZM29,77.79L24.71,73.5,29,69.21l4.29,4.29Zm-0.71.71L24,82.79,19.71,78.5,24,74.21Zm-13.59,5L19,79.21l4.29,4.29L19,87.79Zm0,10L19,89.21l4.29,4.29L19,97.79Zm0,10L19,99.21l4.29,4.29L19,107.79Zm0,10L19,109.21l4.29,4.29L19,117.79Zm0,10L19,119.21l4.29,4.29L19,127.79Zm0,10L19,129.21l4.29,4.29L19,137.79Zm0,10L19,139.21l4.29,4.29L19,147.79Zm0,10L19,149.21l4.29,4.29L19,157.79Zm0,10L19,159.21l4.29,4.29L19,167.79Zm0,10L19,169.21l4.29,4.29L19,177.79Zm5.5,4.5L24,174.21,27.79,178H20.21Zm4.5-4.5L29,169.21l4.29,4.29L29,177.79Zm5.5,4.5L34,174.21,37.79,178H30.21Zm4.5-4.5L39,169.21l4.29,4.29L39,177.79Zm5.5,4.5L44,174.21,47.79,178H40.21Zm4.5-4.5L49,169.21l4.29,4.29L49,177.79Zm5.5,4.5L54,174.21,57.79,178H50.21Zm4.5-4.5L59,169.21l4.29,4.29L59,177.79Zm5.5,4.5L64,174.21,67.79,178H60.21Zm4.5-4.5L69,169.21l4.29,4.29L69,177.79Zm5.5,4.5L74,174.21,77.79,178H70.21Zm4.5-4.5L79,169.21l4.29,4.29L79,177.79Zm5.5,4.5L84,174.21,87.79,178H80.21Zm4.5-4.5L89,169.21l4.29,4.29L89,177.79Zm5.5,4.5L94,174.21,97.79,178H90.21Zm4.5-4.5L99,169.21l4.29,4.29L99,177.79Zm5.5,4.5,3.79-3.79,3.79,3.79h-7.59Zm4.5-4.5,4.29-4.29,4.29,4.29L109,177.79Zm5.5,4.5,3.79-3.79,3.79,3.79h-7.59Zm4.5-4.5,4.29-4.29,4.29,4.29L119,177.79Zm5.5,4.5,3.79-3.79,3.79,3.79h-7.59Zm4.5-4.5,4.29-4.29,4.29,4.29L129,177.79Zm5.5,4.5,3.79-3.79,3.79,3.79h-7.59Zm4.5-4.5,4.29-4.29,4.29,4.29L139,177.79Zm5.5,4.5,3.79-3.79,3.79,3.79h-7.59Zm4.5-4.5,4.29-4.29,4.29,4.29L149,177.79Zm5.5,4.5,3.79-3.79,3.79,3.79h-7.59Zm4.5-4.5,4.29-4.29,4.29,4.29L159,177.79Zm5.5,4.5,3.79-3.79,3.79,3.79h-7.59Zm4.5-4.5,4.29-4.29,4.29,4.29L169,177.79Zm5.5,4.5,3.79-3.79,3.79,3.79h-7.59Zm4.5-4.5,4.29-4.29,4.29,4.29L179,177.79Zm5.5,4.5,3.79-3.79,3.79,3.79h-7.59Zm4.5-4.5,4.29-4.29,4.29,4.29L189,177.79Zm5.5,4.5,3.79-3.79,3.79,3.79h-7.59Zm13.09-4.5L199,177.79l-4.29-4.29,4.29-4.29Zm0-10L199,167.79l-4.29-4.29,4.29-4.29Zm0-10L199,157.79l-4.29-4.29,4.29-4.29Zm0-10L199,147.79l-4.29-4.29,4.29-4.29Zm0-10L199,137.79l-4.29-4.29,4.29-4.29Zm0-10L199,127.79l-4.29-4.29,4.29-4.29Zm0-10L199,117.79l-4.29-4.29,4.29-4.29Zm0-10L199,107.79l-4.29-4.29L199,99.21Zm0-10L199,97.79l-4.29-4.29L199,89.21Zm0-10L199,87.79l-4.29-4.29L199,79.21Zm0-10L199,77.79l-4.29-4.29L199,69.21Zm-0.5-9.5L199,67.79,195.21,64h7.59Zm-8.79.21,4.29,4.29L194,72.79l-4.29-4.29ZM192.79,64L189,67.79,185.21,64h7.59Zm-8.79.21,4.29,4.29L184,72.79l-4.29-4.29ZM182.79,64L179,67.79,175.21,64h7.59Zm-8.79.21,4.29,4.29L174,72.79l-4.29-4.29ZM172.79,64L169,67.79,165.21,64h7.59Zm-8.79.21,4.29,4.29L164,72.79l-4.29-4.29ZM162.79,64L159,67.79,155.21,64h7.59Zm-8.79.21,4.29,4.29L154,72.79l-4.29-4.29ZM152.79,64L149,67.79,145.21,64h7.59Zm-8.79.21,4.29,4.29L144,72.79l-4.29-4.29ZM142.79,64L139,67.79,135.21,64h7.59Zm-8.79.21,4.29,4.29L134,72.79l-4.29-4.29ZM132.79,64L129,67.79,125.21,64h7.59Zm-8.79.21,4.29,4.29L124,72.79l-4.29-4.29ZM122.79,64L119,67.79,115.21,64h7.59Zm-8.79.21,4.29,4.29L114,72.79l-4.29-4.29ZM112.79,64L109,67.79,105.21,64h7.59Zm-8.79.21,4.29,4.29L104,72.79,99.71,68.5ZM102.79,64L99,67.79,95.21,64h7.59ZM94,64.21l4.29,4.29L94,72.79,89.71,68.5ZM92.79,64L89,67.79,85.21,64h7.59ZM84,64.21l4.29,4.29L84,72.79,79.71,68.5ZM82.79,64L79,67.79,75.21,64h7.59ZM74,64.21l4.29,4.29L74,72.79,69.71,68.5ZM72.79,64L69,67.79,65.21,64h7.59ZM64,64.21l4.29,4.29L64,72.79,59.71,68.5ZM62.79,64L59,67.79,55.21,64h7.59ZM54,64.21l4.29,4.29L54,72.79,49.71,68.5ZM52.79,64L49,67.79,45.21,64h7.59ZM44,64.21l4.29,4.29L44,72.79,39.71,68.5ZM42.79,64L39,67.79,35.21,64h7.59ZM34,64.21l4.29,4.29L34,72.79,29.71,68.5ZM32.79,64L29,67.79,25.21,64h7.59ZM24,64.21l4.29,4.29L24,72.79,19.71,68.5ZM22.79,64L19,67.79,15.21,64h7.59Z"/></g><g id="Barb_Wire" data-name="Barb Wire"><rect id="Wire" class="cls-2" x="11" y="46" width="196" height="1"/><g id="Barbs"><polygon class="cls-1" points="205.77 45.44 205.06 44.73 204 45.79 202.94 44.73 202.23 45.44 203.29 46.5 202.23 47.56 202.94 48.27 204 47.21 205.06 48.27 205.77 47.56 204.71 46.5 205.77 45.44"/><polygon class="cls-1" points="195.06 44.73 194 45.79 192.94 44.73 192.23 45.44 193.29 46.5 192.23 47.56 192.94 48.27 194 47.21 195.06 48.27 195.77 47.56 194.71 46.5 195.77 45.44 195.06 44.73"/><polygon class="cls-1" points="185.77 45.44 185.06 44.73 184 45.79 182.94 44.73 182.23 45.44 183.29 46.5 182.23 47.56 182.94 48.27 184 47.21 185.06 48.27 185.77 47.56 184.71 46.5 185.77 45.44"/><polygon class="cls-1" points="175.06 44.73 174 45.79 172.94 44.73 172.23 45.44 173.29 46.5 172.23 47.56 172.94 48.27 174 47.21 175.06 48.27 175.77 47.56 174.71 46.5 175.77 45.44 175.06 44.73"/><polygon class="cls-1" points="165.06 44.73 164 45.79 162.94 44.73 162.23 45.44 163.29 46.5 162.23 47.56 162.94 48.27 164 47.21 165.06 48.27 165.77 47.56 164.71 46.5 165.77 45.44 165.06 44.73"/><polygon class="cls-1" points="155.77 45.44 155.06 44.73 154 45.79 152.94 44.73 152.23 45.44 153.29 46.5 152.23 47.56 152.94 48.27 154 47.21 155.06 48.27 155.77 47.56 154.71 46.5 155.77 45.44"/><polygon class="cls-1" points="145.06 44.73 144 45.79 142.94 44.73 142.23 45.44 143.29 46.5 142.23 47.56 142.94 48.27 144 47.21 145.06 48.27 145.77 47.56 144.71 46.5 145.77 45.44 145.06 44.73"/><polygon class="cls-1" points="135.06 44.73 134 45.79 132.94 44.73 132.23 45.44 133.29 46.5 132.23 47.56 132.94 48.27 134 47.21 135.06 48.27 135.77 47.56 134.71 46.5 135.77 45.44 135.06 44.73"/><polygon class="cls-1" points="125.77 45.44 125.06 44.73 124 45.79 122.94 44.73 122.23 45.44 123.29 46.5 122.23 47.56 122.94 48.27 124 47.21 125.06 48.27 125.77 47.56 124.71 46.5 125.77 45.44"/><polygon class="cls-1" points="115.06 44.73 114 45.79 112.94 44.73 112.23 45.44 113.29 46.5 112.23 47.56 112.94 48.27 114 47.21 115.06 48.27 115.77 47.56 114.71 46.5 115.77 45.44 115.06 44.73"/><polygon class="cls-1" points="105.06 44.73 104 45.79 102.94 44.73 102.23 45.44 103.29 46.5 102.23 47.56 102.94 48.27 104 47.21 105.06 48.27 105.77 47.56 104.71 46.5 105.77 45.44 105.06 44.73"/><polygon class="cls-1" points="95.77 45.44 95.06 44.73 94 45.79 92.94 44.73 92.23 45.44 93.29 46.5 92.23 47.56 92.94 48.27 94 47.21 95.06 48.27 95.77 47.56 94.71 46.5 95.77 45.44"/><polygon class="cls-1" points="85.06 44.73 84 45.79 82.94 44.73 82.23 45.44 83.29 46.5 82.23 47.56 82.94 48.27 84 47.21 85.06 48.27 85.77 47.56 84.71 46.5 85.77 45.44 85.06 44.73"/><polygon class="cls-1" points="75.06 44.73 74 45.79 72.94 44.73 72.23 45.44 73.29 46.5 72.23 47.56 72.94 48.27 74 47.21 75.06 48.27 75.77 47.56 74.71 46.5 75.77 45.44 75.06 44.73"/><polygon class="cls-1" points="65.77 45.44 65.06 44.73 64 45.79 62.94 44.73 62.23 45.44 63.29 46.5 62.23 47.56 62.94 48.27 64 47.21 65.06 48.27 65.77 47.56 64.71 46.5 65.77 45.44"/><polygon class="cls-1" points="55.06 44.73 54 45.79 52.94 44.73 52.23 45.44 53.29 46.5 52.23 47.56 52.94 48.27 54 47.21 55.06 48.27 55.77 47.56 54.71 46.5 55.77 45.44 55.06 44.73"/><polygon class="cls-1" points="45.06 44.73 44 45.79 42.94 44.73 42.23 45.44 43.29 46.5 42.23 47.56 42.94 48.27 44 47.21 45.06 48.27 45.77 47.56 44.71 46.5 45.77 45.44 45.06 44.73"/><polygon class="cls-1" points="35.77 45.44 35.06 44.73 34 45.79 32.94 44.73 32.23 45.44 33.29 46.5 32.23 47.56 32.94 48.27 34 47.21 35.06 48.27 35.77 47.56 34.71 46.5 35.77 45.44"/><polygon class="cls-1" points="25.06 44.73 24 45.79 22.94 44.73 22.23 45.44 23.29 46.5 22.23 47.56 22.94 48.27 24 47.21 25.06 48.27 25.77 47.56 24.71 46.5 25.77 45.44 25.06 44.73"/><polygon class="cls-1" points="15.06 44.73 14 45.79 12.94 44.73 12.23 45.44 13.29 46.5 12.23 47.56 12.94 48.27 14 47.21 15.06 48.27 15.77 47.56 14.71 46.5 15.77 45.44 15.06 44.73"/></g></g><g id="Pillars"><path id="Right_Pillar" data-name="Right Pillar" class="cls-3" d="M190,189v-3h-3V33a2.65,2.65,0,0,0-3-3,2.65,2.65,0,0,1-3,3V186h-3v3h12Z"/><path id="Left_Pillar" data-name="Left Pillar" class="cls-3" d="M28,189v-3h3V33a2.65,2.65,0,0,0,3-3,2.65,2.65,0,0,1,3,3V186h3v3H28Z"/><path id="Right_Pillar_Highlight" data-name="Right Pillar Highlight" class="cls-4" d="M181,33a2.65,2.65,0,0,1,3-3V189h-6v-3h3S181,92.65,181,33Z"/><path id="Left_Pillar_Highlight" data-name="Left Pillar Highlight" class="cls-4" d="M31,33a2.65,2.65,0,0,1,3-3V189H28v-3h3V33Z"/></g><g id="Sign"><rect id="Body" class="cls-5" x="89" y="78" width="40" height="40" rx="5.85" ry="5.85"/><rect id="White_Backgorund" data-name="White Backgorund" class="cls-6" x="91" y="80" width="36" height="36" rx="4.86" ry="4.86"/><path id="Sign-2" data-name="Sign" class="cls-7" d="M109,85a13,13,0,1,0,13,13A13,13,0,0,0,109,85ZM99,98a9.94,9.94,0,0,1,2-5.92l14,14A10,10,0,0,1,99,98Zm18,5.92-14-14A10,10,0,0,1,117,103.92Z"/></g><rect id="Clip" class="cls-8" x="98" y="76" width="2" height="6" rx="1" ry="1"/><rect id="Clip-2" data-name="Clip" class="cls-8" x="118" y="76" width="2" height="6" rx="1" ry="1"/></svg>