<svg id="Maintenance" xmlns="http://www.w3.org/2000/svg" width="218" height="218" viewBox="0 0 218 218"><defs><style>.cls-1{fill:#7d9ab3;}.cls-1,.cls-10,.cls-11,.cls-12,.cls-13,.cls-14,.cls-15,.cls-19,.cls-2,.cls-20,.cls-21,.cls-3,.cls-4,.cls-5,.cls-6,.cls-7,.cls-8,.cls-9{fill-rule:evenodd;}.cls-2{fill:#fff;}.cls-3{fill:#62788c;}.cls-4{fill:#bacacf;}.cls-16,.cls-5{fill:#ff9c00;}.cls-6{fill:#a6a6a6;}.cls-7{fill:#4892df;}.cls-12,.cls-20,.cls-8{fill:#231f20;}.cls-8{opacity:0.1;}.cls-9{fill:#e79f2c;}.cls-10{fill:#fbae33;}.cls-11{fill:#f4f5f5;}.cls-12{opacity:0.05;}.cls-13{fill:#e58e25;}.cls-14{fill:#f99b1c;}.cls-15{fill:#f1f1f1;}.cls-17{fill:#f5dcb5;}.cls-18{fill:#d8d8d8;}.cls-19{fill:#d7565a;}.cls-20{opacity:0.15;}.cls-21{fill:#ccc;}</style></defs><title>Error-Illustrations</title><g id="Servers"><g id="Server"><path id="Body" class="cls-1" d="M112,158H214a4,4,0,0,1,4,4v24a4,4,0,0,1-4,4H112a4,4,0,0,1-4-4V162A4,4,0,0,1,112,158Z"/><path id="Whote_Circle" data-name="Whote Circle" class="cls-2" d="M201,169a5,5,0,1,1-5,5A5,5,0,0,1,201,169Z"/><path id="Dot" class="cls-3" d="M201,171a3,3,0,1,1-3,3A3,3,0,0,1,201,171Z"/><g id="Grill"><path class="cls-3" d="M117.5,166a1.5,1.5,0,0,0-1.5,1.5v13a1.5,1.5,0,0,0,3,0v-13A1.5,1.5,0,0,0,117.5,166Zm6,0a1.5,1.5,0,0,0-1.5,1.5v13a1.5,1.5,0,1,0,3,0v-13A1.5,1.5,0,0,0,123.5,166Zm6,0a1.5,1.5,0,0,0-1.5,1.5v13a1.5,1.5,0,1,0,3,0v-13A1.5,1.5,0,0,0,129.5,166Zm6,0a1.5,1.5,0,0,0-1.5,1.5v13a1.5,1.5,0,0,0,3,0v-13A1.5,1.5,0,0,0,135.5,166Zm6,0a1.5,1.5,0,0,0-1.5,1.5v13a1.5,1.5,0,0,0,3,0v-13A1.5,1.5,0,0,0,141.5,166Zm6,0a1.5,1.5,0,0,0-1.5,1.5v13a1.5,1.5,0,1,0,3,0v-13A1.5,1.5,0,0,0,147.5,166Zm6,0a1.5,1.5,0,0,0-1.5,1.5v13a1.5,1.5,0,1,0,3,0v-13A1.5,1.5,0,0,0,153.5,166Zm6,0a1.5,1.5,0,0,0-1.5,1.5v13a1.5,1.5,0,0,0,3,0v-13A1.5,1.5,0,0,0,159.5,166Zm6,0a1.5,1.5,0,0,0-1.5,1.5v13a1.5,1.5,0,1,0,3,0v-13A1.5,1.5,0,0,0,165.5,166Zm6,0a1.5,1.5,0,0,0-1.5,1.5v13a1.5,1.5,0,1,0,3,0v-13A1.5,1.5,0,0,0,171.5,166Zm6,0a1.5,1.5,0,0,0-1.5,1.5v13a1.5,1.5,0,0,0,3,0v-13A1.5,1.5,0,0,0,177.5,166Zm6,0a1.5,1.5,0,0,0-1.5,1.5v13a1.5,1.5,0,1,0,3,0v-13A1.5,1.5,0,0,0,183.5,166Z"/></g></g><g id="Server-2" data-name="Server"><path id="Body-2" data-name="Body" class="cls-1" d="M112,125H214a4,4,0,0,1,4,4v24a4,4,0,0,1-4,4H112a4,4,0,0,1-4-4V129A4,4,0,0,1,112,125Z"/><path id="Whote_Circle-2" data-name="Whote Circle" class="cls-2" d="M201,136a5,5,0,1,1-5,5A5,5,0,0,1,201,136Z"/><path id="Dot-2" data-name="Dot" class="cls-3" d="M201,138a3,3,0,1,1-3,3A3,3,0,0,1,201,138Z"/><g id="Grill-2" data-name="Grill"><path class="cls-3" d="M117.5,133a1.5,1.5,0,0,0-1.5,1.5v13a1.5,1.5,0,0,0,3,0v-13A1.5,1.5,0,0,0,117.5,133Zm6,0a1.5,1.5,0,0,0-1.5,1.5v13a1.5,1.5,0,1,0,3,0v-13A1.5,1.5,0,0,0,123.5,133Zm6,0a1.5,1.5,0,0,0-1.5,1.5v13a1.5,1.5,0,1,0,3,0v-13A1.5,1.5,0,0,0,129.5,133Zm6,0a1.5,1.5,0,0,0-1.5,1.5v13a1.5,1.5,0,0,0,3,0v-13A1.5,1.5,0,0,0,135.5,133Zm6,0a1.5,1.5,0,0,0-1.5,1.5v13a1.5,1.5,0,0,0,3,0v-13A1.5,1.5,0,0,0,141.5,133Zm6,0a1.5,1.5,0,0,0-1.5,1.5v13a1.5,1.5,0,1,0,3,0v-13A1.5,1.5,0,0,0,147.5,133Zm6,0a1.5,1.5,0,0,0-1.5,1.5v13a1.5,1.5,0,1,0,3,0v-13A1.5,1.5,0,0,0,153.5,133Zm6,0a1.5,1.5,0,0,0-1.5,1.5v13a1.5,1.5,0,0,0,3,0v-13A1.5,1.5,0,0,0,159.5,133Zm6,0a1.5,1.5,0,0,0-1.5,1.5v13a1.5,1.5,0,1,0,3,0v-13A1.5,1.5,0,0,0,165.5,133Zm6,0a1.5,1.5,0,0,0-1.5,1.5v13a1.5,1.5,0,1,0,3,0v-13A1.5,1.5,0,0,0,171.5,133Zm6,0a1.5,1.5,0,0,0-1.5,1.5v13a1.5,1.5,0,0,0,3,0v-13A1.5,1.5,0,0,0,177.5,133Zm6,0a1.5,1.5,0,0,0-1.5,1.5v13a1.5,1.5,0,1,0,3,0v-13A1.5,1.5,0,0,0,183.5,133Z"/></g></g><g id="Server-3" data-name="Server"><path id="Hinge" class="cls-4" d="M188,96a15.28,15.28,0,0,1,5.91-12.08l-2.14-2.14a18.13,18.13,0,0,0-6.63,16.43h3A15.37,15.37,0,0,1,188,96Z"/><path id="Body-3" data-name="Body" class="cls-1" d="M201,96l4-4h9a4,4,0,0,1,4,4v24a4,4,0,0,1-4,4H112a4,4,0,0,1-4-4V96h93Z"/><path id="Body-4" data-name="Body" class="cls-1" d="M133.58,26.24a4,4,0,0,1,5.66,0L205,92h-5.66Z"/><path id="Whote_Circle-3" data-name="Whote Circle" class="cls-2" d="M201,103a5,5,0,1,1-5,5A5,5,0,0,1,201,103Z"/><path id="Dot-3" data-name="Dot" class="cls-3" d="M201,105a3,3,0,1,1-3,3A3,3,0,0,1,201,105Z"/><g id="Grill-3" data-name="Grill"><path class="cls-3" d="M117.5,100a1.5,1.5,0,0,0-1.5,1.5v13a1.5,1.5,0,0,0,3,0v-13A1.5,1.5,0,0,0,117.5,100Zm6,0a1.5,1.5,0,0,0-1.5,1.5v13a1.5,1.5,0,1,0,3,0v-13A1.5,1.5,0,0,0,123.5,100Zm6,0a1.5,1.5,0,0,0-1.5,1.5v13a1.5,1.5,0,1,0,3,0v-13A1.5,1.5,0,0,0,129.5,100Zm6,0a1.5,1.5,0,0,0-1.5,1.5v13a1.5,1.5,0,0,0,3,0v-13A1.5,1.5,0,0,0,135.5,100Zm6,0a1.5,1.5,0,0,0-1.5,1.5v13a1.5,1.5,0,0,0,3,0v-13A1.5,1.5,0,0,0,141.5,100Zm6,0a1.5,1.5,0,0,0-1.5,1.5v13a1.5,1.5,0,1,0,3,0v-13A1.5,1.5,0,0,0,147.5,100Zm6,0a1.5,1.5,0,0,0-1.5,1.5v13a1.5,1.5,0,1,0,3,0v-13A1.5,1.5,0,0,0,153.5,100Zm6,0a1.5,1.5,0,0,0-1.5,1.5v13a1.5,1.5,0,0,0,3,0v-13A1.5,1.5,0,0,0,159.5,100Zm6,0a1.5,1.5,0,0,0-1.5,1.5v13a1.5,1.5,0,1,0,3,0v-13A1.5,1.5,0,0,0,165.5,100Zm6,0a1.5,1.5,0,0,0-1.5,1.5v13a1.5,1.5,0,1,0,3,0v-13A1.5,1.5,0,0,0,171.5,100Zm6,0a1.5,1.5,0,0,0-1.5,1.5v13a1.5,1.5,0,0,0,3,0v-13A1.5,1.5,0,0,0,177.5,100Zm6,0a1.5,1.5,0,0,0-1.5,1.5v13a1.5,1.5,0,1,0,3,0v-13A1.5,1.5,0,0,0,183.5,100Z"/></g></g></g><g id="Screwdriver"><path id="Led" class="cls-5" d="M179,94.5a1.5,1.5,0,0,0-3,0V96h3V94.5Z"/><path id="Led-2" data-name="Led" class="cls-5" d="M173,94.5a1.5,1.5,0,0,0-3,0V96h3V94.5Z"/><path id="Led-3" data-name="Led" class="cls-5" d="M167,94.5a1.5,1.5,0,0,0-3,0V96h3V94.5Z"/><polygon id="Metal" class="cls-6" points="136 91 154 91 155 90 160 91 160 93 155 94 154 93 136 93 136 91"/><polygon id="Handle" class="cls-7" points="117 95 116 94 116 90 117 89 132 89 133 90 134 90 135 89 136 89 136 95 135 95 134 94 133 94 132 95 117 95"/><polygon id="Shadow" class="cls-8" points="117 95 116 94 116 92 136 92 136 95 135 95 134 94 133 94 132 95 117 95"/></g><g id="_2nd_Cone" data-name="2nd Cone"><path id="Base" class="cls-9" d="M66,188a3.23,3.23,0,0,1,3,3H25a3.16,3.16,0,0,1,3-3H66Z"/><path id="Base_Shadow" data-name="Base Shadow" class="cls-8" d="M47,188H66a3.23,3.23,0,0,1,3,3H47v-3"/><polygon id="Body_Orange_Bottom" data-name="Body Orange Bottom" class="cls-10" points="30 188 34.9 167 59.21 167 64 188 30 188"/><polygon id="Body_White_Top" data-name="Body White Top" class="cls-11" points="34.9 167 36.16 160.97 57.84 160.97 59.21 167 34.9 167"/><polygon id="Body_Orange_Middle" data-name="Body Orange Middle" class="cls-10" points="36.16 160.97 38.9 149 55.11 149 57.84 160.97 36.16 160.97"/><polygon id="Body_White_Top-2" data-name="Body White Top" class="cls-11" points="38.9 149 40.27 143 53.74 143 55.11 149 38.9 149"/><polygon id="Body_Orange_Top" data-name="Body Orange Top" class="cls-10" points="40.27 143 43 131 51 131 53.74 143 40.27 143"/><polygon id="Shadow-2" data-name="Shadow" class="cls-12" points="47 188 47 131 51 131 64 188 47 188"/></g><g id="_1st_Cone" data-name="1st Cone"><path id="Base-2" data-name="Base" class="cls-13" d="M41,188a3.23,3.23,0,0,1,3,3H0a3.16,3.16,0,0,1,3-3H41Z"/><path id="Base_Shadow-2" data-name="Base Shadow" class="cls-8" d="M22,188H41a3.23,3.23,0,0,1,3,3H22v-3"/><polygon id="Body_Orange_Bottom-2" data-name="Body Orange Bottom" class="cls-14" points="5 188 9.9 167 34.21 167 39 188 5 188"/><polygon id="Body_White_Top-3" data-name="Body White Top" class="cls-11" points="9.9 167 11.16 160.97 32.84 160.97 34.21 167 9.9 167"/><polygon id="Body_Orange_Middle-2" data-name="Body Orange Middle" class="cls-14" points="11.16 160.97 13.9 149 30.11 149 32.84 160.97 11.16 160.97"/><polygon id="Body_White_Top-4" data-name="Body White Top" class="cls-11" points="13.9 149 15.27 143 28.74 143 30.11 149 13.9 149"/><polygon id="Body_Orange_Top-2" data-name="Body Orange Top" class="cls-14" points="15.27 143 18 131 26 131 28.74 143 15.27 143"/><polygon id="Shadow-3" data-name="Shadow" class="cls-12" points="22 188 22 131 26 131 39 188 22 188"/></g><g id="Calendar"><polygon id="Shadow-4" data-name="Shadow" class="cls-8" points="128 146 128 190 139 190 128 146"/><path id="Paper" class="cls-15" d="M76,156h54v32.5a1.5,1.5,0,0,1-1.5,1.5h-51a1.5,1.5,0,0,1-1.5-1.5V156Z"/><g id="Days"><rect id="_8th_Day" data-name="8th Day" class="cls-16" x="109" y="177" width="10" height="6"/><rect id="_7th_Day" data-name="7th Day" class="cls-17" x="98" y="177" width="10" height="6"/><rect id="_6th_Day" data-name="6th Day" class="cls-17" x="87" y="177" width="10" height="6"/><rect id="_5th_Day" data-name="5th Day" class="cls-17" x="76" y="177" width="10" height="6"/><rect id="_4th_Day" data-name="4th Day" class="cls-17" x="120" y="170" width="10" height="6"/><rect id="_3rd_Day" data-name="3rd Day" class="cls-17" x="109" y="170" width="10" height="6"/><rect id="_2nd_Day" data-name="2nd Day" class="cls-17" x="98" y="170" width="10" height="6"/><rect id="_1st_Day" data-name="1st Day" class="cls-16" x="87" y="170" width="10" height="6"/></g><g id="Grid"><rect id="Grid_Line" data-name="Grid Line" class="cls-18" x="76" y="162" width="54" height="1"/><rect id="Grid_Line-2" data-name="Grid Line" class="cls-18" x="76" y="169" width="54" height="1"/><rect id="Grid_Line-3" data-name="Grid Line" class="cls-18" x="76" y="176" width="54" height="1"/><rect id="Grid_Line-4" data-name="Grid Line" class="cls-18" x="76" y="183" width="54" height="1"/><rect id="Grid_Line-5" data-name="Grid Line" class="cls-18" x="119" y="156" width="1" height="34"/><rect id="Grid_Line-6" data-name="Grid Line" class="cls-18" x="108" y="156" width="1" height="34"/><rect id="Grid_Line-7" data-name="Grid Line" class="cls-18" x="97" y="156" width="1" height="34"/><rect id="Grid_Line-8" data-name="Grid Line" class="cls-18" x="86" y="156" width="1" height="34"/></g><path id="Header" class="cls-19" d="M78.5,146h49a2.5,2.5,0,0,1,2.5,2.5V156H76v-7.5A2.5,2.5,0,0,1,78.5,146Z"/><path id="Metal_Shadow" data-name="Metal Shadow" class="cls-20" d="M88,143a2,2,0,0,1,2,2v6a2,2,0,0,1-4,0v-6A2,2,0,0,1,88,143Z"/><path id="Metal_Shadow-2" data-name="Metal Shadow" class="cls-20" d="M118,143a2,2,0,0,1,2,2v6a2,2,0,0,1-4,0v-6A2,2,0,0,1,118,143Z"/><path id="Metal-2" data-name="Metal" class="cls-21" d="M88,141a2,2,0,0,1,2,2v6a2,2,0,0,1-4,0v-6A2,2,0,0,1,88,141Z"/><path id="Metal-3" data-name="Metal" class="cls-21" d="M118,141a2,2,0,0,1,2,2v6a2,2,0,0,1-4,0v-6A2,2,0,0,1,118,141Z"/></g></svg>