<svg id="Server_Down" data-name="Server Down" xmlns="http://www.w3.org/2000/svg" width="218" height="218" viewBox="0 0 218 218"><defs><style>.cls-1{fill:#e6ecf1;}.cls-1,.cls-2,.cls-3,.cls-6,.cls-7,.cls-8,.cls-9{fill-rule:evenodd;}.cls-2{fill:#b7cbd9;}.cls-3,.cls-4{fill:#62788c;}.cls-5,.cls-8{fill:#7d9ab3;}.cls-6{fill:#7db342;}.cls-7{fill:#231f20;opacity:0.15;}.cls-9{fill:#fff;}</style></defs><title>Error-Illustrations</title><g id="Wall_Socket" data-name="Wall Socket"><path id="Wall_Square" data-name="Wall Square" class="cls-1" d="M189,110h25a4,4,0,0,1,4,4v25a4,4,0,0,1-4,4H189a4,4,0,0,1-4-4V114A4,4,0,0,1,189,110Z"/><path id="Circle_With_2_Holes" data-name="Circle With 2 Holes" class="cls-2" d="M201.5,119a7.5,7.5,0,1,1-7.5,7.5A7.5,7.5,0,0,1,201.5,119Z"/><g id="_2_Holes" data-name="2 Holes"><path class="cls-3" d="M198.5,125a1.5,1.5,0,1,0,1.5,1.5A1.5,1.5,0,0,0,198.5,125Zm6,0a1.5,1.5,0,1,0,1.5,1.5A1.5,1.5,0,0,0,204.5,125Z"/></g></g><g id="Cables"><path class="cls-4" d="M182.5,190v-3c5.16,0,6.5-1.34,6.5-6.5,0-2.21-1.48-3.86-3.19-5.77-2.26-2.52-4.81-5.37-4.81-10.23,0-8.33,5-16.45,5.23-16.79l2.54,1.59c0,0.08-4.77,7.75-4.77,15.21,0,3.71,2,5.91,4,8.23,1.94,2.17,4,4.41,4,7.77C192,187.34,189.34,190,182.5,190Z"/><path class="cls-4" d="M182.5,190h-11c-15.37,0-23.15-3.63-30.67-7.15S126.16,176,111.5,176H91.13v-3H111.5c15.33,0,23.09,3.63,30.6,7.14S156.79,187,171.5,187h11v3Z"/><path class="cls-4" d="M182.5,190h-9c-15.84,0-24.2-12.29-32.28-24.18S125.7,143,111.5,143H91.13v-3H111.5c15.79,0,24.13,12.27,32.2,24.14S159.25,187,173.5,187h9v3Z"/><path class="cls-4" d="M182.5,190h-7c-16,0-24.87-20.81-33.41-40.94C133.93,129.86,125.5,110,111.5,110H91.13v-3H111.5c16,0,24.81,20.78,33.35,40.88C153,167.12,161.46,187,175.5,187h7v3Z"/><path class="cls-4" d="M182.5,190h-5c-16.17,0-25.07-28-34.49-57.62C134.34,105.15,125.39,77,111.5,77H91.13V74H111.5c16.08,0,25,27.92,34.36,57.47,8.68,27.3,17.67,55.53,31.64,55.53h5v3Z"/><path class="cls-4" d="M182.5,190h-3c-16.24,0-25.61-36.06-35.53-74.24C134.8,80.48,125.32,44,111.5,44H91.13V41H111.5c16.14,0,25.49,35.95,35.38,74,9.2,35.39,18.71,72,32.62,72h3v3Z"/></g><g id="Plug"><rect id="Pin" class="cls-5" x="188.57" y="134.79" width="6" height="2" transform="translate(-21.81 233.8) rotate(-60)"/><rect id="Pin-2" data-name="Pin" class="cls-5" x="193.77" y="137.79" width="6" height="2" transform="translate(-21.81 239.8) rotate(-60)"/><rect id="Pin_Shadow" data-name="Pin Shadow" class="cls-4" x="189.57" y="136.52" width="2" height="2" transform="translate(-23.8 233.81) rotate(-60)"/><rect id="Pin_Shadow-2" data-name="Pin Shadow" class="cls-4" x="194.77" y="139.52" width="2" height="2" transform="matrix(0.5, -0.87, 0.87, 0.5, -23.81, 239.8)"/><polygon id="Plug-2" data-name="Plug" class="cls-6" points="184.44 150.14 186.07 145.31 184.47 142.08 185.97 139.48 187.47 136.88 197.87 142.88 196.37 145.48 194.87 148.08 191.27 148.31 187.9 152.14 184.44 150.14"/><polygon id="Cord_Stripe" data-name="Cord Stripe" class="cls-7" points="184.76 149.18 185.09 148.21 189.25 150.61 188.57 151.38 184.76 149.18"/><polygon id="Cord_Stripe-2" data-name="Cord Stripe" class="cls-7" points="185.42 147.24 185.75 146.28 190.59 149.08 189.92 149.84 185.42 147.24"/><polygon id="Plug_Shadow" data-name="Plug Shadow" class="cls-7" points="186.17 151.14 188.67 146.81 189.67 145.08 191.17 142.48 192.67 139.88 197.87 142.88 196.37 145.48 194.87 148.08 191.27 148.31 187.9 152.14 186.17 151.14"/></g><g id="Servers"><g id="Server"><path id="Body" class="cls-8" d="M4,158H106a4,4,0,0,1,4,4v24a4,4,0,0,1-4,4H4a4,4,0,0,1-4-4V162A4,4,0,0,1,4,158Z"/><path id="Whote_Circle" data-name="Whote Circle" class="cls-9" d="M93,169a5,5,0,1,1-5,5A5,5,0,0,1,93,169Z"/><path id="Dot" class="cls-3" d="M93,171a3,3,0,1,1-3,3A3,3,0,0,1,93,171Z"/><g id="Grill"><path class="cls-3" d="M9.5,166A1.5,1.5,0,0,0,8,167.5v13a1.5,1.5,0,0,0,3,0v-13A1.5,1.5,0,0,0,9.5,166Zm6,0a1.5,1.5,0,0,0-1.5,1.5v13a1.5,1.5,0,1,0,3,0v-13A1.5,1.5,0,0,0,15.5,166Zm6,0a1.5,1.5,0,0,0-1.5,1.5v13a1.5,1.5,0,1,0,3,0v-13A1.5,1.5,0,0,0,21.5,166Zm6,0a1.5,1.5,0,0,0-1.5,1.5v13a1.5,1.5,0,0,0,3,0v-13A1.5,1.5,0,0,0,27.5,166Zm6,0a1.5,1.5,0,0,0-1.5,1.5v13a1.5,1.5,0,0,0,3,0v-13A1.5,1.5,0,0,0,33.5,166Zm6,0a1.5,1.5,0,0,0-1.5,1.5v13a1.5,1.5,0,1,0,3,0v-13A1.5,1.5,0,0,0,39.5,166Zm6,0a1.5,1.5,0,0,0-1.5,1.5v13a1.5,1.5,0,1,0,3,0v-13A1.5,1.5,0,0,0,45.5,166Zm6,0a1.5,1.5,0,0,0-1.5,1.5v13a1.5,1.5,0,0,0,3,0v-13A1.5,1.5,0,0,0,51.5,166Zm6,0a1.5,1.5,0,0,0-1.5,1.5v13a1.5,1.5,0,1,0,3,0v-13A1.5,1.5,0,0,0,57.5,166Zm6,0a1.5,1.5,0,0,0-1.5,1.5v13a1.5,1.5,0,1,0,3,0v-13A1.5,1.5,0,0,0,63.5,166Zm6,0a1.5,1.5,0,0,0-1.5,1.5v13a1.5,1.5,0,0,0,3,0v-13A1.5,1.5,0,0,0,69.5,166Zm6,0a1.5,1.5,0,0,0-1.5,1.5v13a1.5,1.5,0,1,0,3,0v-13A1.5,1.5,0,0,0,75.5,166Z"/></g></g><g id="Server-2" data-name="Server"><path id="Body-2" data-name="Body" class="cls-8" d="M4,125H106a4,4,0,0,1,4,4v24a4,4,0,0,1-4,4H4a4,4,0,0,1-4-4V129A4,4,0,0,1,4,125Z"/><path id="Whote_Circle-2" data-name="Whote Circle" class="cls-9" d="M93,136a5,5,0,1,1-5,5A5,5,0,0,1,93,136Z"/><path id="Dot-2" data-name="Dot" class="cls-3" d="M93,138a3,3,0,1,1-3,3A3,3,0,0,1,93,138Z"/><g id="Grill-2" data-name="Grill"><path class="cls-3" d="M9.5,133A1.5,1.5,0,0,0,8,134.5v13a1.5,1.5,0,0,0,3,0v-13A1.5,1.5,0,0,0,9.5,133Zm6,0a1.5,1.5,0,0,0-1.5,1.5v13a1.5,1.5,0,1,0,3,0v-13A1.5,1.5,0,0,0,15.5,133Zm6,0a1.5,1.5,0,0,0-1.5,1.5v13a1.5,1.5,0,1,0,3,0v-13A1.5,1.5,0,0,0,21.5,133Zm6,0a1.5,1.5,0,0,0-1.5,1.5v13a1.5,1.5,0,0,0,3,0v-13A1.5,1.5,0,0,0,27.5,133Zm6,0a1.5,1.5,0,0,0-1.5,1.5v13a1.5,1.5,0,0,0,3,0v-13A1.5,1.5,0,0,0,33.5,133Zm6,0a1.5,1.5,0,0,0-1.5,1.5v13a1.5,1.5,0,1,0,3,0v-13A1.5,1.5,0,0,0,39.5,133Zm6,0a1.5,1.5,0,0,0-1.5,1.5v13a1.5,1.5,0,1,0,3,0v-13A1.5,1.5,0,0,0,45.5,133Zm6,0a1.5,1.5,0,0,0-1.5,1.5v13a1.5,1.5,0,0,0,3,0v-13A1.5,1.5,0,0,0,51.5,133Zm6,0a1.5,1.5,0,0,0-1.5,1.5v13a1.5,1.5,0,1,0,3,0v-13A1.5,1.5,0,0,0,57.5,133Zm6,0a1.5,1.5,0,0,0-1.5,1.5v13a1.5,1.5,0,1,0,3,0v-13A1.5,1.5,0,0,0,63.5,133Zm6,0a1.5,1.5,0,0,0-1.5,1.5v13a1.5,1.5,0,0,0,3,0v-13A1.5,1.5,0,0,0,69.5,133Zm6,0a1.5,1.5,0,0,0-1.5,1.5v13a1.5,1.5,0,1,0,3,0v-13A1.5,1.5,0,0,0,75.5,133Z"/></g></g><g id="Server-3" data-name="Server"><path id="Body-3" data-name="Body" class="cls-8" d="M4,92H106a4,4,0,0,1,4,4v24a4,4,0,0,1-4,4H4a4,4,0,0,1-4-4V96A4,4,0,0,1,4,92Z"/><path id="Whote_Circle-3" data-name="Whote Circle" class="cls-9" d="M93,103a5,5,0,1,1-5,5A5,5,0,0,1,93,103Z"/><path id="Dot-3" data-name="Dot" class="cls-3" d="M93,105a3,3,0,1,1-3,3A3,3,0,0,1,93,105Z"/><g id="Grill-3" data-name="Grill"><path class="cls-3" d="M9.5,100A1.5,1.5,0,0,0,8,101.5v13a1.5,1.5,0,0,0,3,0v-13A1.5,1.5,0,0,0,9.5,100Zm6,0a1.5,1.5,0,0,0-1.5,1.5v13a1.5,1.5,0,1,0,3,0v-13A1.5,1.5,0,0,0,15.5,100Zm6,0a1.5,1.5,0,0,0-1.5,1.5v13a1.5,1.5,0,1,0,3,0v-13A1.5,1.5,0,0,0,21.5,100Zm6,0a1.5,1.5,0,0,0-1.5,1.5v13a1.5,1.5,0,0,0,3,0v-13A1.5,1.5,0,0,0,27.5,100Zm6,0a1.5,1.5,0,0,0-1.5,1.5v13a1.5,1.5,0,0,0,3,0v-13A1.5,1.5,0,0,0,33.5,100Zm6,0a1.5,1.5,0,0,0-1.5,1.5v13a1.5,1.5,0,1,0,3,0v-13A1.5,1.5,0,0,0,39.5,100Zm6,0a1.5,1.5,0,0,0-1.5,1.5v13a1.5,1.5,0,1,0,3,0v-13A1.5,1.5,0,0,0,45.5,100Zm6,0a1.5,1.5,0,0,0-1.5,1.5v13a1.5,1.5,0,0,0,3,0v-13A1.5,1.5,0,0,0,51.5,100Zm6,0a1.5,1.5,0,0,0-1.5,1.5v13a1.5,1.5,0,1,0,3,0v-13A1.5,1.5,0,0,0,57.5,100Zm6,0a1.5,1.5,0,0,0-1.5,1.5v13a1.5,1.5,0,1,0,3,0v-13A1.5,1.5,0,0,0,63.5,100Zm6,0a1.5,1.5,0,0,0-1.5,1.5v13a1.5,1.5,0,0,0,3,0v-13A1.5,1.5,0,0,0,69.5,100Zm6,0a1.5,1.5,0,0,0-1.5,1.5v13a1.5,1.5,0,1,0,3,0v-13A1.5,1.5,0,0,0,75.5,100Z"/></g></g><g id="Server-4" data-name="Server"><path id="Body-4" data-name="Body" class="cls-8" d="M4,59H106a4,4,0,0,1,4,4V87a4,4,0,0,1-4,4H4a4,4,0,0,1-4-4V63A4,4,0,0,1,4,59Z"/><path id="Whote_Circle-4" data-name="Whote Circle" class="cls-9" d="M93,70a5,5,0,1,1-5,5A5,5,0,0,1,93,70Z"/><path id="Dot-4" data-name="Dot" class="cls-3" d="M93,72a3,3,0,1,1-3,3A3,3,0,0,1,93,72Z"/><g id="Grill-4" data-name="Grill"><path class="cls-3" d="M9.5,67A1.5,1.5,0,0,0,8,68.5v13a1.5,1.5,0,0,0,3,0v-13A1.5,1.5,0,0,0,9.5,67Zm6,0A1.5,1.5,0,0,0,14,68.5v13a1.5,1.5,0,1,0,3,0v-13A1.5,1.5,0,0,0,15.5,67Zm6,0A1.5,1.5,0,0,0,20,68.5v13a1.5,1.5,0,1,0,3,0v-13A1.5,1.5,0,0,0,21.5,67Zm6,0A1.5,1.5,0,0,0,26,68.5v13a1.5,1.5,0,0,0,3,0v-13A1.5,1.5,0,0,0,27.5,67Zm6,0A1.5,1.5,0,0,0,32,68.5v13a1.5,1.5,0,0,0,3,0v-13A1.5,1.5,0,0,0,33.5,67Zm6,0A1.5,1.5,0,0,0,38,68.5v13a1.5,1.5,0,1,0,3,0v-13A1.5,1.5,0,0,0,39.5,67Zm6,0A1.5,1.5,0,0,0,44,68.5v13a1.5,1.5,0,1,0,3,0v-13A1.5,1.5,0,0,0,45.5,67Zm6,0A1.5,1.5,0,0,0,50,68.5v13a1.5,1.5,0,0,0,3,0v-13A1.5,1.5,0,0,0,51.5,67Zm6,0A1.5,1.5,0,0,0,56,68.5v13a1.5,1.5,0,1,0,3,0v-13A1.5,1.5,0,0,0,57.5,67Zm6,0A1.5,1.5,0,0,0,62,68.5v13a1.5,1.5,0,1,0,3,0v-13A1.5,1.5,0,0,0,63.5,67Zm6,0A1.5,1.5,0,0,0,68,68.5v13a1.5,1.5,0,0,0,3,0v-13A1.5,1.5,0,0,0,69.5,67Zm6,0A1.5,1.5,0,0,0,74,68.5v13a1.5,1.5,0,1,0,3,0v-13A1.5,1.5,0,0,0,75.5,67Z"/></g></g><g id="Server-5" data-name="Server"><path id="Body-5" data-name="Body" class="cls-8" d="M4,26H106a4,4,0,0,1,4,4V54a4,4,0,0,1-4,4H4a4,4,0,0,1-4-4V30A4,4,0,0,1,4,26Z"/><path id="Whote_Circle-5" data-name="Whote Circle" class="cls-9" d="M93,37a5,5,0,1,1-5,5A5,5,0,0,1,93,37Z"/><path id="Dot-5" data-name="Dot" class="cls-3" d="M93,39a3,3,0,1,1-3,3A3,3,0,0,1,93,39Z"/><path class="cls-3" d="M9.5,34A1.5,1.5,0,0,0,8,35.5v13a1.5,1.5,0,0,0,3,0v-13A1.5,1.5,0,0,0,9.5,34Zm6,0A1.5,1.5,0,0,0,14,35.5v13a1.5,1.5,0,1,0,3,0v-13A1.5,1.5,0,0,0,15.5,34Zm6,0A1.5,1.5,0,0,0,20,35.5v13a1.5,1.5,0,1,0,3,0v-13A1.5,1.5,0,0,0,21.5,34Zm6,0A1.5,1.5,0,0,0,26,35.5v13a1.5,1.5,0,0,0,3,0v-13A1.5,1.5,0,0,0,27.5,34Zm6,0A1.5,1.5,0,0,0,32,35.5v13a1.5,1.5,0,0,0,3,0v-13A1.5,1.5,0,0,0,33.5,34Zm6,0A1.5,1.5,0,0,0,38,35.5v13a1.5,1.5,0,1,0,3,0v-13A1.5,1.5,0,0,0,39.5,34Zm6,0A1.5,1.5,0,0,0,44,35.5v13a1.5,1.5,0,1,0,3,0v-13A1.5,1.5,0,0,0,45.5,34Zm6,0A1.5,1.5,0,0,0,50,35.5v13a1.5,1.5,0,0,0,3,0v-13A1.5,1.5,0,0,0,51.5,34Zm6,0A1.5,1.5,0,0,0,56,35.5v13a1.5,1.5,0,1,0,3,0v-13A1.5,1.5,0,0,0,57.5,34Zm6,0A1.5,1.5,0,0,0,62,35.5v13a1.5,1.5,0,1,0,3,0v-13A1.5,1.5,0,0,0,63.5,34Zm6,0A1.5,1.5,0,0,0,68,35.5v13a1.5,1.5,0,0,0,3,0v-13A1.5,1.5,0,0,0,69.5,34Zm6,0A1.5,1.5,0,0,0,74,35.5v13a1.5,1.5,0,1,0,3,0v-13A1.5,1.5,0,0,0,75.5,34Z"/></g></g></svg>