<?xml version="1.0" encoding="UTF-8"?>
<svg width="13px" height="650px" viewBox="0 0 13 650" version="1.1" xmlns="http://www.w3.org/2000/svg" xmlns:xlink="http://www.w3.org/1999/xlink">
    <!-- Generator: Sketch 52.5 (67469) - http://www.bohemiancoding.com/sketch -->
    <title>wizard-after-backgrounds</title>
    <desc>Created with Sketch.</desc>
    <defs>
        <linearGradient x1="50%" y1="8.22189833%" x2="50%" y2="76.9254679%" id="linearGradient-1">
            <stop stop-color="#576D7A" offset="0%"></stop>
            <stop stop-color="#485E6B" offset="100%"></stop>
        </linearGradient>
        <linearGradient x1="50%" y1="4.82687883%" x2="50%" y2="100%" id="linearGradient-2">
            <stop stop-color="#000000" offset="0%"></stop>
            <stop stop-color="#000000" stop-opacity="0" offset="100%"></stop>
        </linearGradient>
        <rect id="path-3" x="0" y="0" width="102" height="1"></rect>
        <rect id="path-5" x="-4" y="-47" width="123" height="46"></rect>
        <filter x="-1.6%" y="-2.2%" width="103.3%" height="108.7%" filterUnits="objectBoundingBox" id="filter-6">
            <feOffset dx="0" dy="1" in="SourceAlpha" result="shadowOffsetOuter1"></feOffset>
            <feGaussianBlur stdDeviation="0.5" in="shadowOffsetOuter1" result="shadowBlurOuter1"></feGaussianBlur>
            <feColorMatrix values="0 0 0 0 0   0 0 0 0 0   0 0 0 0 0  0 0 0 0.5 0" type="matrix" in="shadowBlurOuter1"></feColorMatrix>
        </filter>
        <linearGradient x1="50%" y1="10%" x2="50%" y2="72.1233743%" id="linearGradient-7">
            <stop stop-color="#E8F6FF" offset="0%"></stop>
            <stop stop-color="#DAE7EF" offset="100%"></stop>
        </linearGradient>
        <linearGradient x1="50%" y1="0%" x2="50%" y2="100%" id="linearGradient-8">
            <stop stop-color="#569400" offset="0%"></stop>
            <stop stop-color="#487C00" offset="55%"></stop>
            <stop stop-color="#477A00" offset="100%"></stop>
        </linearGradient>
        <linearGradient x1="50%" y1="0%" x2="50%" y2="100%" id="linearGradient-9">
            <stop stop-color="#D9D9D9" offset="0%"></stop>
            <stop stop-color="#E0E0E0" offset="100%"></stop>
        </linearGradient>
        <linearGradient x1="50%" y1="4.82687883%" x2="50%" y2="100%" id="linearGradient-10">
            <stop stop-color="#000000" offset="0%"></stop>
            <stop stop-color="#000000" stop-opacity="0" offset="97.3830383%"></stop>
        </linearGradient>
        <rect id="path-11" x="0" y="0" width="102" height="1"></rect>
        <rect id="path-13" x="-4" y="-47" width="123" height="46"></rect>
        <filter x="-1.6%" y="-2.2%" width="103.3%" height="108.7%" filterUnits="objectBoundingBox" id="filter-14">
            <feOffset dx="0" dy="1" in="SourceAlpha" result="shadowOffsetOuter1"></feOffset>
            <feGaussianBlur stdDeviation="0.5" in="shadowOffsetOuter1" result="shadowBlurOuter1"></feGaussianBlur>
            <feColorMatrix values="0 0 0 0 0   0 0 0 0 0   0 0 0 0 0  0 0 0 0.5 0" type="matrix" in="shadowBlurOuter1"></feColorMatrix>
        </filter>
        <linearGradient x1="50%" y1="10%" x2="50%" y2="73.2704118%" id="linearGradient-15">
            <stop stop-color="#FFFFFF" offset="0%"></stop>
            <stop stop-color="#F0F0F0" offset="100%"></stop>
        </linearGradient>
        <linearGradient x1="50%" y1="4.82687883%" x2="50%" y2="100%" id="linearGradient-16">
            <stop stop-color="#226600" offset="0%"></stop>
            <stop stop-color="#226600" stop-opacity="0" offset="100%"></stop>
        </linearGradient>
        <linearGradient x1="50%" y1="0%" x2="50%" y2="100%" id="linearGradient-17">
            <stop stop-color="#CCCCCC" offset="0%"></stop>
            <stop stop-color="#D1D1D1" offset="100%"></stop>
        </linearGradient>
        <polygon id="path-18" points="0.42 0 101.42 0 101 1 101 2 0 2 0 1"></polygon>
        <rect id="path-20" x="-4" y="-46" width="123" height="46"></rect>
        <filter x="-1.6%" y="-2.2%" width="103.3%" height="108.7%" filterUnits="objectBoundingBox" id="filter-21">
            <feOffset dx="0" dy="1" in="SourceAlpha" result="shadowOffsetOuter1"></feOffset>
            <feGaussianBlur stdDeviation="0.5" in="shadowOffsetOuter1" result="shadowBlurOuter1"></feGaussianBlur>
            <feColorMatrix values="0 0 0 0 0   0 0 0 0 0   0 0 0 0 0  0 0 0 0.25 0" type="matrix" in="shadowBlurOuter1"></feColorMatrix>
        </filter>
        <polygon id="path-22" points="0.42 0 101.42 0 101 1 101 2 0 2 0 1"></polygon>
        <rect id="path-24" x="-4" y="-46" width="123" height="46"></rect>
        <filter x="-1.6%" y="-2.2%" width="103.3%" height="108.7%" filterUnits="objectBoundingBox" id="filter-25">
            <feOffset dx="0" dy="1" in="SourceAlpha" result="shadowOffsetOuter1"></feOffset>
            <feGaussianBlur stdDeviation="0.5" in="shadowOffsetOuter1" result="shadowBlurOuter1"></feGaussianBlur>
            <feColorMatrix values="0 0 0 0 0   0 0 0 0 0   0 0 0 0 0  0 0 0 0.25 0" type="matrix" in="shadowBlurOuter1"></feColorMatrix>
        </filter>
    </defs>
    <g id="Page-1" stroke="none" stroke-width="1" fill="none" fill-rule="evenodd">
        <g id="Wizard" transform="translate(-351.000000, -39.000000)">
            <g id="Group" transform="translate(252.000000, 40.000000)">
                <g id="-1px">
                    <g id="Disabled" transform="translate(0.000000, 600.000000)" fill="#D7D7D7">
                        <polygon id="Body" points="0 0 102 0 112 24 102 48 0 48 10 24"></polygon>
                    </g>
                    <g id="Visited" transform="translate(0.000000, 540.000000)">
                        <polygon id="Shadow" fill-opacity="0.4" fill="#FFFFFF" points="0 48 102 48 102 49 0 49"></polygon>
                        <polygon id="Body" fill="url(#linearGradient-1)" points="0 0 102 0 112 24 102 48 0 48 10 24"></polygon>
                        <polygon id="Inner-Shadow" fill-opacity="0.15" fill="url(#linearGradient-2)" points="0 0 102 0 103.25 3 1.25 3"></polygon>
                        <path d="M0,0 L102,0 L112,24 L102,48 L0,48 L10,24 L0,0 Z M1.5,1 L11,24 L1.5,47 L101.5,47 L111,24 L101.5,1 L1.5,1 Z" id="Inner-Darker" fill-opacity="0.15" fill="#000000"></path>
                    </g>
                    <g id="Mouseover-Focused" transform="translate(0.000000, 480.000000)">
                        <g id="Shadow" transform="translate(0.000000, 48.000000)">
                            <mask id="mask-4" fill="white">
                                <use xlink:href="#path-3"></use>
                            </mask>
                            <g id="Mask"></g>
                            <g mask="url(#mask-4)" fill="black" fill-opacity="1">
                                <use filter="url(#filter-6)" xlink:href="#path-5"></use>
                            </g>
                        </g>
                        <polygon id="Body" fill="url(#linearGradient-7)" points="1 1 101 1 111 24 101 47 1 47 11 24"></polygon>
                        <path d="M3,2 L101,2 L110,24 L101,46 L3,46 L12,24 L3,2 Z M4.5,3 L13,24 L4.5,45 L100.5,45 L109,24 L100.5,3 L4.5,3 Z" id="Lighter" fill-opacity="0.25" fill="#FFFFFF"></path>
                        <path d="M0,0 L102,0 L112,24 L102,48 L0,48 L10,24 L0,0 Z M3,2 L12,24 L3,46 L101,46 L110,24 L101,2 L3,2 Z" id="Blue" fill="#0089D9"></path>
                    </g>
                    <g id="Selected-Focused-(Primary)" transform="translate(0.000000, 419.000000)">
                        <polygon id="Body" fill="url(#linearGradient-8)" points="2 1 100.5 1 110 25 100.5 49 2 49 11.5 25"></polygon>
                        <path d="M4.97379915e-14,0 L102,0 L112,25 L102,50 L4.97379915e-14,50 L10,25 L4.97379915e-14,0 Z M5.5,4 L14,25 L5.5,46 L100,46 L108,25 L100,4 L5.5,4 Z" id="Darker" fill-opacity="0.15" fill="#000000"></path>
                        <path d="M1.5,1 L101.5,1 L111,25 L101.5,49 L1.5,49 L11,25 L1.5,1 Z M4.5,3 L13,25 L4.5,47 L100.5,47 L109,25 L100.5,3 L4.5,3 Z" id="White" fill="#FFFFFF"></path>
                    </g>
                    <g id="Selected-Focused" transform="translate(0.000000, 360.000000)">
                        <rect id="Shadow" fill-opacity="0.4" fill="#FFFFFF" x="0" y="48" width="102" height="1"></rect>
                        <polygon id="Body" fill="url(#linearGradient-9)" points="1 1 101 1 111 24 101 47 1 47 11 24"></polygon>
                        <polygon id="Inner-Shadow" fill-opacity="0.19" fill="url(#linearGradient-10)" points="1.5 1 101.5 1 103 4 3 4"></polygon>
                        <path d="M0,0 L102,0 L112,24 L102,48 L0,48 L10,24 L0,0 Z M3,2 L12,24 L3,46 L101,46 L110,24 L101,2 L3,2 Z" id="Blue" fill="#0089D9"></path>
                    </g>
                    <g id="Normal-Focused" transform="translate(0.000000, 300.000000)">
                        <g id="Shadow" transform="translate(0.000000, 48.000000)">
                            <mask id="mask-12" fill="white">
                                <use xlink:href="#path-11"></use>
                            </mask>
                            <g id="Mask"></g>
                            <g mask="url(#mask-12)" fill="black" fill-opacity="1">
                                <use filter="url(#filter-14)" xlink:href="#path-13"></use>
                            </g>
                        </g>
                        <polygon id="Body" fill="url(#linearGradient-15)" points="1 1 101 1 111 24 101 47 1 47 11 24"></polygon>
                        <path d="M3,2 L101,2 L110,24 L101,46 L3,46 L12,24 L3,2 Z M4.5,3 L13,24 L4.5,45 L100.5,45 L109,24 L100.5,3 L4.5,3 Z" id="Lighter" fill-opacity="0.5" fill="#FFFFFF"></path>
                        <path d="M0,0 L102,0 L112,24 L102,48 L0,48 L10,24 L0,0 Z M3,2 L12,24 L3,46 L101,46 L110,24 L101,2 L3,2 Z" id="Blue" fill="#0089D9"></path>
                    </g>
                    <g id="Selected-(Primary)" transform="translate(0.000000, 240.000000)">
                        <polygon id="Shadow" fill-opacity="0.4" fill="#FFFFFF" points="0 48 102 48 102 49 0 49"></polygon>
                        <polygon id="Body" fill="url(#linearGradient-8)" points="0 0 102 0 112 24 102 48 0 48 10 24"></polygon>
                        <polygon id="Inner-Shadow" fill-opacity="0.29" fill="url(#linearGradient-16)" points="0 0 102 0 103.25 3 1.25 3"></polygon>
                        <path d="M0,0 L102,0 L112,24 L102,48 L0,48 L10,24 L0,0 Z M1.5,1 L11,24 L1.5,47 L101.5,47 L111,24 L101.5,1 L1.5,1 Z" id="Inner-Darker" fill-opacity="0.15" fill="#000000"></path>
                    </g>
                    <g id="Selected" transform="translate(0.000000, 180.000000)">
                        <polygon id="Shadow" fill-opacity="0.4" fill="#FFFFFF" points="0 48 102 48 102 49 0 49"></polygon>
                        <polygon id="Body" fill="url(#linearGradient-9)" points="0 0 102 0 112 24 102 48 0 48 10 24"></polygon>
                        <polygon id="Inner-Shadow" fill-opacity="0.19" fill="url(#linearGradient-10)" points="0 0 102 0 103.25 3 1.25 3"></polygon>
                        <path d="M0,0 L102,0 L112,24 L102,48 L0,48 L10,24 L0,0 Z M1.5,1 L11,24 L1.5,47 L101.5,47 L111,24 L101.5,1 L1.5,1 Z" id="Inner-Darker" fill-opacity="0.05" fill="#000000"></path>
                    </g>
                    <g id="Pressed" transform="translate(0.000000, 120.000000)">
                        <polygon id="Shadow" fill-opacity="0.4" fill="#FFFFFF" points="0 48 102 48 102 49 0 49"></polygon>
                        <polygon id="Body" fill="url(#linearGradient-17)" points="0 0 102 0 112 24 102 48 0 48 10 24"></polygon>
                        <polygon id="Inner-Shadow" fill-opacity="0.19" fill="url(#linearGradient-10)" points="0 0 102 0 103.25 3 1.25 3"></polygon>
                        <path d="M0,0 L102,0 L112,24 L102,48 L0,48 L10,24 L0,0 Z M1.5,1 L11,24 L1.5,47 L101.5,47 L111,24 L101.5,1 L1.5,1 Z" id="Inner-Darker" fill-opacity="0.05" fill="#000000"></path>
                    </g>
                    <g id="Mouseover" transform="translate(0.000000, 60.000000)">
                        <g id="Shadow" transform="translate(0.000000, 47.000000)">
                            <mask id="mask-19" fill="white">
                                <use xlink:href="#path-18"></use>
                            </mask>
                            <g id="Mask"></g>
                            <g mask="url(#mask-19)" fill="black" fill-opacity="1">
                                <use filter="url(#filter-21)" xlink:href="#path-20"></use>
                            </g>
                        </g>
                        <polygon id="Bottom" fill-opacity="0.12" fill="#000000" points="0.42 47 101.42 47 101 48 -5.68434189e-14 48"></polygon>
                        <polygon id="Top" fill-opacity="0.12" fill="#000000" points="-8.68749517e-14 2.19824159e-14 101 0 101.42 1 0.415 1"></polygon>
                        <polygon id="Body" fill="url(#linearGradient-7)" points="0.42 1 102.42 1 112 24 102.42 47 0.42 47 10 24"></polygon>
                        <path d="M0.42,1 L102.42,1 L111,24 L102.42,47 L0.42,47 L11,24 L0.42,1 Z M1.92,2 L12,24 L1.92,46 L101.92,46 L110,24 L101.92,2 L1.92,2 Z" id="Lighter" fill-opacity="0.25" fill="#FFFFFF"></path>
                        <polygon id="Right" fill="#A9A9A9" points="111 24 102.415 1 112 24 102.42 47"></polygon>
                    </g>
                    <g id="Normal">
                        <g id="Shadow" transform="translate(0.000000, 47.000000)">
                            <mask id="mask-23" fill="white">
                                <use xlink:href="#path-22"></use>
                            </mask>
                            <g id="Mask"></g>
                            <g mask="url(#mask-23)" fill="black" fill-opacity="1">
                                <use filter="url(#filter-25)" xlink:href="#path-24"></use>
                            </g>
                        </g>
                        <polygon id="Bottom" fill-opacity="0.12" fill="#000000" points="0.42 47 101.42 47 101 48 -5.68434189e-14 48"></polygon>
                        <polygon id="Top" fill-opacity="0.12" fill="#000000" points="-8.68749517e-14 2.19824159e-14 101 0 101.42 1 0.415 1"></polygon>
                        <polygon id="Body" fill="url(#linearGradient-15)" points="0.42 1 102.42 1 112 24 102.42 47 0.42 47 10 24"></polygon>
                        <path d="M0.42,1 L102.42,1 L111,24 L102.42,47 L0.42,47 L11,24 L0.42,1 Z M1.92,2 L12,24 L1.92,46 L101.92,46 L110,24 L101.92,2 L1.92,2 Z" id="Lighter" fill-opacity="0.5" fill="#FFFFFF"></path>
                        <polygon id="Right" fill="#A9A9A9" points="111 24 102.415 1 112 24 102.42 47"></polygon>
                    </g>
                </g>
            </g>
        </g>
    </g>
</svg>