<svg id="Export" xmlns="http://www.w3.org/2000/svg" width="100" height="16" viewBox="0 0 100 16"><defs><style>.cls-1{fill:#737373;}.cls-1,.cls-2,.cls-3,.cls-4,.cls-5{fill-rule:evenodd;}.cls-2{fill:#fff;}.cls-3{fill:#0089d9;}.cls-4{fill:#c8c8c8;}.cls-5{fill:#39a6e6;}</style></defs><title>16_export</title><path class="cls-1" d="M99.86,0.15A0.5,0.5,0,0,0,99.49,0h-4a0.5,0.5,0,1,0,0,1h2.79L90,9.34a0.5,0.5,0,1,0,.71.71L99,1.71V4.5a0.5,0.5,0,0,0,1,0v-4A0.5,0.5,0,0,0,99.86.15ZM97.5,7a0.5,0.5,0,0,0-.5.5V15H85V3h7.5a0.5,0.5,0,1,0,0-1h-8a0.5,0.5,0,0,0-.5.5v13a0.5,0.5,0,0,0,.5.5h13a0.5,0.5,0,0,0,.5-0.5v-8A0.5,0.5,0,0,0,97.5,7Z"/><path class="cls-2" d="M78.86,0.15A0.5,0.5,0,0,0,78.49,0h-4a0.5,0.5,0,1,0,0,1h2.79L69,9.34a0.5,0.5,0,1,0,.71.71L78,1.71V4.5a0.5,0.5,0,0,0,1,0v-4A0.5,0.5,0,0,0,78.86.15ZM76.5,7a0.5,0.5,0,0,0-.5.5V15H64V3h7.5a0.5,0.5,0,1,0,0-1h-8a0.5,0.5,0,0,0-.5.5v13a0.5,0.5,0,0,0,.5.5h13a0.5,0.5,0,0,0,.5-0.5v-8A0.5,0.5,0,0,0,76.5,7Z"/><path class="cls-3" d="M15.86,0.14A0.5,0.5,0,0,0,15.49,0h-4a0.5,0.5,0,1,0,0,1h2.79L6,9.34a0.5,0.5,0,0,0,.71.71L15,1.71V4.5a0.5,0.5,0,1,0,1,0v-4A0.5,0.5,0,0,0,15.86.14ZM13.5,7a0.5,0.5,0,0,0-.5.5V15H1V3H8.5a0.5,0.5,0,1,0,0-1h-8a0.5,0.5,0,0,0-.5.5v13a0.5,0.5,0,0,0,.5.5h13a0.5,0.5,0,0,0,.5-0.5v-8A0.5,0.5,0,0,0,13.5,7Z"/><path class="cls-4" d="M36.85,0.14A0.5,0.5,0,0,0,36.49,0h-4a0.5,0.5,0,1,0,0,1h2.79L27,9.34a0.5,0.5,0,0,0,.71.71L36,1.71V4.5a0.5,0.5,0,1,0,1,0v-4A0.5,0.5,0,0,0,36.85.14ZM34.5,7a0.5,0.5,0,0,0-.5.5V15H22V3h7.5a0.5,0.5,0,1,0,0-1h-8a0.5,0.5,0,0,0-.5.5v13a0.5,0.5,0,0,0,.5.5h13a0.5,0.5,0,0,0,.5-0.5v-8A0.5,0.5,0,0,0,34.5,7Z"/><path class="cls-5" d="M57.86,0.14A0.5,0.5,0,0,0,57.49,0h-4a0.5,0.5,0,1,0,0,1h2.79L48,9.34a0.5,0.5,0,0,0,.71.71L57,1.71V4.5a0.5,0.5,0,1,0,1,0v-4A0.5,0.5,0,0,0,57.86.14ZM55.5,7a0.5,0.5,0,0,0-.5.5V15H43V3h7.5a0.5,0.5,0,1,0,0-1h-8a0.5,0.5,0,0,0-.5.5v13a0.5,0.5,0,0,0,.5.5h13a0.5,0.5,0,0,0,.5-0.5v-8A0.5,0.5,0,0,0,55.5,7Z"/></svg>