<svg xmlns="http://www.w3.org/2000/svg" width="99.92" height="16" viewBox="0 0 99.92 16"><defs><style>.cls-1{fill:#0089d9;}.cls-1,.cls-2,.cls-3,.cls-4,.cls-5{fill-rule:evenodd;}.cls-2{fill:#c8c8c8;}.cls-3{fill:#39a6e6;}.cls-4{fill:#fff;}.cls-5{fill:#737373;}</style></defs><title>favourite</title><g id="Favourite"><path class="cls-1" d="M15.68,6.59a.83.83,0,0,0-.47-1.44c-.08,0-4.56-.39-4.62-.43S8.77.56,8.74.49A.81.81,0,0,0,8,0a.83.83,0,0,0-.77.49c0,.07-1.77,4.18-1.84,4.23S.83,5.14.75,5.15A.83.83,0,0,0,.28,6.59c.06,0,3.46,3,3.48,3.05s-1,4.41-1,4.49A.83.83,0,0,0,4,15c.07,0,3.92-2.34,4-2.34S11.91,15,12,15a.83.83,0,0,0,1.23-.89c0-.08-1-4.42-1-4.49S15.62,6.64,15.68,6.59ZM12,13.78c-3.66-2.22-3.78-2.22-4-2.22s-.4,0-4.05,2.22c1-4.17,1-4.18.87-4.51s-.12-.36-3.36-3.12C5.68,5.82,5.81,5.73,6,5.58s.33-.33,2-4.33v.18c1.66,3.93,1.72,4,2,4.16s.33.23,4.56.56C11.28,8.91,11.25,9,11.16,9.28S11.05,9.6,12,13.78ZM5.11,7.24a.34.34,0,0,0-.48,0,.35.35,0,0,0,0,.47l1,.94a.33.33,0,0,0,.47-.47Z"/><path class="cls-2" d="M36.68,6.59a.83.83,0,0,0-.47-1.44c-.08,0-4.56-.39-4.62-.43S29.77.56,29.74.49A.81.81,0,0,0,29,0a.83.83,0,0,0-.77.49c0,.07-1.77,4.18-1.84,4.23s-4.54.42-4.62.43a.83.83,0,0,0-.47,1.44c.06,0,3.46,3,3.48,3.05s-1,4.41-1,4.49A.83.83,0,0,0,25,15c.07,0,3.92-2.34,4-2.34S32.91,15,33,15a.83.83,0,0,0,1.23-.89c0-.08-1-4.42-1-4.49S36.62,6.64,36.68,6.59ZM33,13.78c-3.66-2.22-3.78-2.22-4.05-2.22s-.4,0-4.05,2.22c1-4.17,1-4.18.87-4.51s-.12-.36-3.36-3.12c4.24-.33,4.37-.42,4.57-.57s.33-.33,2-4.33v.18c1.66,3.93,1.72,4,2,4.16s.33.23,4.56.56C32.28,8.91,32.25,9,32.16,9.28S32.05,9.6,33,13.78ZM26.11,7.24a.33.33,0,1,0-.47.47l.94.94a.33.33,0,0,0,.47-.47Z"/><path class="cls-3" d="M57.72,6.59a.83.83,0,0,0-.47-1.44c-.08,0-4.56-.39-4.62-.43S50.82.56,50.78.49a.83.83,0,0,0-1.52,0c0,.07-1.78,4.18-1.85,4.23s-4.54.42-4.62.43a.83.83,0,0,0-.47,1.44c.06,0,3.46,3,3.48,3.05s-1,4.41-1,4.49A.83.83,0,0,0,46,15c.07,0,3.92-2.34,4-2.34S54,15,54,15a.83.83,0,0,0,1.23-.89c0-.08-1-4.42-1-4.49S57.66,6.64,57.72,6.59Zm-3.65,7.19c-3.65-2.22-3.78-2.22-4-2.22s-.39,0-4.05,2.22c1-4.17,1-4.18.87-4.51s-.12-.36-3.35-3.12c4.23-.33,4.36-.42,4.57-.57s.32-.33,2-4.33v.18c1.66,3.93,1.72,4,2,4.16s.34.23,4.57.56C53.32,8.91,53.29,9,53.2,9.28S53.09,9.6,54.07,13.78ZM47.15,7.24a.33.33,0,1,0-.47.47l.94.94a.33.33,0,1,0,.47-.47Z"/><path class="cls-4" d="M78.72,6.59a.83.83,0,0,0-.47-1.44c-.08,0-4.56-.39-4.62-.43S71.82.56,71.78.49a.83.83,0,0,0-1.52,0c0,.07-1.78,4.18-1.85,4.23s-4.54.42-4.62.43a.83.83,0,0,0-.47,1.44c.06,0,3.46,3,3.48,3.05s-1,4.41-1,4.49A.83.83,0,0,0,67,15c.07,0,3.92-2.34,4-2.34S75,15,75,15a.83.83,0,0,0,1.23-.89c0-.08-1-4.42-1-4.49S78.66,6.64,78.72,6.59Zm-3.65,7.19c-3.65-2.22-3.78-2.22-4-2.22s-.39,0-4,2.22c1-4.17,1-4.18.87-4.51s-.12-.36-3.35-3.12c4.23-.33,4.36-.42,4.57-.57s.32-.33,2-4.33v.18c1.66,3.93,1.72,4,2,4.16s.34.23,4.57.56C74.32,8.91,74.29,9,74.2,9.28S74.09,9.6,75.07,13.78ZM68.15,7.24a.33.33,0,1,0-.47.47l.94.94a.33.33,0,0,0,.47-.47Z"/><path class="cls-5" d="M99.68,6.59a.83.83,0,0,0-.47-1.44c-.08,0-4.56-.39-4.62-.43S92.77.56,92.74.49A.81.81,0,0,0,92,0a.83.83,0,0,0-.77.49c0,.07-1.77,4.18-1.84,4.23s-4.54.42-4.62.43a.83.83,0,0,0-.47,1.44c.06,0,3.46,3,3.48,3.05s-1,4.41-1,4.49A.83.83,0,0,0,88,15c.07,0,3.92-2.34,4-2.34S95.91,15,96,15a.83.83,0,0,0,1.23-.89c0-.08-1-4.42-1-4.49S99.62,6.64,99.68,6.59ZM96,13.78c-3.66-2.22-3.78-2.22-4-2.22s-.4,0-4,2.22c1-4.17,1-4.18.87-4.51s-.12-.36-3.36-3.12c4.24-.33,4.37-.42,4.57-.57s.33-.33,2-4.33v.18c1.66,3.93,1.72,4,2,4.16s.33.23,4.56.56C95.28,8.91,95.25,9,95.16,9.28S95.05,9.6,96,13.78ZM89.11,7.24a.33.33,0,1,0-.47.47l.94.94a.33.33,0,0,0,.47-.47Z"/></g></svg>