<svg xmlns="http://www.w3.org/2000/svg" width="140" height="24" viewBox="0 0 140 24"><defs><style>.cls-1{fill:#0089d9;}.cls-1,.cls-2,.cls-3,.cls-4,.cls-5{fill-rule:evenodd;}.cls-2{fill:#d7d7d7;}.cls-3{fill:#39a6e6;}.cls-4{fill:#fff;}.cls-5{fill:#737373;}</style></defs><title>24</title><g id="Copy"><path class="cls-1" d="M16,3H13L10,0H0V21H6v3H23V10Zm1,3.34L19.68,9H17ZM10,2l1,1H10ZM6,19H2V2H9V3H6Zm15,3H8V5h7v6h6Z"/><path class="cls-2" d="M45,3H42L39,0H29V21h6v3H52V10Zm1,3.34L48.68,9H46ZM39,2l1,1H39ZM35,19H31V2h7V3H35Zm15,3H37V5h7v6h6Z"/><path class="cls-3" d="M74,3H71L68,0H58V21h6v3H81V10Zm1,3.34L77.68,9H75ZM68,2l1,1H68ZM64,19H60V2h7V3H64Zm15,3H66V5h7v6h6Z"/><path class="cls-4" d="M103.08,3h-3l-3-3h-10V21h6v3h17V10Zm1,3.34L106.76,9h-2.68ZM97.08,2l1,1h-1Zm-4,17h-4V2h7V3h-3Zm15,3h-13V5h7v6h6Z"/><path class="cls-5" d="M132,3h-3l-3-3H116V21h6v3h17V10Zm1,3.34L135.68,9H133ZM126,2l1,1h-1Zm-4,17h-4V2h7V3h-3Zm15,3H124V5h7v6h6Z"/></g></svg>