<?xml version="1.0" encoding="UTF-8"?>
<svg width="164px" height="26px" viewBox="0 0 164 26" version="1.1" xmlns="http://www.w3.org/2000/svg" xmlns:xlink="http://www.w3.org/1999/xlink">
    <!-- Generator: Sketch 52.2 (67145) - http://www.bohemiancoding.com/sketch -->
    <title>more-tabs-btn</title>
    <desc>Created with Sketch.</desc>
    <defs>
        <linearGradient x1="50%" y1="0%" x2="50%" y2="100%" id="linearGradient-1">
            <stop stop-color="#D9D9D9" offset="0%"></stop>
            <stop stop-color="#E0E0E0" offset="100%"></stop>
        </linearGradient>
        <path d="M27,2.06929957e-15 C29.0599976,2.66453526e-15 32.0500031,0.409999847 33,4 C33.3992274,5.69812462 35.2399979,12.6000004 35.7600021,14.8099995 C36.2800064,17.0199986 36.0599976,18.000698 34,18.001 C32.6266677,18.0012013 24.2921345,18.0012013 8.99640037,18.001 C6.93340037,18.001 3.94340037,17.595 2.99640037,14.001 C2.28640037,10.982 0.753400371,5.403 0.239400371,3.188 C-0.279599629,0.95 -0.0655996294,2.06929957e-15 1.99640037,2.06929957e-15 C17.2921351,1.67870926e-15 25.6266683,1.67870926e-15 27,2.06929957e-15 Z" id="path-2"></path>
        <filter x="-1.4%" y="-2.8%" width="102.8%" height="111.1%" filterUnits="objectBoundingBox" id="filter-3">
            <feOffset dx="0" dy="1" in="SourceAlpha" result="shadowOffsetOuter1"></feOffset>
            <feComposite in="shadowOffsetOuter1" in2="SourceAlpha" operator="out" result="shadowOffsetOuter1"></feComposite>
            <feColorMatrix values="0 0 0 0 1   0 0 0 0 1   0 0 0 0 1  0 0 0 0.4 0" type="matrix" in="shadowOffsetOuter1"></feColorMatrix>
        </filter>
        <path d="M24,11 C22.8954305,11 22,10.1045695 22,9 C22,7.8954305 22.8954305,7 24,7 C25.1045695,7 26,7.8954305 26,9 C26,10.1045695 25.1045695,11 24,11 Z M18,11 C16.8954305,11 16,10.1045695 16,9 C16,7.8954305 16.8954305,7 18,7 C19.1045695,7 20,7.8954305 20,9 C20,10.1045695 19.1045695,11 18,11 Z M12,11 C10.8954305,11 10,10.1045695 10,9 C10,7.8954305 10.8954305,7 12,7 C13.1045695,7 14,7.8954305 14,9 C14,10.1045695 13.1045695,11 12,11 Z" id="path-4"></path>
        <filter x="-3.1%" y="-12.5%" width="106.2%" height="150.0%" filterUnits="objectBoundingBox" id="filter-5">
            <feOffset dx="0" dy="1" in="SourceAlpha" result="shadowOffsetOuter1"></feOffset>
            <feColorMatrix values="0 0 0 0 1   0 0 0 0 1   0 0 0 0 1  0 0 0 0.4 0" type="matrix" in="shadowOffsetOuter1"></feColorMatrix>
        </filter>
        <path d="M25,12 C23.8954305,12 23,11.1045695 23,10 C23,8.8954305 23.8954305,8 25,8 C26.1045695,8 27,8.8954305 27,10 C27,11.1045695 26.1045695,12 25,12 Z M19,12 C17.8954305,12 17,11.1045695 17,10 C17,8.8954305 17.8954305,8 19,8 C20.1045695,8 21,8.8954305 21,10 C21,11.1045695 20.1045695,12 19,12 Z M13,12 C11.8954305,12 11,11.1045695 11,10 C11,8.8954305 11.8954305,8 13,8 C14.1045695,8 15,8.8954305 15,10 C15,11.1045695 14.1045695,12 13,12 Z" id="path-6"></path>
        <filter x="-3.1%" y="-12.5%" width="106.2%" height="150.0%" filterUnits="objectBoundingBox" id="filter-7">
            <feOffset dx="0" dy="1" in="SourceAlpha" result="shadowOffsetOuter1"></feOffset>
            <feColorMatrix values="0 0 0 0 1   0 0 0 0 1   0 0 0 0 1  0 0 0 0.4 0" type="matrix" in="shadowOffsetOuter1"></feColorMatrix>
        </filter>
    </defs>
    <g id="more-tabs-btn" stroke="none" stroke-width="1" fill="none" fill-rule="evenodd">
        <g id="Pressed" transform="translate(124.000000, 4.000000)">
            <g id="Body">
                <use fill="black" fill-opacity="1" filter="url(#filter-3)" xlink:href="#path-2"></use>
                <path stroke-opacity="0.05" stroke="#000000" stroke-width="1" d="M27,0.5 C26.2674631,0.5 26.2674631,0.5 24.6647759,0.5 C22.6270137,0.5 22.6270137,0.5 19.7191013,0.5 C12.5980512,0.5 12.5980512,0.5 1.99640037,0.5 C0.442017464,0.5 0.231706302,0.941536067 0.726458483,3.07497613 C0.951745081,4.04581234 0.980942957,4.15872646 2.1998905,8.82318164 C2.22359363,8.91389398 2.22359363,8.91389398 2.24729217,9.00462959 C2.84703846,11.3011851 3.21599352,12.7506754 3.47989754,13.8736011 C4.19582443,16.5906457 6.05331091,17.501 8.99640695,17.501 C24.2920692,17.5012013 32.6266372,17.5012013 33.9999267,17.501 C35.5482233,17.500773 35.7696864,17.0341706 35.2732938,14.9245201 C35.0642929,14.036274 34.6799185,12.5319346 33.940076,9.68262091 C33.9331647,9.65600394 33.9331647,9.65600394 33.9262531,9.6293874 C32.8482042,5.477866 32.6834685,4.83837265 32.5166375,4.12790888 C31.7982824,1.4132738 29.936528,0.5 27,0.5 Z" stroke-linejoin="square" fill="url(#linearGradient-1)" fill-rule="evenodd"></path>
            </g>
            <path d="M27,1 L1.99640037,1 C0.830383953,1 0.782060283,1.10145274 1.2135166,2.96195226 C1.43715081,3.92566778 1.46745512,4.0428607 2.68364506,8.69676357 C2.70735803,8.78751357 2.70735803,8.78751357 2.73106761,8.87829146 C3.33183757,11.1787668 3.7014749,12.6309375 3.9633947,13.7462021 C4.60851864,16.1945394 6.25402036,17.001 8.99641353,17.001 C24.2920039,17.0012013 32.6266067,17.0012013 33.9998534,17.001 C35.1591874,17.0008301 35.2186891,16.8754655 34.7865854,15.0390407 C34.5788658,14.1562399 34.1947028,12.6527278 33.4561243,9.80828206 L33.4423036,9.75505728 C32.3616854,5.59364166 32.1981567,4.95883357 32.033275,4.25581777 C31.3858867,1.80936371 29.7359583,1 27,1 Z M27,2.06929957e-15 C29.0599976,2.66453526e-15 32.0500031,0.409999847 33,4 C33.3992274,5.69812462 35.2399979,12.6000004 35.7600021,14.8099995 C36.2800064,17.0199986 36.0599976,18.000698 34,18.001 C32.6266677,18.0012013 24.2921345,18.0012013 8.99640037,18.001 C6.93340037,18.001 3.94340037,17.595 2.99640037,14.001 C2.28640037,10.982 0.753400371,5.403 0.239400371,3.188 C-0.279599629,0.95 -0.0655996294,2.06929957e-15 1.99640037,2.06929957e-15 L27,2.06929957e-15 Z" id="Body" fill-opacity="0.05" fill="#000000" fill-rule="nonzero"></path>
            <g id="Buttons">
                <use fill="black" fill-opacity="1" filter="url(#filter-5)" xlink:href="#path-4"></use>
                <use fill="#787878" fill-rule="evenodd" xlink:href="#path-4"></use>
            </g>
        </g>
        <g id="Focused" transform="translate(84.000000, 3.000000)">
            <path d="M28,1 C31.5382371,1 34.0354692,2.22500406 34.9734595,5.77114065 C35.1394039,6.47698988 35.3077604,7.13053903 36.3781015,11.2523778 L36.3919312,11.3056375 C37.1355657,14.1695551 37.5205742,15.6763763 37.7334189,16.5809583 C38.4226784,19.510286 37.7153308,21.0006019 35.0001466,21.001 C33.6267287,21.0012013 25.2922651,21.0012013 9.99640037,21.001 C6.45118256,21.001 3.95774179,19.7789644 3.02295784,16.2299315 C2.7595494,15.1098891 2.39264113,13.66844 1.79596585,11.383644 C1.77230044,11.2930352 1.77230044,11.2930352 1.74862683,11.2024359 C0.521406478,6.50632373 0.495527906,6.40624605 0.265251832,5.41390844 C-0.41935564,2.46178605 0.276917996,1 2.99640037,1 L28,1 Z" id="Shadow" fill-opacity="0.1" fill="#000000" fill-rule="nonzero"></path>
            <path d="M28,2 L2.99640037,2 C1.83038395,2 1.78206028,2.10145274 2.2135166,3.96195226 C2.43715081,4.92566778 2.46745512,5.0428607 3.68364506,9.69676357 C3.70735803,9.78751357 3.70735803,9.78751357 3.73106761,9.87829146 C4.33183757,12.1787668 4.7014749,13.6309375 4.9633947,14.7462021 C5.60851864,17.1945394 7.25402036,18.001 9.99641353,18.001 C25.2920039,18.0012013 33.6266067,18.0012013 34.9998534,18.001 C36.1591874,18.0008301 36.2186891,17.8754655 35.7865854,16.0390407 C35.5788658,15.1562399 35.1947028,13.6527278 34.4561243,10.8082821 L34.4423036,10.7550573 C33.3616854,6.59364166 33.1981567,5.95883357 33.033275,5.25581777 C32.3858867,2.80936371 30.7359583,2 28,2 Z M28,0 C31.5382371,9.99200722e-16 34.0354692,1.22500406 34.9734595,4.77114065 C35.1394039,5.47698988 35.3077604,6.13053903 36.3781015,10.2523778 L36.3919312,10.3056375 C37.1355657,13.1695551 37.5205742,14.6763763 37.7334189,15.5809583 C38.4226784,18.510286 37.7153308,20.0006019 35.0001466,20.001 C33.6267287,20.0012013 25.2922651,20.0012013 9.99640037,20.001 C6.45118256,20.001 3.95774179,18.7789644 3.02295784,15.2299315 C2.7595494,14.1098891 2.39264113,12.66844 1.79596585,10.383644 C1.77230044,10.2930352 1.77230044,10.2930352 1.74862683,10.2024359 C0.521406478,5.50632373 0.495527906,5.40624605 0.265251832,4.41390844 C-0.41935564,1.46178605 0.276917996,0 2.99640037,0 L28,0 Z" id="Path" fill="#0089D9" fill-rule="nonzero"></path>
            <path d="M28,2 L2.99640037,2 C1.83038395,2 1.78206028,2.10145274 2.2135166,3.96195226 C2.43715081,4.92566778 2.46745512,5.0428607 3.68364506,9.69676357 C3.70735803,9.78751357 3.70735803,9.78751357 3.73106761,9.87829146 C4.33183757,12.1787668 4.7014749,13.6309375 4.9633947,14.7462021 C5.60851864,17.1945394 7.25402036,18.001 9.99641353,18.001 C25.2920039,18.0012013 33.6266067,18.0012013 34.9998534,18.001 C36.1591874,18.0008301 36.2186891,17.8754655 35.7865854,16.0390407 C35.5788658,15.1562399 35.1947028,13.6527278 34.4561243,10.8082821 L34.4423036,10.7550573 C33.3616854,6.59364166 33.1981567,5.95883357 33.033275,5.25581777 C32.3858867,2.80936371 30.7359583,2 28,2 Z" id="Path" fill="#FFFFFF" fill-rule="nonzero"></path>
            <path d="M25,12 C23.8954305,12 23,11.1045695 23,10 C23,8.8954305 23.8954305,8 25,8 C26.1045695,8 27,8.8954305 27,10 C27,11.1045695 26.1045695,12 25,12 Z M19,12 C17.8954305,12 17,11.1045695 17,10 C17,8.8954305 17.8954305,8 19,8 C20.1045695,8 21,8.8954305 21,10 C21,11.1045695 20.1045695,12 19,12 Z M13,12 C11.8954305,12 11,11.1045695 11,10 C11,8.8954305 11.8954305,8 13,8 C14.1045695,8 15,8.8954305 15,10 C15,11.1045695 14.1045695,12 13,12 Z" id="Buttons" fill="#787878"></path>
        </g>
        <g id="Mouseover" transform="translate(44.000000, 3.000000)">
            <path d="M28,1 L2.99640037,1 C0.934400371,1 0.720400371,1.95 1.23940037,4.188 C1.75340037,6.403 3.28640037,11.982 3.99640037,15.001 C4.94340037,18.595 7.93340037,19.001 9.99640037,19.001 C25.2921345,19.0012013 33.6266677,19.0012013 35,19.001 C37.0599976,19.000698 37.2800064,18.0199986 36.7600021,15.8099995 C36.2399979,13.6000004 34.3992274,6.69812462 34,5 C33.0500031,1.40999985 30.0599976,1 28,1 Z M28,2.22044605e-15 C31.5382371,3.21964677e-15 34.0354692,1.22500406 34.9734595,4.77114065 C35.1394039,5.47698988 35.3077604,6.13053903 36.3781015,10.2523778 L36.3919312,10.3056375 C37.1355657,13.1695551 37.5205742,14.6763763 37.7334189,15.5809583 C38.4226784,18.510286 37.7153308,20.0006019 35.0001466,20.001 C33.6267287,20.0012013 25.2922651,20.0012013 9.99640037,20.001 C6.45118256,20.001 3.95774179,18.7789644 3.02295784,15.2299315 C2.7595494,14.1098891 2.39264113,12.66844 1.79596585,10.383644 C1.77230044,10.2930352 1.77230044,10.2930352 1.74862683,10.2024359 C0.521406478,5.50632373 0.495527906,5.40624605 0.265251832,4.41390844 C-0.41935564,1.46178605 0.276917996,2.22044605e-15 2.99640037,2.22044605e-15 L28,2.22044605e-15 Z" id="Body" fill-opacity="0.08" fill="#005180" fill-rule="nonzero"></path>
            <path d="M28,1 C30.0599976,1 33.0500031,1.40999985 34,5 C34.3992274,6.69812462 36.2399979,13.6000004 36.7600021,15.8099995 C37.2800064,18.0199986 37.0599976,19.000698 35,19.001 C33.6266677,19.0012013 25.2921345,19.0012013 9.99640037,19.001 C7.93340037,19.001 4.94340037,18.595 3.99640037,15.001 C3.28640037,11.982 1.75340037,6.403 1.23940037,4.188 C0.720400371,1.95 0.934400371,1 2.99640037,1 C18.2921351,1 26.6266683,1 28,1 Z" id="Body" fill="#D9F0FF"></path>
            <g id="Buttons">
                <use fill="black" fill-opacity="1" filter="url(#filter-7)" xlink:href="#path-6"></use>
                <use fill="#787878" fill-rule="evenodd" xlink:href="#path-6"></use>
            </g>
        </g>
        <g id="Normal" transform="translate(5.000000, 4.000000)">
            <path d="M27,2.10942375e-15 L1.99640037,2.10942375e-15 C-0.0655996294,2.10942375e-15 -0.279599629,0.95 0.239400371,3.188 C0.753400371,5.403 2.28640037,10.982 2.99640037,14.001 C3.94340037,17.595 6.93340037,18.001 8.99640037,18.001 C24.2921345,18.0012013 32.6266677,18.0012013 34,18.001 C36.0599976,18.000698 36.2800064,17.0199986 35.7600021,14.8099995 C35.2399979,12.6000004 33.3992274,5.69812462 33,4 C32.0500031,0.409999847 29.0599976,2.55351296e-15 27,2.10942375e-15 Z M27,-1 C30.5382371,-1 33.0354692,0.225004056 33.9734595,3.77114065 C34.1394039,4.47698988 34.3077604,5.13053903 35.3781015,9.25237776 L35.3919312,9.30563746 C36.1355657,12.1695551 36.5205742,13.6763763 36.7334189,14.5809583 C37.4226784,17.510286 36.7153308,19.0006019 34.0001466,19.001 C32.6267287,19.0012013 24.2922651,19.0012013 8.99640037,19.001 C5.45118256,19.001 2.95774179,17.7789644 2.02295784,14.2299315 C1.7595494,13.1098891 1.39264113,11.66844 0.795965848,9.38364397 C0.772300439,9.2930352 0.772300439,9.2930352 0.748626829,9.20243586 C-0.478593522,4.50632373 -0.504472094,4.40624605 -0.734748168,3.41390844 C-1.41935564,0.461786051 -0.723082004,-1 1.99640037,-1 L27,-1 Z" id="Body" fill-opacity="0.08" fill="#005180" fill-rule="nonzero"></path>
            <path d="M27,2.06929957e-15 C29.0599976,2.66453526e-15 32.0500031,0.409999847 33,4 C33.3992274,5.69812462 35.2399979,12.6000004 35.7600021,14.8099995 C36.2800064,17.0199986 36.0599976,18.000698 34,18.001 C32.6266677,18.0012013 24.2921345,18.0012013 8.99640037,18.001 C6.93340037,18.001 3.94340037,17.595 2.99640037,14.001 C2.28640037,10.982 0.753400371,5.403 0.239400371,3.188 C-0.279599629,0.95 -0.0655996294,2.06929957e-15 1.99640037,2.06929957e-15 C17.2921351,1.67870926e-15 25.6266683,1.67870926e-15 27,2.06929957e-15 Z" id="Body" fill="#FFFFFF"></path>
            <path d="M24,11 C22.8954305,11 22,10.1045695 22,9 C22,7.8954305 22.8954305,7 24,7 C25.1045695,7 26,7.8954305 26,9 C26,10.1045695 25.1045695,11 24,11 Z M18,11 C16.8954305,11 16,10.1045695 16,9 C16,7.8954305 16.8954305,7 18,7 C19.1045695,7 20,7.8954305 20,9 C20,10.1045695 19.1045695,11 18,11 Z M12,11 C10.8954305,11 10,10.1045695 10,9 C10,7.8954305 10.8954305,7 12,7 C13.1045695,7 14,7.8954305 14,9 C14,10.1045695 13.1045695,11 12,11 Z" id="Buttons" fill="#787878"></path>
        </g>
    </g>
</svg>