<?xml version="1.0" encoding="UTF-8"?>
<svg width="22px" height="33px" viewBox="0 0 22 33" version="1.1" xmlns="http://www.w3.org/2000/svg" xmlns:xlink="http://www.w3.org/1999/xlink">
    <!-- Generator: Sketch 52.2 (67145) - http://www.bohemiancoding.com/sketch -->
    <title>tab-disabled-side2-bk</title>
    <desc>Created with Sketch.</desc>
    <g id="tab-disabled-side2-bk" stroke="none" stroke-width="1" fill="none" fill-rule="evenodd">
        <path d="M2.19999695,2 L0,2 L0,33 L19,33 C15.8999939,33 14.3000031,31.6999969 13.6499939,29 C12.9999847,26.3000031 7.99225201,7.845938 7.5,6 C6.69999695,3 4.8500061,2 2.19999695,2 Z M2.19999695,1 C5.49583892,1 7.59261603,2.46627895 8.46623469,5.74233643 C8.54909028,6.05304371 10.7032725,14.0278838 11.5558891,17.1963347 L11.5919373,17.3303027 C13.2711629,23.5712855 14.3407607,27.5968357 14.6222167,28.7659428 C15.1742807,31.0590966 16.4081056,32 19,32 L19,34 L-1,34 L-1,1 L2.19999695,1 Z" id="Tab" fill-opacity="0.08" fill="#005180" fill-rule="nonzero"></path>
        <path d="M2.19999695,2 C4.8500061,2 6.69999695,3 7.5,6 C7.99225201,7.845938 12.9999847,26.3000031 13.6499939,29 C14.3000031,31.6999969 15.8999939,33 19,33 C18.676349,33 12.3430157,33 0,33 L0,2 C1.24160992,2 1.97494224,2 2.19999695,2 Z" id="Tab" fill="#F5F5F5"></path>
        <rect id="Green" fill="#599900" x="0" y="31" width="22" height="2"></rect>
    </g>
</svg>