<?xml version="1.0" encoding="UTF-8"?>
<svg width="22px" height="33px" viewBox="0 0 22 33" version="1.1" xmlns="http://www.w3.org/2000/svg" xmlns:xlink="http://www.w3.org/1999/xlink">
    <!-- Generator: Sketch 52.2 (67145) - http://www.bohemiancoding.com/sketch -->
    <title>tab-focus-side2-bk</title>
    <desc>Created with Sketch.</desc>
    <g id="tab-focus-side2-bk" stroke="none" stroke-width="1" fill="none" fill-rule="evenodd">
        <path d="M2.19999695,2 C4.8500061,2 6.69999695,3 7.5,6 C7.99225201,7.845938 12.9999847,26.3000031 13.6499939,29 C14.3000031,31.6999969 15.8999939,33 19,33 C18.676349,33 11.676349,33 -2,33 L-2,2 C0.574943254,2 1.97494224,2 2.19999695,2 Z" id="Tab" fill="#FFFFFF"></path>
        <path d="M12.2105223,31 C12.0066733,30.53014 11.8382714,30.0194175 11.7055482,29.4681144 C11.4337236,28.339014 10.3613815,24.3031352 8.69496895,18.1097735 L8.65894368,17.9758904 C7.80746715,14.8116762 5.65185757,6.83155201 5.56753061,6.51532714 C5.05916948,4.60898019 4.18832856,4 2.19999695,4 L-8.8817842e-16,4 L-8.8817842e-16,31 L12.2105223,31 Z M2.19999695,2 C4.8500061,2 6.69999695,3 7.5,6 C7.99225201,7.845938 12.9999847,26.3000031 13.6499939,29 C14.3000031,31.6999969 15.8999939,33 19,33 L-2,33 L-2,2 L2.19999695,2 Z" id="Tab" fill="#0089D9" fill-rule="nonzero"></path>
        <rect id="Green" fill="#599900" x="0" y="31" width="22" height="2"></rect>
    </g>
</svg>