<?xml version="1.0" encoding="UTF-8"?>
<svg width="10px" height="650px" viewBox="0 0 10 650" version="1.1" xmlns="http://www.w3.org/2000/svg" xmlns:xlink="http://www.w3.org/1999/xlink">
    <!-- Generator: Sketch 52.5 (67469) - http://www.bohemiancoding.com/sketch -->
    <title>wizard-right-inner-backgrounds</title>
    <desc>Created with Sketch.</desc>
    <defs>
        <rect id="path-1" x="0" y="0" width="100" height="48"></rect>
        <filter x="-0.5%" y="-1.0%" width="101.0%" height="104.2%" filterUnits="objectBoundingBox" id="filter-2">
            <feOffset dx="0" dy="1" in="SourceAlpha" result="shadowOffsetOuter1"></feOffset>
            <feColorMatrix values="0 0 0 0 1   0 0 0 0 1   0 0 0 0 1  0 0 0 0.4 0" type="matrix" in="shadowOffsetOuter1"></feColorMatrix>
        </filter>
        <linearGradient x1="50%" y1="8.22189833%" x2="50%" y2="76.9254679%" id="linearGradient-3">
            <stop stop-color="#576D7A" offset="0%"></stop>
            <stop stop-color="#485E6B" offset="100%"></stop>
        </linearGradient>
        <linearGradient x1="50%" y1="4.82687883%" x2="50%" y2="100%" id="linearGradient-4">
            <stop stop-color="#000000" offset="0%"></stop>
            <stop stop-color="#000000" stop-opacity="0" offset="100%"></stop>
        </linearGradient>
        <polygon id="path-5" points="1 1 101 1 101 47 1 47"></polygon>
        <filter x="-2.0%" y="-2.2%" width="104.0%" height="108.7%" filterUnits="objectBoundingBox" id="filter-6">
            <feOffset dx="0" dy="1" in="SourceAlpha" result="shadowOffsetOuter1"></feOffset>
            <feGaussianBlur stdDeviation="0.5" in="shadowOffsetOuter1" result="shadowBlurOuter1"></feGaussianBlur>
            <feColorMatrix values="0 0 0 0 0   0 0 0 0 0   0 0 0 0 0  0 0 0 0.5 0" type="matrix" in="shadowBlurOuter1"></feColorMatrix>
        </filter>
        <linearGradient x1="50%" y1="10%" x2="50%" y2="72.1233743%" id="linearGradient-7">
            <stop stop-color="#E8F6FF" offset="0%"></stop>
            <stop stop-color="#DAE7EF" offset="100%"></stop>
        </linearGradient>
        <rect id="path-8" x="0" y="1" width="102" height="47"></rect>
        <filter x="-0.5%" y="-1.1%" width="101.0%" height="104.3%" filterUnits="objectBoundingBox" id="filter-9">
            <feOffset dx="0" dy="1" in="SourceAlpha" result="shadowOffsetOuter1"></feOffset>
            <feColorMatrix values="0 0 0 0 1   0 0 0 0 1   0 0 0 0 1  0 0 0 0.4 0" type="matrix" in="shadowOffsetOuter1"></feColorMatrix>
        </filter>
        <linearGradient x1="50%" y1="0%" x2="50%" y2="100%" id="linearGradient-10">
            <stop stop-color="#D9D9D9" offset="0%"></stop>
            <stop stop-color="#E0E0E0" offset="100%"></stop>
        </linearGradient>
        <linearGradient x1="50%" y1="4.82687883%" x2="50%" y2="100%" id="linearGradient-11">
            <stop stop-color="#000000" offset="0%"></stop>
            <stop stop-color="#000000" stop-opacity="0" offset="97.3830383%"></stop>
        </linearGradient>
        <linearGradient x1="50%" y1="0%" x2="50%" y2="100%" id="linearGradient-12">
            <stop stop-color="#569400" offset="0%"></stop>
            <stop stop-color="#487C00" offset="55%"></stop>
            <stop stop-color="#477A00" offset="100%"></stop>
        </linearGradient>
        <linearGradient x1="50%" y1="4.82687883%" x2="50%" y2="100%" id="linearGradient-13">
            <stop stop-color="#226600" offset="0%"></stop>
            <stop stop-color="#226600" stop-opacity="0" offset="100%"></stop>
        </linearGradient>
        <polygon id="path-14" points="1 1 101 1 101 47 1 47"></polygon>
        <filter x="-2.0%" y="-2.2%" width="104.0%" height="108.7%" filterUnits="objectBoundingBox" id="filter-15">
            <feOffset dx="0" dy="1" in="SourceAlpha" result="shadowOffsetOuter1"></feOffset>
            <feGaussianBlur stdDeviation="0.5" in="shadowOffsetOuter1" result="shadowBlurOuter1"></feGaussianBlur>
            <feColorMatrix values="0 0 0 0 0   0 0 0 0 0   0 0 0 0 0  0 0 0 0.5 0" type="matrix" in="shadowBlurOuter1"></feColorMatrix>
        </filter>
        <linearGradient x1="50%" y1="10%" x2="50%" y2="73.2704118%" id="linearGradient-16">
            <stop stop-color="#FFFFFF" offset="0%"></stop>
            <stop stop-color="#F0F0F0" offset="100%"></stop>
        </linearGradient>
        <rect id="path-17" x="0" y="0" width="102" height="48"></rect>
        <filter x="-0.5%" y="-1.0%" width="101.0%" height="104.2%" filterUnits="objectBoundingBox" id="filter-18">
            <feOffset dx="0" dy="1" in="SourceAlpha" result="shadowOffsetOuter1"></feOffset>
            <feColorMatrix values="0 0 0 0 1   0 0 0 0 1   0 0 0 0 1  0 0 0 0.4 0" type="matrix" in="shadowOffsetOuter1"></feColorMatrix>
        </filter>
        <rect id="path-19" x="0" y="0" width="102" height="48"></rect>
        <filter x="-0.5%" y="-1.0%" width="101.0%" height="104.2%" filterUnits="objectBoundingBox" id="filter-20">
            <feOffset dx="0" dy="1" in="SourceAlpha" result="shadowOffsetOuter1"></feOffset>
            <feColorMatrix values="0 0 0 0 1   0 0 0 0 1   0 0 0 0 1  0 0 0 0.4 0" type="matrix" in="shadowOffsetOuter1"></feColorMatrix>
        </filter>
        <rect id="path-21" x="0" y="0" width="102" height="48"></rect>
        <filter x="-0.5%" y="-1.0%" width="101.0%" height="104.2%" filterUnits="objectBoundingBox" id="filter-22">
            <feOffset dx="0" dy="1" in="SourceAlpha" result="shadowOffsetOuter1"></feOffset>
            <feColorMatrix values="0 0 0 0 1   0 0 0 0 1   0 0 0 0 1  0 0 0 0.4 0" type="matrix" in="shadowOffsetOuter1"></feColorMatrix>
        </filter>
        <linearGradient x1="50%" y1="0%" x2="50%" y2="100%" id="linearGradient-23">
            <stop stop-color="#CCCCCC" offset="0%"></stop>
            <stop stop-color="#D1D1D1" offset="100%"></stop>
        </linearGradient>
        <rect id="path-24" x="1" y="1" width="100" height="46"></rect>
        <filter x="-2.0%" y="-2.2%" width="104.0%" height="108.7%" filterUnits="objectBoundingBox" id="filter-25">
            <feOffset dx="0" dy="1" in="SourceAlpha" result="shadowOffsetOuter1"></feOffset>
            <feGaussianBlur stdDeviation="0.5" in="shadowOffsetOuter1" result="shadowBlurOuter1"></feGaussianBlur>
            <feColorMatrix values="0 0 0 0 0   0 0 0 0 0   0 0 0 0 0  0 0 0 0.25 0" type="matrix" in="shadowBlurOuter1"></feColorMatrix>
        </filter>
        <rect id="path-26" x="1" y="1" width="100" height="46"></rect>
        <filter x="-2.0%" y="-2.2%" width="104.0%" height="108.7%" filterUnits="objectBoundingBox" id="filter-27">
            <feOffset dx="0" dy="1" in="SourceAlpha" result="shadowOffsetOuter1"></feOffset>
            <feGaussianBlur stdDeviation="0.5" in="shadowOffsetOuter1" result="shadowBlurOuter1"></feGaussianBlur>
            <feColorMatrix values="0 0 0 0 0   0 0 0 0 0   0 0 0 0 0  0 0 0 0.25 0" type="matrix" in="shadowBlurOuter1"></feColorMatrix>
        </filter>
    </defs>
    <g id="Page-1" stroke="none" stroke-width="1" fill="none" fill-rule="evenodd">
        <g id="Wizard" transform="translate(-160.000000, -39.000000)">
            <g id="Group" transform="translate(40.000000, 40.000000)">
                <g id="Disabled" transform="translate(100.000000, 600.000000)" fill="#D7D7D7">
                    <rect id="Body" x="0" y="0" width="102" height="48"></rect>
                </g>
                <g id="Visited" transform="translate(100.000000, 540.000000)">
                    <g id="Shadow" fill="black" fill-opacity="1">
                        <use filter="url(#filter-2)" xlink:href="#path-1"></use>
                    </g>
                    <rect id="Body" fill="url(#linearGradient-3)" x="0" y="0" width="100" height="48"></rect>
                    <rect id="Inner-Shadow" fill-opacity="0.15" fill="url(#linearGradient-4)" x="0" y="0" width="100" height="3"></rect>
                    <path d="M0,0 L100,0 L100,48 L0,48 L0,0 Z M1,1 L1,47 L99,47 L99,1 L1,1 Z" id="Inner-Darker" fill-opacity="0.15" fill="#000000"></path>
                </g>
                <g id="Mouseover-Focused" transform="translate(100.000000, 480.000000)">
                    <g id="Shadow" fill="black" fill-opacity="1">
                        <use filter="url(#filter-6)" xlink:href="#path-5"></use>
                    </g>
                    <polygon id="Border" fill-opacity="0.12" fill="#000000" points="0 0 102 0 102 48 0 48"></polygon>
                    <rect id="Body" fill="url(#linearGradient-7)" x="1" y="1" width="100" height="46"></rect>
                    <path d="M2,2 L100,2 L100,46 L2,46 L2,2 Z M3,3 L3,45 L99,45 L99,3 L3,3 Z" id="Lighter" fill-opacity="0.25" fill="#FFFFFF"></path>
                    <path d="M0,0 L102,0 L102,48 L0,48 L0,0 Z M2,2 L2,46 L100,46 L100,2 L2,2 Z" id="Blue" fill="#0089D9"></path>
                </g>
                <g id="Selected-Focused" transform="translate(100.000000, 360.000000)">
                    <g id="Shadow" fill="black" fill-opacity="1">
                        <use filter="url(#filter-9)" xlink:href="#path-8"></use>
                    </g>
                    <rect id="Border" fill-opacity="0.12" fill="#000000" x="0" y="0" width="102" height="48"></rect>
                    <rect id="Body" fill="url(#linearGradient-10)" x="1" y="1" width="100" height="46"></rect>
                    <rect id="Inner-Shadow" fill-opacity="0.19" fill="url(#linearGradient-11)" x="1" y="1" width="100" height="3"></rect>
                    <path d="M0,0 L102,0 L102,48 L0,48 L0,0 Z M2,2 L2,46 L100,46 L100,2 L2,2 Z" id="Blue" fill="#0089D9"></path>
                </g>
                <g id="Selected-Focused-(Primary)" transform="translate(100.000000, 419.000000)">
                    <rect id="Body" fill="url(#linearGradient-12)" x="1" y="1" width="100" height="48"></rect>
                    <rect id="Inner-Shadow" fill-opacity="0.29" fill="url(#linearGradient-13)" x="1" y="1" width="100" height="3"></rect>
                    <path d="M4.97379915e-14,0 L102,0 L102,50 L4.97379915e-14,50 L4.97379915e-14,0 Z M4,4 L4,46 L98,46 L98,4 L4,4 Z" id="Darker" fill-opacity="0.15" fill="#000000"></path>
                    <path d="M1,1 L101,1 L101,49 L1,49 L1,1 Z M3,3 L3,47 L99,47 L99,3 L3,3 Z" id="White" fill="#FFFFFF"></path>
                </g>
                <g id="Normal-Focused" transform="translate(100.000000, 300.000000)">
                    <g id="Shadow" fill="black" fill-opacity="1">
                        <use filter="url(#filter-15)" xlink:href="#path-14"></use>
                    </g>
                    <polygon id="Border" fill-opacity="0.12" fill="#000000" points="0 0 102 0 102 48 0 48"></polygon>
                    <rect id="Body" fill="url(#linearGradient-16)" x="1" y="1" width="100" height="46"></rect>
                    <path d="M2,2 L100,2 L100,46 L2,46 L2,2 Z M3,3 L3,45 L99,45 L99,3 L3,3 Z" id="Lighter" fill-opacity="0.5" fill="#FFFFFF"></path>
                    <path d="M0,0 L102,0 L102,48 L0,48 L0,0 Z M2,2 L2,46 L100,46 L100,2 L2,2 Z" id="Blue" fill="#0089D9"></path>
                </g>
                <g id="Selected-(Primary)" transform="translate(100.000000, 240.000000)">
                    <g id="Shadow" fill="black" fill-opacity="1">
                        <use filter="url(#filter-18)" xlink:href="#path-17"></use>
                    </g>
                    <rect id="Body" fill="url(#linearGradient-12)" x="0" y="0" width="102" height="48"></rect>
                    <rect id="Inner-Shadow" fill-opacity="0.29" fill="url(#linearGradient-13)" x="0" y="0" width="102" height="3"></rect>
                    <path d="M0,0 L102,0 L102,48 L0,48 L0,0 Z M1,1 L1,47 L101,47 L101,1 L1,1 Z" id="Inner-Darker" fill-opacity="0.15" fill="#000000"></path>
                </g>
                <g id="Selected" transform="translate(100.000000, 180.000000)">
                    <g id="Shadow" fill="black" fill-opacity="1">
                        <use filter="url(#filter-20)" xlink:href="#path-19"></use>
                    </g>
                    <rect id="Body" fill="url(#linearGradient-10)" x="0" y="0" width="102" height="48"></rect>
                    <rect id="Inner-Shadow" fill-opacity="0.19" fill="url(#linearGradient-11)" x="0" y="0" width="102" height="3"></rect>
                    <path d="M0,0 L102,0 L102,48 L0,48 L0,0 Z M1,1 L1,47 L101,47 L101,1 L1,1 Z" id="Inner-Darker" fill-opacity="0.05" fill="#000000"></path>
                </g>
                <g id="Pressed" transform="translate(100.000000, 120.000000)">
                    <g id="Shadow" fill="black" fill-opacity="1">
                        <use filter="url(#filter-22)" xlink:href="#path-21"></use>
                    </g>
                    <rect id="Body" fill="url(#linearGradient-23)" x="0" y="0" width="102" height="48"></rect>
                    <rect id="Inner-Shadow" fill-opacity="0.19" fill="url(#linearGradient-11)" x="0" y="0" width="102" height="3"></rect>
                    <path d="M0,0 L102,0 L102,48 L0,48 L0,0 Z M1,1 L1,47 L101,47 L101,1 L1,1 Z" id="Inner-Darker" fill-opacity="0.05" fill="#000000"></path>
                </g>
                <g id="Mouseover" transform="translate(100.000000, 60.000000)">
                    <g id="Shadow" fill="black" fill-opacity="1">
                        <use filter="url(#filter-25)" xlink:href="#path-24"></use>
                    </g>
                    <rect id="Border" fill-opacity="0.12" fill="#000000" x="0" y="0" width="102" height="48"></rect>
                    <rect id="Body" fill="url(#linearGradient-7)" x="1" y="1" width="100" height="46"></rect>
                    <path d="M1,1 L101,1 L101,47 L1,47 L1,1 Z M2,2 L2,46 L100,46 L100,2 L2,2 Z" id="Lighter" fill-opacity="0.25" fill="#FFFFFF"></path>
                </g>
                <g id="Normal" transform="translate(100.000000, 0.000000)">
                    <g id="Shadow" fill="black" fill-opacity="1">
                        <use filter="url(#filter-27)" xlink:href="#path-26"></use>
                    </g>
                    <rect id="Border" fill-opacity="0.12" fill="#000000" x="0" y="0" width="102" height="48"></rect>
                    <rect id="Body" fill="url(#linearGradient-16)" x="1" y="1" width="100" height="46"></rect>
                    <path d="M1,1 L101,1 L101,47 L1,47 L1,1 Z M2,2 L2,46 L100,46 L100,2 L2,2 Z" id="Lighter" fill-opacity="0.5" fill="#FFFFFF"></path>
                </g>
            </g>
        </g>
    </g>
</svg>